<?xml version="1.0" encoding="utf-8"?>
<!-- Generator: Adobe Illustrator 24.0.1, SVG Export Plug-In . SVG Version: 6.00 Build 0)  -->
<svg version="1.1" id="Layer_1" xmlns="http://www.w3.org/2000/svg" xmlns:xlink="http://www.w3.org/1999/xlink" x="0px" y="0px"
	 viewBox="0 0 14529.2 8723.3" style="enable-background:new 0 0 14529.2 8723.3;" xml:space="preserve">
<style type="text/css">
	.st0{fill-rule:evenodd;clip-rule:evenodd;fill:#E4EBF7;}
	.st1{fill-rule:evenodd;clip-rule:evenodd;fill:#FFFFFF;}
	.st2{fill-rule:evenodd;clip-rule:evenodd;fill:#4E8FB7;}
	.st3{fill-rule:evenodd;clip-rule:evenodd;fill:#70B2DD;}
	.st4{fill-rule:evenodd;clip-rule:evenodd;fill:#ABDAF7;}
	.st5{fill-rule:evenodd;clip-rule:evenodd;fill:#F49187;}
	.st6{fill-rule:evenodd;clip-rule:evenodd;fill:#FAB09C;}
	.st7{fill-rule:evenodd;clip-rule:evenodd;fill:#EDA698;}
	.st8{fill-rule:evenodd;clip-rule:evenodd;fill:url(#SVGID_1_);}
	.st9{fill-rule:evenodd;clip-rule:evenodd;fill:url(#SVGID_2_);}
	.st10{fill-rule:evenodd;clip-rule:evenodd;fill:url(#SVGID_3_);}
	.st11{fill-rule:evenodd;clip-rule:evenodd;fill:url(#SVGID_4_);}
	.st12{fill-rule:evenodd;clip-rule:evenodd;fill:#FEB19E;}
	.st13{fill-rule:evenodd;clip-rule:evenodd;fill:#FF856A;}
	.st14{fill-rule:evenodd;clip-rule:evenodd;fill:url(#SVGID_5_);}
	.st15{fill-rule:evenodd;clip-rule:evenodd;fill:#FFC7AE;}
	.st16{fill-rule:evenodd;clip-rule:evenodd;fill:#525559;}
	.st17{fill-rule:evenodd;clip-rule:evenodd;fill:#F230DB;}
	.st18{fill-rule:evenodd;clip-rule:evenodd;fill:#90C6E0;}
	.st19{fill-rule:evenodd;clip-rule:evenodd;fill:#7AB7D7;}
	.st20{fill-rule:evenodd;clip-rule:evenodd;fill:#B7D2EB;}
    #hour{
        transform: rotate(-90deg);
        transform-origin: 80.58% 23.68%;
        animation: watchRotate 36s linear infinite;
    }
    #time{
        transform: rotate(-90deg);
        transform-origin: 80.6% 23.7%;
        animation: watchRotate 3s linear infinite;
    }
    @keyframes watchRotate{
        0%{transform: rotate(0)}
        100%{transform: rotate(360deg)}
    }
</style>
<path class="st0" d="M14447.7,6068.3c-4,22.5-7.9,44.4-11.8,66.3c-282.8,1590.1-1110.4,2288.9-1110.4,2288.9H908
	c0,0-759.6-1396.1-425.6-2614.5c5.1-18.6,10.1-37.1,15.7-55.1c219.8-725.3,840-1378.6,2256.9-1624.3
	c304.7-52.9,585.3-103.5,843.9-151.8c36.5-7.3,72-14.1,107.4-20.8c899-172.1,1525.9-325.5,2002.7-501h0.6
	c34.9-12.9,69.2-26.4,102.9-39.4c968.8-381.2,1299.9-876.6,2168.1-1883c67.5-78.1,139.4-154.6,215.9-229.9
	c16.9-16.9,33.7-33.2,51.2-48.9c468.4-445.3,1090.2-829.3,1760.4-1051.4c18-6.2,36-12.4,54-18c858.6-272.1,1791.3-276,2580.2,200.2
	c29.8,18,59.6,36.6,89.4,56.2c624.7,412.1,1150.9,1140.3,1465.2,2293.4C14572.5,4114.5,14588.3,5215.9,14447.7,6068.3
	L14447.7,6068.3z"/>
<path class="st1" d="M13196.7,3018.6c-178.8,901.3-793.4,1626-1826.2,2155.1C9340.7,6212.2,8532.8,7511.6,8213.4,8423.6h-59l1.7-5.1
	C8476,7495.9,9289,6175.7,11344.6,5123.7c1017.1-520.7,1621.5-1232.5,1797-2115.8c180.5-910.9-125.4-1866.1-499.3-2622.4
	c29.8,18,59.6,36.6,89.4,56.2C13091.6,1193,13373.2,2126.3,13196.7,3018.6L13196.7,3018.6z"/>
<path class="st1" d="M14447.7,6068.3c-4,22.5-7.9,44.4-11.8,66.3c-727,334.5-1654.1,693.8-2828.7,1051.4
	c-929.9,282.8-1582.7,697.8-1948.2,1237.5h-67.5c368.3-566.2,1038.5-999.1,1999.4-1291.5
	C12782.9,6769.4,13717.9,6405.6,14447.7,6068.3L14447.7,6068.3z"/>
<path class="st1" d="M10137.4,1105.8c-0.6,980-288.4,2314.2-1654.1,3108.7c-578.6,336.8-1228.5,463.3-1879.6,463.3
	c-883.9,0-1769.4-233.3-2481.2-493.7c-180.5-65.8-355.9-135.5-523.4-206.3c36.5-7.3,72-14.1,107.4-20.8
	c1406.2,579.7,3309.4,1046.4,4748.8,209.2c1342.7-781,1625.5-2095.5,1626-3060.4c0-324.4-30.4-632-73.1-902.4c18-6.2,36-12.4,54-18
	C10106,460.9,10137.4,774.7,10137.4,1105.8L10137.4,1105.8z"/>
<path class="st1" d="M8105.5,3004.6c-273.8,361.5-758.5,542.6-1447.8,542.6c-281.7,0-598.2-30.4-948-91.1
	c34.9-12.9,69.2-26.4,102.9-39.4c1130.7,181.6,1885.2,32.6,2247.9-445.9c325-427.9,289.6-1064.9,136.1-1667.1
	c16.9-16.9,33.7-33.2,51.2-48.9C8411.3,1877.8,8452.4,2547.5,8105.5,3004.6L8105.5,3004.6z"/>
<path class="st1" d="M7144.6,8423.6h-57.9c-119.2-470.6-340.2-978.9-743.3-1391.6c-660.6-676.4-1663.7-959.2-2981.1-839.5
	c-1206,109.1-2170.9-19.7-2879.9-383.5c5.1-18.6,10.1-37.1,15.7-55.1c700.6,362.7,1658.1,490.9,2859.1,382.3
	c1335.9-120.9,2353.6,167.6,3026.6,856.9C6798.8,7418.3,7024.2,7941.2,7144.6,8423.6L7144.6,8423.6z"/>
<path class="st2" d="M2312.8,7893.9c0,0,323.3-723.9-421.7-1286.1c-745-562.3-913.7-969.9-913.7-969.9
	c0,0-251.7,1320.2,203.8,1946.8v906.6H2284L2312.8,7893.9L2312.8,7893.9z"/>
<path class="st3" d="M1645.8,8442.1c0,0-36.5-506,467.3-844.8c503.8-338.8,496.5-680.3,496.5-680.3c0,0,387.1,969.1-102.2,1525.1
	H1645.8L1645.8,8442.1z"/>
<path class="st4" d="M1757.8,8442.1c0,0,77.7-681.7-558.5-1047.2c-636.3-365.5-769.8-836.4-769.8-836.4
	c0,0-351.4,1187.8,224.9,1883.5H1757.8L1757.8,8442.1z"/>
<path class="st5" d="M5700.1,7078.7c-196.1,327-453.8,638.7-765.2,937v339.9H5695c0,0,240.1-129.3,721.4-497
	C6416.5,7858.5,6574.3,6806.9,5700.1,7078.7L5700.1,7078.7z"/>
<path class="st5" d="M10479.3,7725.3c0,0-35.4,674.7-204.1,716.9c-168.7,42.2-859.8-583.6-859.8-583.6l-78.6-298.6l512.1-373.5
	C9848.9,7186.4,10458.5,7373.9,10479.3,7725.3L10479.3,7725.3z"/>
<path class="st6" d="M6803,8423.6h2080.3l-2087.1,18.5C6798.5,8435.9,6800.7,8429.7,6803,8423.6L6803,8423.6z"/>
<path class="st7" d="M8883.3,8423.6h-669.9c7.9-22.4,16-45.1,24.4-68l702.8,0l-35.9,67.8L8883.3,8423.6L8883.3,8423.6z
	 M8154.4,8423.6H7144.6c-5.6-22.6-11.5-45.3-17.6-68l1051.5,0c-7.7,21.2-15.2,42.2-22.4,63L8154.4,8423.6L8154.4,8423.6z
	 M7086.7,8423.6h-283.6c12.1-31.7,25.9-61.7,41.1-90.2c-2,7.6-3.9,14.9-6,22.1l230.6,0C7075,8378.3,7080.9,8401,7086.7,8423.6
	L7086.7,8423.6z"/>
<path class="st6" d="M8213.4,8423.6h-59l1.7-5.1c7.2-20.7,14.7-41.8,22.4-63l59.4,0C8229.4,8378.4,8221.3,8401.2,8213.4,8423.6
	L8213.4,8423.6L8213.4,8423.6z"/>
<path class="st6" d="M7144.6,8423.6h-57.9c-5.7-22.6-11.7-45.3-17.9-68l58.2,0C7133.1,8378.3,7138.9,8401,7144.6,8423.6
	L7144.6,8423.6L7144.6,8423.6z"/>
<linearGradient id="SVGID_1_" gradientUnits="userSpaceOnUse" x1="9759.79" y1="8412.4043" x2="6887.3628" y2="4645.1396">
	<stop  offset="0" style="stop-color:#F79239"/>
	<stop  offset="0.9854" style="stop-color:#F7C658"/>
</linearGradient>
<path class="st8" d="M10522.6,7528.9c-0.1-4.1-0.3-8.1-0.5-12.3c-0.2-4-0.6-8.1-1-12.2c-0.4-4-0.8-8.1-1.3-12.1c-0.5-4-1.1-8-1.7-12
	c-0.7-4-1.4-8-2.2-12c-0.8-4-1.7-7.9-2.7-11.9c-1-3.9-2-7.9-3.1-11.8c-1.1-3.9-2.3-7.8-3.6-11.7c-1.3-3.9-2.6-7.8-4.1-11.7
	c-1.4-3.9-2.9-7.7-4.6-11.6c-1.6-3.8-3.3-7.7-5.1-11.5c-1.8-3.8-3.6-7.6-5.6-11.4c-1.9-3.8-4-7.5-6.1-11.3
	c-2.1-3.7-4.4-7.5-6.7-11.2c-2.3-3.7-4.7-7.4-7.3-11.1c-2.5-3.7-5.1-7.4-7.9-11.1c-2.7-3.6-5.5-7.3-8.5-10.9
	c-2.9-3.6-5.9-7.2-9.1-10.8c-3.2-3.6-6.4-7.2-9.8-10.7c-3.4-3.6-6.9-7.1-10.6-10.6c-3.6-3.5-7.4-7-11.3-10.5
	c-3.9-3.5-7.9-6.9-12-10.4l-3.1-2.6l0.2-9.3l0.3-12.4l0.3-12.4l0.2-12.4l0.2-12.4l0.2-12.4l0.2-12.4l0.2-12.4l0.2-12.4l0.2-12.4
	l0.1-12.3l0.1-12.4l0.1-12.4l0.1-12.4l0.1-12.4l0.1-12.3l0.1-12.4l0.1-12.4l0.1-12.3l0.1-12.3l0-12.3l0-12.3l0-12.3l0-12.3l0-12.3
	v-12.3l0-12.3l0-12.3l0-12.3l0-12.3l0-12.3l0-12.3l-0.1-12.3l-0.1-12.3l-0.1-12.3l-0.1-12.3l-0.1-12.3l-0.1-12.3l-0.1-12.3
	l-0.1-12.3l-0.1-12.3l-0.1-12.3l-0.2-12.3l-0.2-12.3l-0.2-12.3l-0.2-12.3l-0.2-12.3l-0.2-12.3l-0.2-12.3l-0.2-12.3l-0.2-12.3
	l-0.2-12.3l-0.3-12.3l-0.3-12.3l-0.3-12.3l-0.3-12.3l-0.3-12.3l-0.3-12.3l-0.3-12.3l-0.3-12.3l-0.3-12.3l-0.4-12.3l-0.4-12.3
	l-0.4-12.3l-0.4-12.3l-0.4-12.3l-0.4-12.3l-0.4-12.3l-0.4-12.3l-0.4-12.3l-0.4-12.3l-0.4-12.3l-0.5-12.3l-0.5-12.2l-0.5-12.3
	l-0.5-12.2l-0.5-12.2l-0.5-12.3l-0.5-12.2l-0.5-12.2l-0.6-12.2l-0.5-12.2l-0.6-12.2l-0.6-12.2l-0.6-12.2l-0.6-12.2l-0.6-12.2
	l-0.6-12.2l-0.7-12.2l-0.7-12.2l-0.7-12.2l-0.7-12.2l-0.7-12.2l-0.7-12.2l-0.7-12.2l-0.8-12.2l-0.8-12.2l-0.8-12.2l-0.8-12.2
	l-0.8-12.2l-0.8-12.2l-0.8-12.2l-0.8-12.2l-0.9-12.2l-0.9-12.2l-0.9-12.2l-0.9-12.2l-0.9-12.2l-0.9-12.2l-1-12.2l-1-12.2l-1-12.2
	l-1-12.2l-1-12.2l-1.1-12.1l-1.1-12.2l-1.1-12.2l-1.1-12.1l-1.1-12.1l-1.2-12.1l-1.2-12.1l-1-10l-0.2-2.1l-1.2-12.1l-1.2-12.1
	l-1.3-12.1l-1.3-12.1l-1.3-12.1l-0.1-1.1l-1.2-11l-1.3-12.1l-1.4-12.1l-1.4-12.1l-1.4-12.1l-1.4-12.1l-1.5-12.1l-1.5-12.1l-1.5-12.1
	l-1.5-12.1l-1.6-12.1l-1.6-12.1l-1.6-12.1l-1.7-12.1l-1.7-12l-1.7-12l-1.8-12.1l-1.8-12l-1.8-12l-1.8-12l-1.9-12l-1.9-12l-2-12
	l-2-12l-2.1-12l-2.1-12l-2.1-12l-2.2-12l-2.2-12l-2.3-11.9l-2.3-12l-2.4-11.9l-2.4-12l-2.5-11.9l-2.5-11.9l-2.6-11.9l-2.6-11.9
	l-2.7-11.9l-2.8-11.9l-2.8-11.9l-2.9-11.9l-2.9-11.8l-3-11.8l-3.1-11.8l-3.2-11.8l-3.3-11.8l-3.3-11.8l-3.5-11.8l-3.6-11.7
	l-3.7-11.7l-3.8-11.7l-3.9-11.7l-4-11.7l-4.1-11.6l-4.3-11.6l-4.4-11.6l-4.6-11.6l-4.7-11.5l-5-11.5l-5.2-11.5l-5.4-11.4l-5.6-11.4
	c-1.9-3.8-3.9-7.6-5.9-11.3c-2.1-3.8-4.1-7.6-6.2-11.3l-2.7-4.8c-1.3-2.2-2.7-4.3-4-6.4c-2.3-3.7-4.5-7.5-6.9-11.2
	c-2.4-3.7-4.9-7.4-7.4-11.1c-2.5-3.7-5.1-7.4-7.8-11.1c-2.7-3.7-5.4-7.3-8.2-11c-2.8-3.7-5.6-7.3-8.5-10.9
	c-2.9-3.6-5.9-7.3-8.9-10.9c-3-3.6-6.1-7.2-9.3-10.8c-3.2-3.6-6.4-7.2-9.7-10.7c-3.3-3.6-6.6-7.1-10-10.7
	c-3.4-3.6-6.9-7.1-10.4-10.6c-3.5-3.5-7.1-7.1-10.7-10.6c-3.6-3.5-7.4-7-11.1-10.5l-11.4-10.4c-3.9-3.5-7.8-6.9-11.8-10.4
	c-4-3.5-8-6.9-12.1-10.3c-4.1-3.4-8.3-6.9-12.5-10.3c-4.2-3.4-8.5-6.8-12.8-10.2c-4.3-3.4-8.8-6.8-13.2-10.2l-13.4-10.1l-13.8-10.1
	c-4.7-3.3-9.3-6.7-14.1-10c-4.8-3.3-9.6-6.6-14.5-10c-4.9-3.3-9.7-6.6-14.7-9.9c-5-3.3-10.1-6.6-15.1-9.9
	c-5.1-3.3-10.1-6.6-15.3-9.8c-5.2-3.3-10.5-6.5-15.8-9.8c-5.3-3.2-10.5-6.5-15.8-9.7c-5.4-3.3-10.9-6.4-16.4-9.6
	c-5.5-3.2-10.9-6.4-16.5-9.6c-5.6-3.2-11.3-6.4-17-9.5c-5.7-3.2-11.3-6.4-17.1-9.5l-17.5-9.5
	c-516.1-276.5-1289.7-430.6-1289.7-430.5l-720.3,48.9c0,0-699.4,168.7-1128.5,506c-103.1,81.1-198.4,241.7-283.8,439l-5.7,13.3
	l-5.7,13.3l-5.5,13.2l-5.5,13.3l-5.4,13.2l-5.3,13.2l-5.3,13.2l-5.2,13.2l-5.2,13.2l-5.1,13.2l-5,13.2l-5,13.2l-4.9,13.1l-4.9,13.1
	l-4.8,13.1l-4.7,13.1l-4.7,13.1l-4.6,13.1l-4.6,13.1l-4.6,13.1l-4.5,13.1l-4.5,13.1l-4.4,13.1l-4.4,13l-4.4,13.1l-4.3,13.1l-4.3,13
	l-4.3,13l-4.2,13l-4.2,13l-4.1,13l-4.1,13l-4.1,13l-4,13l-4,13l-4,13l-3.9,13l-3.9,13l-3.9,13l-3.8,13l-3.9,13l-3.8,13l-3.8,13
	l-3.8,12.9l-3.7,13l-3.7,12.9l-3.7,12.9l-3.6,12.9l-3.6,12.9l-3.6,12.9l-3.6,12.9l-3.6,12.9l-3.5,12.9l-3.5,12.9l-3.5,12.9
	l-3.4,12.9l-3.5,12.9l-3.4,12.9l-3.4,12.9l-3.4,12.9l-3.4,12.9l-3.3,12.9l-3.3,12.9l-3.3,12.9l-3.3,12.9l-3.3,12.9l-3.2,12.9
	l-3.2,12.9l-3.2,12.9l-3.2,12.9l-3.2,12.8l-3.1,12.9l-3.1,12.8l-3.1,12.8l-3.1,12.8l-3.1,12.8l-3.1,12.8l-3,12.8l-3,12.8l-3,12.8
	l-3,12.8l-3,12.8l-3,12.8l-3,12.8l-2.9,12.8l-2.9,12.8l-2.9,12.8l-2.9,12.8l-2.9,12.8l-2.8,12.8l-2.8,12.8l-2.8,12.8l-2.8,12.8
	l-2.8,12.8l-2.8,12.8l-2.8,12.8l-2.7,12.8l-2.7,12.8l-2.7,12.8l-2.7,12.8l-2.7,12.8l-2.7,12.8l-2.6,12.8l-2.6,12.8l-2.6,12.8
	l-2.6,12.7l-2.6,12.8l-2.6,12.8l-2.6,12.8l-2.5,12.7l-2.5,12.8l-0.4,1.9l-2.2,10.9l-2.5,12.7l-2.5,12.8l-2.5,12.7l-2,10.4l-0.4,2.3
	l-2.4,12.7l-2.4,12.7l-2.4,12.7l-2.4,12.7l-2.3,12.7l-2.3,12.7l-2.3,12.7l-2.3,12.7l-2.1,12c0,0-2.3,0.6-6.4,1.7
	c-9.9,2.8-30.2,9.4-54.3,21.3c-9.9,4.9-20.5,10.7-31.2,17.5c-7.6,4.9-15.4,10.2-23,16.1c-6.1,4.7-12.1,9.8-18,15.3
	c-5,4.6-9.9,9.6-14.6,14.7c-4.1,4.5-8.1,9.3-11.9,14.3c-3.4,4.5-6.7,9.1-9.8,13.9c-2.8,4.4-5.6,8.9-8.1,13.7
	c-2.3,4.3-4.6,8.8-6.6,13.4c-1.9,4.3-3.7,8.7-5.4,13.2c-1.5,4.2-2.9,8.6-4.2,13c-1.2,4.2-2.3,8.5-3.3,12.9
	c-0.9,4.1-1.7,8.4-2.4,12.7c-0.6,4.1-1.2,8.3-1.6,12.6c-0.4,4.1-0.7,8.2-0.9,12.5c-0.2,4.1-0.3,8.2-0.3,12.4c0,4,0.2,8.1,0.4,12.3
	c0.2,4,0.6,8.1,1,12.2c0.4,4,0.9,8,1.5,12.1c0.6,4,1.2,8,2,12l0.2,1.4v0c0,0,16.4-2.3,44.4-2.2c9,0,19.2,0.2,30.4,0.8
	c14.3,0.8,30.2,2.2,47.5,4.5c11.8,1.6,24.3,3.6,37.2,6.2c10.2,2,20.8,4.4,31.7,7.1c9.1,2.3,18.4,4.9,27.8,7.7
	c8.2,2.5,16.6,5.2,25,8.2c7.5,2.7,15.2,5.5,22.8,8.6c7,2.8,14,5.8,21.1,8.9c6.5,2.9,13,5.9,19.6,9.1c6.1,3,12.2,6.1,18.3,9.3
	c5.7,3,11.4,6.2,17.1,9.5c5.4,3.1,10.8,6.3,16.2,9.7c5.1,3.2,10.2,6.4,15.3,9.8c4.8,3.2,9.7,6.5,14.5,9.9c4.6,3.3,9.2,6.6,13.8,10.1
	c4.4,3.3,8.8,6.7,13.2,10.2c4.2,3.3,8.4,6.8,12.5,10.3c4,3.4,8,6.8,12,10.3c3.9,3.4,7.7,6.9,11.5,10.5c3.7,3.4,7.4,6.9,11,10.5
	c3.5,3.5,7.1,7,10.6,10.6c3.4,3.5,6.8,7,10.2,10.7c3.3,3.5,6.5,7.1,9.8,10.7c3.2,3.5,6.3,7.1,9.4,10.8c3,3.6,6.1,7.1,9,10.8
	c2.9,3.6,5.8,7.2,8.7,10.9c2.8,3.6,5.6,7.3,8.4,11l8.1,11l7.8,11l7.5,11.1l7.3,11.1l7.1,11.2l6.8,11.2l6.6,11.2l6.3,11.3l6.2,11.3
	l5.9,11.3l5.7,11.4l3.4,6.8v0l9-8.8c4.9-4.8,9.8-9.7,14.7-14.7c4.7-4.8,9.4-9.6,14.1-14.6c4.5-4.8,9-9.6,13.5-14.6
	c4.3-4.8,8.6-9.6,13-14.5c4.1-4.7,8.3-9.5,12.5-14.4c4-4.7,8-9.4,12-14.3c3.8-4.7,7.7-9.4,11.6-14.2c3.7-4.7,7.4-9.4,11.1-14.2
	l10.7-14.1l10.3-14c3.3-4.6,6.6-9.3,10-14l9.7-13.9l9.3-13.9l9-13.8c2.9-4.5,5.8-9.1,8.7-13.8l8.4-13.7l8.1-13.7l7.8-13.6l7.6-13.6
	l7.3-13.6l7.1-13.5c2.3-4.4,4.6-8.9,6.8-13.5l6.6-13.4l6.4-13.4l6.2-13.4l6-13.3l5.8-13.3l5.6-13.2l5.4-13.2l5.2-13.2l5-13.2
	l4.9-13.1l4.7-13.1l4.5-13.1l4.4-13.1l4.2-13l4-13l1.4-4.7l2.4-8.3l3.8-13l3.6-12.9l3.6-12.9l3.4-12.9l3.3-12.9l3.2-12.9l3.1-12.8
	l3-12.8l2.9-12.8l2.8-12.8l2.7-12.8l2.6-12.8l2.5-12.7l2.5-12.7l2.3-12.7l2.3-12.7l2.2-12.7l2.1-12.7l2-12.7l1.9-12.7l1.8-12.6
	l1.7-12.6l1.7-12.6l1.6-12.6l1.5-12.6l1.4-12.6l1.4-12.6l1.3-12.6l1.2-12.5l1.2-12.5l1.1-12.5l1.1-12.5l0.9-12.5l0.9-12.5l0.8-12.5
	l0.8-12.4l0.7-12.5l0.6-12.4l0.6-12.4l0.5-12.4l0.5-12.4l0.4-12.4l0.3-12.4l0.3-12.4l0.2-12.4l0.2-12.4l0.1-12.4l0.1-12.3l0-12.3
	l-0.1-12.3l-0.1-12.3l-0.2-12.3l-0.2-12.3l-0.3-12.3l-0.3-12.3l-0.4-12.3l-0.4-12.3l-0.5-12.3l-0.5-12.3l-0.6-12.2l-0.6-12.2
	l-0.7-12.2l-0.7-12.2l-0.8-12.2l-0.9-12.2l-0.9-12.2l-0.9-12.2l-1-12.2l-1.1-12.2l-1.1-12.1l-1.2-12.1l-1.2-12.1l-1.3-12.1
	l-1.3-12.1l-1.4-12.1l-1.4-12.1l-1.5-12.1l-1.5-12.1l-1.6-12.1l-1.7-12.1l-1.7-12l-1.8-12l-1.9-12l-2-12l-2.1-12l-0.4-2.1l0.5,2.1
	l3.1,11.8l3.1,11.8l3,11.8l3,11.8l3,11.9l2.9,11.8l2.9,11.8l2.9,11.9l2.9,11.9l2.8,11.9l2.8,11.9l2.8,11.9l2.7,11.9l2.7,11.9
	l2.7,11.9l2.7,11.9l2.6,11.9l2.6,11.9l2.6,11.9l2.6,11.9l2.5,11.9l2.5,11.9l2.5,11.9l2.5,12l2.4,11.9l2.4,11.9l2.4,11.9l2.4,11.9
	l2.4,11.9l2.3,11.9l2.3,12l2.3,12l2.3,12l2.3,12l2.2,12l2.2,12l2.2,12l2.2,12l2.2,12l2.2,12l2.1,12l2.1,12l2.1,12l2.1,12l2.1,12
	l2,12l2.1,12l2,12l2,12l2,12l2,12l1.9,12l1.9,12l1.9,12l1.9,12l1.9,12l1.9,12l1.9,12l1.8,12l1.8,12l1.8,12l1.8,12l1.8,12l1.8,12
	l1.8,12l1.8,12l1.7,12l1.7,12l1.7,12l1.7,12.1l1.7,12l1.7,12l1.7,12l1.7,12.1l1.6,12l1.6,12.1l1.6,12.1l1.6,12.1l1.6,12.1l1.6,12.1
	l1.6,12.1l1.5,12.1l1.5,12.1l1.5,12.1l1.5,12.1l1.5,12.1l1.5,12.1l1.5,12.1l1.4,12.1l1.4,12.1l1.4,12.1l1.4,12.1l1.4,12.1l1.4,12.1
	l1.4,12.1l1.4,12.1l1.3,12.1l1.4,12.1l1.3,12.1l1.3,12.1l1.3,12.1l1.3,12.1l1.3,12.1l0.7,7v0l1.2-7.3c0.7-4.1,1.3-8.1,1.6-12.4
	l0.8,12l0.8,12.2l0.8,12.2l0.7,12.2l0.7,12.2l0.7,12.2l0.7,12.2l0.7,12.2l0.6,12.2l0.6,12.3l0.6,12.2l0.6,12.2l0.6,12.2l0.6,12.3
	l0.5,12.2l0.5,12.2l0.5,12.2l0.5,12.3l0.5,12.3l0.4,12.2l0.5,12.3l0.4,12.3l0.4,12.3l0.4,12.3l0.4,12.3l0.4,12.3l0.3,12.3l0.4,12.3
	l0.3,12.3l0.3,12.3l0.3,12.3l0.3,12.3l0.3,12.3l0.2,12.3l0.2,12.3l0.2,12.3l0.2,12.3l0.2,12.3l0.1,12.3l0.1,12.3l0.1,12.3l0.1,12.3
	l0.1,12.3l0,12.3l0,12.3l0,12.3l0,12.3l0,12.3l0,12.4l-0.1,12.3l-0.1,12.4l-0.1,12.4l-0.1,5.5l-0.1,6.9l-0.2,12.4l-0.2,12.4
	l-0.2,12.4l-0.2,12.4l-0.3,12.4l-0.3,12.4l-0.3,12.4l-0.4,12.4l-0.4,12.4l-0.3,9.7l-0.1,2.7l-0.4,12.4l-0.5,12.4l-0.5,12.4
	l-0.5,12.4l-0.6,12.4l-0.6,12.4l-0.6,12.4l-0.7,12.4l-0.7,12.5l-0.8,12.5l-0.8,12.5l-0.8,12.5l-0.9,12.5l-0.9,12.5l-1,12.5l-1,12.5
	l-1.1,12.5l-1.2,12.5l-1.2,12.5l-1.3,12.5l-1.3,12.6l-1.4,12.6l-1.5,12.6l-1.5,12.6l-1.6,12.6l-1.7,12.6l-1.8,12.6l-1.9,12.7
	l-2,12.7l-2.1,12.7l-2.2,12.7c-5,27.9-10.5,54.1-16.7,78.4v0c16-29.8,33.7-57.8,52.8-84.3c3.4-4.7,6.7-9.4,10.2-14
	c3.6-4.8,7.4-9.5,11.1-14.2c3.8-4.8,7.7-9.5,11.6-14.2c4-4.8,8-9.6,12.2-14.3c4.3-4.9,8.8-9.7,13.2-14.5c4.6-4.9,9.2-9.8,13.8-14.6
	c4.8-5,9.6-9.9,14.6-14.7c5.2-5,10.4-10,15.7-14.9c5.5-5.1,11.1-10.1,16.8-15.1c5.9-5.2,11.8-10.2,17.8-15.3
	c6.3-5.2,12.6-10.4,19.1-15.5c6.7-5.3,13.5-10.6,20.4-15.7c7.2-5.4,14.6-10.7,22-16c7.8-5.5,15.7-10.9,23.7-16.2
	c8.5-5.6,17-11.1,25.7-16.6c9.2-5.7,18.6-11.4,28-17c10-5.9,20.2-11.7,30.5-17.3c11-6,22.1-12,33.3-17.8c12.2-6.3,24.6-12.4,37-18.4
	c13.5-6.5,27.1-12.9,40.9-19.1c15.1-6.8,30.4-13.4,45.9-19.9c17-7.1,34.1-14.1,51.4-20.8c19.3-7.5,38.7-14.8,58.4-21.9
	c21.9-8,44-15.7,66.3-23.2c24.8-8.4,49.8-16.6,74.9-24.7c27.7-8.9,55.7-17.5,83.7-26.1c29.8-9.1,59.8-18.1,89.8-27.1
	c30.4-9.1,60.9-18.2,91.4-27.4c29.3-8.8,58.5-17.7,87.6-26.7c26.9-8.4,53.8-16.9,80.5-25.6c24.1-7.9,48-15.9,71.8-24.2
	c21.3-7.4,42.5-15,63.6-22.8c18.9-7,37.7-14.2,56.3-21.6c16.9-6.7,33.7-13.5,50.3-20.6c15.1-6.4,30-13,44.8-19.7
	c13.7-6.2,27.2-12.5,40.6-19c12.3-6,24.5-12.1,36.6-18.3c11.3-5.8,22.5-11.8,33.6-17.9c10.4-5.7,20.7-11.5,30.9-17.4
	c9.6-5.6,19.1-11.2,28.5-17c8.9-5.5,17.6-11,26.3-16.7c8.2-5.4,16.4-10.8,24.5-16.4l0.5-0.3c7.3-5,14.4-10.3,21.5-15.6
	c6.6-5.1,13.2-10.3,19.7-15.6c6.1-5,12.1-10.1,18-15.3c5.6-5,11.3-9.9,16.8-15.1c5.1-4.8,10.1-9.8,15-14.8
	c4.8-4.8,9.5-9.7,14.2-14.7c4.5-4.8,9.1-9.6,13.5-14.6c4.2-4.7,8.3-9.5,12.4-14.4c4.1-4.7,8.1-9.5,12.1-14.3
	c3.8-4.6,7.4-9.4,11.1-14.2c3.6-4.7,7.3-9.3,10.9-14.1c3.4-4.6,6.8-9.3,10.2-14c3.3-4.6,6.7-9.3,9.9-14c3.2-4.6,6.2-9.2,9.3-13.9
	c3.1-4.6,6.1-9.2,9.1-13.9c2.9-4.5,5.7-9.1,8.6-13.7c2.8-4.6,5.7-9.1,8.5-13.7c2.7-4.5,5.3-9.1,7.9-13.6c2.6-4.5,5.3-9,7.9-13.6
	c2.5-4.5,4.9-9,7.4-13.5l7.3-13.5l7-13.5l6.8-13.5c2.2-4.5,4.5-8.9,6.7-13.4c2.1-4.4,4.2-8.9,6.3-13.4c2.1-4.4,4.2-8.9,6.3-13.4
	l6-13.3l5.8-13.3l5.8-13.3l5.5-13.2l5.5-13.2l5.2-13.2l5.1-13.2c1.7-4.4,3.4-8.7,5.1-13.2l4.7-13.1l4.7-13.1l4.6-13.1l4.4-13.1
	l4.4-13.1l4.3-13l4.1-13l4.1-13l3.9-13l3.9-13l3.9-13l3.6-12.9l3.6-12.9l3.6-12.9l3.4-12.9l3.4-12.9l3.3-12.9l3.2-12.8l3.2-12.8
	l3.1-12.9l3-12.8l3-12.8l2.9-12.8l2.8-12.8l2.8-12.8l2.7-12.8l2.6-12.8l2.6-12.8l2.5-12.7l2.4-12.7l2.4-12.7l2.3-12.7l2.3-12.7
	l2.2-12.7l2.2-12.7l2.1-12.7l2.1-12.7l2-12.7l1.9-12.7l2-12.7l1.8-12.6l1.8-12.6l1.8-12.6l1.7-12.6l1.7-12.6l1.7-12.6l1.6-12.6
	l1.6-12.6l1.6-12.6l1.4-12.6l1.4-12.6l1.4-12.6l1.3-12.6l1.3-12.6l1.3-12.5l1.2-12.5l1.2-12.5l1.2-12.5l1.1-12.5l1.1-12.5l1-12.5
	l1-12.5l1-12.5l0.9-12.5l0.9-12.5l0.9-12.5l0.8-12.5l0.8-12.5l0.7-12.4l0.7-12.5l0.7-12.5l0.7-12.5l0.7-12.4l0.6-12.4l0.6-12.4
	l0.5-12.4l0.5-12.4l0.5-12.4l0.4-12.4l0.4-12.4l0.4-12.4l0.4-12.4l0.3-12.4l0.3-12.4l0.3-12.4l0.2-12.4l0.2-12.4l0.2-12.4l0.1-12.4
	l0.1-12.3l0-12.3l0-12.3l0-12.3l0-12.3l-0.1-12.3l-0.1-12.3l-0.1-12.3l-0.2-12.3l-0.2-12.3l-0.3-12.3l-0.4-12.3l-0.4-12.3l-0.2-5
	l2,4.7l4.8,11.5l4.8,11.5l4.8,11.6l4.7,11.6l4.6,11.6l4.6,11.6l4.6,11.6l4.4,11.6l4.4,11.6l4.4,11.6l4.3,11.6l4.2,11.6l4.2,11.6
	l4.2,11.6l4.1,11.7l4,11.7l4,11.7l4,11.7l3.9,11.7l3.9,11.7l3.9,11.7l3.8,11.7l3.7,11.7l3.7,11.7l3.7,11.7l3.6,11.7l3.5,11.8
	l3.5,11.7l3.5,11.7l3.4,11.8l3.4,11.8l3.4,11.8l3.3,11.8l3.2,11.8l3.2,11.8l3.2,11.8l3.1,11.8l3.1,11.8l3.1,11.8l3,11.8l2.9,11.9
	l2.9,11.9l2.9,11.8l2.9,11.9l2.8,11.9l2.8,11.9l2.8,11.9l2.7,11.9l2.6,11.9l2.6,11.9l2.6,11.9l2.5,11.9l2.5,11.9l2.5,11.9l2.4,11.9
	l2.4,12l2.4,11.9l2.3,11.9l2.2,12l2.2,12l2.3,12l2.2,12l2.1,12l2.1,12l2.1,12l2,12l2,12l2,12l1.9,12l1.8,12l1.9,12l1.9,12l1.8,12.1
	l1.8,12l1.8,12.1l1.7,12.1l1.6,12.1l1.6,12l1.6,12.1l1.5,12.1l1.5,12.1l1.5,12.1l1.4,12.1l1.4,12.1l1.4,12.1l1.3,12.1l1.3,12.1
	l1.3,12.1l1.3,12.1l1.2,12.1l1.2,12.1l1.2,12.1l1.1,12.1l1.1,12.1l1.1,12.2l1,12.2l1,12.2l1,12.2l0.9,12.2l0.9,12.2l0.9,12.2
	l0.8,12.2l0.8,12.2l0.8,12.2l0.7,12.2l0.7,12.2l0.7,12.2l0.7,12.2l0.6,12.2l0.6,12.2l0.6,12.2l0.6,12.2l0.5,12.2l0.5,12.3l0.5,12.3
	l0.4,12.3l0.4,12.3l0.4,12.3l0.3,12.3l0.3,12.3l0.3,12.3l0.2,12.3l0.2,12.3l0.2,12.3l0.2,12.3l0.1,12.3l0.1,12.3l0.1,12.3l0,12.3
	l0,12.3l0,12.3l-0.1,12.3l-0.1,12.4l-0.1,12.4l-0.1,12.3l-0.2,12.4l-0.2,12.4l-0.3,12.4l-0.3,12.4l-0.3,12.4l-0.4,12.4l-0.4,12.4
	l-0.4,12.4l-0.5,12.4l-0.5,12.4l-0.5,12.4l-0.6,12.4l-0.6,12.5l-0.6,12.4l-0.7,12.4l-0.7,12.5l-0.8,12.4l-0.8,12.5l-0.8,12.5
	l-0.9,12.5l-0.9,12.5l-1,12.5l-1.1,12.5l-1.1,12.5l-1.2,12.5l0,0.4l-1.3-1.3l0,0l0,0l0,0l-7,13.4l-7.2,13.8l-7.2,13.8l-7.2,13.8
	l-7.2,13.8l-7.2,13.8l-7.2,13.8l-7.2,13.8l-7.2,13.8l-7.2,13.8l-7.2,13.8l-7.2,13.8l-7.2,13.8l-7.2,13.8l-7.2,13.8l-7.2,13.8
	l-7.2,13.8l-257.2,494.7h1088.9l-32.7-33.5l-498.6-511.5l-10.5-10.8l-10.5-10.8l-10.5-10.8l-10.5-10.8l-10.5-10.8l-10.5-10.8
	l-10.5-10.8l-10.5-10.8l-10.5-10.8l-10.5-10.8l-10.5-10.8l-10.2-10.4l-0.3-0.4l-10.5-10.8l-10.5-10.8l-10.5-10.8l-9.7-9.9
	c6.2-1.3,14.8-3.1,25.6-5.3c57.2-11.6,175.5-33.9,315.3-50.5c54.4-6.5,112.1-12,170.7-15.8c33.9-2.2,68-3.7,102-4.4
	c15-0.3,30-0.5,45-0.5c10.5,0,21,0.1,31.4,0.3c20.8,0.4,41.3,1.1,61.6,2.2c17.5,1,34.7,2.2,51.7,3.8c15,1.4,29.8,3.1,44.3,5
	c13.1,1.8,26,3.8,38.7,6c11.6,2,22.9,4.3,34,6.7c10.3,2.3,20.3,4.7,30.1,7.4c9.2,2.5,18.2,5.1,26.9,7.9c8.2,2.6,16.3,5.4,24.1,8.4
	c7.4,2.8,14.6,5.7,21.6,8.8c6.6,2.9,13.1,5.9,19.4,9.1c6,3,11.8,6.2,17.4,9.5c5.4,3.1,10.6,6.4,15.7,9.8c4.8,3.2,9.5,6.6,14,10
	c4.3,3.3,8.6,6.7,12.6,10.3c19.4,16.9,35.2,36.2,46.7,58.3c0,0,14.3-27.3,26.5-70.3c1.2-4.2,2.3-8.5,3.5-12.9
	c1.1-4.2,2.1-8.4,3-12.8c0.9-4.2,1.8-8.4,2.7-12.8c0.8-4.1,1.5-8.4,2.3-12.7c0.7-4.1,1.3-8.3,1.9-12.6c0.6-4.1,1.1-8.3,1.5-12.6
	c0.4-4.1,0.8-8.3,1.1-12.5c0.3-4.1,0.5-8.3,0.7-12.5c0.2-4.1,0.3-8.2,0.3-12.4C10522.7,7537.1,10522.6,7533,10522.6,7528.9z"/>
<linearGradient id="SVGID_2_" gradientUnits="userSpaceOnUse" x1="8047.8579" y1="8431.4521" x2="8250.6875" y2="5639.5596">
	<stop  offset="0" style="stop-color:#F57839"/>
	<stop  offset="0.9854" style="stop-color:#F58A43"/>
</linearGradient>
<path class="st9" d="M9336.8,7243.1l0-12.3l-0.1-12.3l-0.1-12.3l-0.1-12.3l-0.2-12.3l-0.2-12.3l-0.2-12.3l-0.2-12.3l-0.3-12.3
	l-0.3-12.3l-0.3-12.3l-0.4-12.3l-0.4-12.3l-0.4-12.3l-0.5-12.2l-0.5-12.3l-0.5-12.3l-0.6-12.2l-0.6-12.2l-0.6-12.2l-0.6-12.2
	l-0.7-12.2l-0.7-12.2l-0.7-12.2l-0.7-12.2l-0.8-12.2l-0.8-12.2l-0.8-12.2l-0.9-12.2l-0.9-12.2l-0.9-12.2l-1-12.2l-1-12.2l-1-12.2
	l-1.1-12.1l-1.1-12.1l-1.1-12.2l-1.2-12.1l-1.2-12.1l-1.2-12.1l-1.3-12.1l-1.3-12.1l-1.3-12.1l-1.3-12.1l-1.4-12.1l-1.4-12.1
	l-1.4-12.1l-1.5-12.1l-1.5-12.1l-1.5-12.1l-1.6-12.1l-1.6-12.1l-1.6-12.1l-1.7-12l-1.8-12l-1.8-12.1l-1.8-12l-1.9-12l-1.9-12
	l-1.8-12l-1.9-12l-2-12l-2-12l-2-12l-2.1-12l-2.1-12l-2.1-12l-2.2-12l-2.2-12l-2.2-12l-2.2-12l-2.4-11.9l-2.4-11.9l-2.4-12
	l-2.4-11.9l-2.5-11.9l-2.5-11.9l-2.5-11.9l-2.6-11.9l-2.6-11.9l-2.6-11.9l-2.7-11.9l-2.8-11.9l-2.8-11.9l-2.8-11.9l-2.9-11.9
	l-2.9-11.9l-2.9-11.8l-2.9-11.8l-3-11.8l-3.1-11.8l-3.1-11.8l-3.1-11.8l-3.2-11.8l-3.2-11.8l-3.2-11.8l-3.3-11.8l-3.4-11.8
	l-3.4-11.8l-3.4-11.8l-3.5-11.7l-3.5-11.8l-3.5-11.7l-3.6-11.7l-3.7-11.7l-3.7-11.7l-3.7-11.7l-3.8-11.7l-3.9-11.7l-3.9-11.7
	l-3.9-11.7l-4-11.7l-4-11.7l-4-11.7l-4.1-11.7l-4.2-11.6l-4.2-11.7l-4.2-11.6l-4.3-11.6l-4.4-11.6l-4.4-11.6l-4.4-11.6l-4.6-11.6
	l-4.6-11.6l-4.6-11.6l-4.7-11.6l-4.8-11.5l-4.8-11.5l-4.8-11.5l-2-4.7l0.2,5l0.4,12.3l0.4,12.3l0.3,12.3l0.2,12.3l0.2,12.3l0.1,12.3
	l0.1,12.3l0.1,12.3l0,12.3l0,12.3l0,12.3l0,12.3l-0.1,12.3l-0.1,12.4l-0.2,12.4l-0.2,12.4l-0.2,12.3l-0.3,12.4l-0.3,12.4l-0.3,12.4
	l-0.4,12.4l-0.4,12.4l-0.4,12.4l-0.4,12.4l-0.5,12.4l-0.5,12.4l-0.6,12.4l-0.6,12.4l-0.6,12.4l-0.7,12.4l-0.7,12.4l-0.7,12.5
	l-0.8,12.5l-0.7,12.4l-0.8,12.5l-0.8,12.5l-0.9,12.5l-0.9,12.5l-0.9,12.5l-1,12.5l-1,12.5l-1,12.5l-1.1,12.5l-1.1,12.5l-1.2,12.5
	l-1.2,12.5l-1.2,12.6l-1.3,12.5l-1.3,12.5l-1.3,12.5l-1.4,12.6l-1.4,12.6l-1.4,12.6l-1.6,12.6l-1.6,12.6l-1.6,12.6l-1.7,12.6
	l-1.7,12.6l-1.7,12.6l-1.8,12.6l-1.8,12.6l-1.8,12.6l-2,12.7l-1.9,12.7l-2,12.7l-2.1,12.7l-2.1,12.7l-2.2,12.7l-2.2,12.7l-2.3,12.7
	l-2.3,12.7l-2.4,12.7l-2.4,12.7l-2.5,12.7l-2.6,12.8l-2.6,12.8l-2.7,12.8l-2.8,12.8l-2.8,12.8l-2.9,12.8l-3,12.8l-3,12.8l-3.1,12.8
	l-3.2,12.8l-3.2,12.8l-3.3,12.9l-3.4,12.9l-3.4,12.9l-3.6,12.9l-3.6,12.9l-3.6,12.9l-3.9,13l-3.9,13l-3.9,13l-4.1,13l-4.1,13
	l-4.3,13l-4.4,13.1l-4.4,13.1l-4.6,13.1l-4.8,13.1l-4.7,13.1l-5.1,13.2l-5.1,13.2l-5.2,13.2l-5.5,13.2c-1.8,4.4-3.6,8.9-5.4,13.2
	l-5.8,13.3l-5.9,13.3l-6,13.3c-2.1,4.5-4.2,8.9-6.3,13.4c-2.1,4.4-4.2,9-6.3,13.4c-2.2,4.5-4.5,9-6.7,13.4l-6.8,13.5l-7,13.5
	c-2.4,4.6-4.9,9.1-7.3,13.5c-2.5,4.5-4.9,9.1-7.4,13.6c-2.6,4.6-5.3,9.1-7.9,13.6c-2.6,4.5-5.2,9.1-7.9,13.6
	c-2.8,4.7-5.7,9.1-8.5,13.7c-2.9,4.6-5.7,9.2-8.6,13.8c-3,4.7-6.1,9.2-9.2,13.8c-3.1,4.6-6.1,9.3-9.3,13.9c-3.3,4.7-6.6,9.3-9.9,14
	c-3.4,4.7-6.7,9.4-10.2,14c-3.6,4.8-7.3,9.4-10.9,14.1c-3.7,4.7-7.3,9.5-11.1,14.1c-4,4.9-8.1,9.6-12.1,14.3
	c-4.1,4.8-8.2,9.7-12.4,14.4c-4.4,5-9,9.7-13.5,14.6c-4.7,5-9.5,9.8-14.3,14.7c-5,5-9.9,10-15,14.8c-5.5,5.2-11.1,10.1-16.8,15.1
	c-5.9,5.2-12,10.3-18,15.3c-6.5,5.3-13.1,10.5-19.7,15.6c-7.1,5.3-14.2,10.6-21.5,15.6l-0.5,0.3c-8.1,5.5-16.2,11-24.5,16.4
	c-8.7,5.7-17.5,11.2-26.3,16.7c-9.4,5.8-19,11.4-28.5,17c-10.2,5.9-20.5,11.7-30.9,17.4c-11.1,6.1-22.3,12-33.6,17.9
	c-12.1,6.2-24.3,12.4-36.7,18.4c-13.4,6.5-27,12.8-40.7,19c-14.8,6.7-29.7,13.3-44.8,19.7c-16.6,7.1-33.4,13.9-50.3,20.6
	c-18.6,7.4-37.4,14.6-56.3,21.6c-21.1,7.8-42.3,15.4-63.7,22.8c-23.7,8.2-47.7,16.3-71.7,24.1c-26.7,8.7-53.5,17.2-80.5,25.6
	c-29.2,9.1-58.4,17.9-87.7,26.8l-91.4,27.4c-30,9-60,18-89.8,27.1c-28.1,8.6-56,17.2-83.7,26.1c-25.1,8-50.1,16.3-74.8,24.6
	c-22.3,7.6-44.5,15.3-66.4,23.3c-19.6,7.1-39.1,14.4-58.3,21.9c-17.3,6.8-34.5,13.7-51.5,20.8c-15.4,6.5-30.7,13.1-45.9,19.9
	c-13.8,6.2-27.5,12.6-41,19.1c-12.5,6-24.8,12.1-37,18.4c-11.2,5.8-22.3,11.8-33.3,17.8c-10.3,5.7-20.5,11.5-30.5,17.4
	c-9.4,5.5-18.8,11.2-28,16.9c-8.7,5.4-17.3,10.9-25.7,16.6c-8,5.3-15.9,10.7-23.7,16.2c-7.4,5.2-14.7,10.6-22,16
	c-6.9,5.1-13.7,10.4-20.4,15.7c-6.4,5.1-12.8,10.2-19,15.5c-6,5-12,10.1-17.8,15.3c-5.7,5-11.3,10-16.8,15.1
	c-5.3,4.9-10.5,9.9-15.7,14.9c-4.9,4.8-9.8,9.8-14.6,14.7c-4.7,4.8-9.3,9.7-13.8,14.6c-4.4,4.8-8.9,9.6-13.2,14.5
	c-4.1,4.7-8.1,9.5-12.1,14.3c-3.9,4.7-7.8,9.5-11.6,14.2c-3.7,4.7-7.5,9.4-11.1,14.2c-3.5,4.6-6.8,9.3-10.2,14
	c-19.1,26.5-36.9,54.5-52.8,84.3c-2,7.6-3.9,14.9-6,22.1h230.6h58.2h1051.5h59.4h702.8l257.2-485.3l7.2-13.5l7.2-13.5l7.2-13.5
	l7.2-13.5l7.2-13.5l7.2-13.5l7.2-13.5l7.2-13.5l7.2-13.5l7.2-13.5l7.2-13.5l7.2-13.5l7.2-13.5l7.2-13.5l7.2-13.5l7.2-13.5l7-13.2v0
	l0-0.3l1.3-12.5l1.2-12.5l1.1-12.5l1.1-12.5l1-12.5l0.9-12.5l0.9-12.5l0.8-12.5l0.8-12.5l0.8-12.4l0.7-12.5l0.7-12.4l0.6-12.4
	l0.6-12.4l0.6-12.4l0.5-12.4l0.5-12.4l0.5-12.4l0.4-12.4l0.4-12.4l0.4-12.4l0.3-12.4l0.3-12.4l0.3-12.4l0.2-12.4l0.2-12.4l0.1-12.4
	l0.1-12.4l0.1-12.3l0.1-12.4l0-12.3L9336.8,7243.1z"/>
<g>
	<linearGradient id="SVGID_3_" gradientUnits="userSpaceOnUse" x1="6416.4341" y1="7858.519" x2="6416.4521" y2="7858.519">
		<stop  offset="0" style="stop-color:#F57839"/>
		<stop  offset="0.9854" style="stop-color:#F58A43"/>
	</linearGradient>
	<polygon class="st10" points="6416.5,7858.5 6416.5,7858.5 6416.4,7858.5 	"/>
	<linearGradient id="SVGID_4_" gradientUnits="userSpaceOnUse" x1="6307.9307" y1="6863.0527" x2="6878.0605" y2="6863.0527">
		<stop  offset="0" style="stop-color:#F57839"/>
		<stop  offset="0.9854" style="stop-color:#F58A43"/>
	</linearGradient>
	<path class="st11" d="M6877.3,7105.4l-1.3-12.1l-1.3-12.1l-1.3-12.1l-1.3-12.1l-1.3-12.1l-1.3-12.1l-1.4-12.1l-1.4-12.1l-1.4-12.1
		l-1.4-12.1l-1.4-12.1l-1.4-12.1l-1.4-12.1l-1.5-12.1l-1.5-12.1l-1.5-12.1l-1.5-12.1l-1.5-12.1l-1.5-12.1l-1.5-12.1l-1.5-12.1
		l-1.5-12.1l-1.6-12.1l-1.6-12.1l-1.6-12.1l-1.6-12.1l-1.6-12.1l-1.6-12.1l-1.6-12l-1.6-12.1l-1.7-12l-1.7-12l-1.7-12l-1.7-12.1
		l-1.7-12l-1.7-12.1l-1.7-12l-1.8-12.1l-1.8-12l-1.8-12l-1.8-12l-1.8-12l-1.8-12l-1.8-12l-1.8-12l-1.9-12l-1.9-12l-1.9-12l-1.9-12
		l-1.9-12l-1.9-12l-2-12l-2-12l-2-12l-2-12l-2-12l-2.1-12l-2-12l-2.1-12l-2.1-12l-2.1-12l-2.1-12l-2.2-12l-2.2-12l-2.2-12l-2.2-12
		l-2.2-12l-2.2-12l-2.2-12l-2.3-12l-2.3-12l-2.3-12l-2.3-12l-2.3-11.9l-2.4-11.9l-2.4-12l-2.4-11.9l-2.4-11.9l-2.4-11.9l-2.5-11.9
		l-2.5-11.9l-2.5-11.9l-2.5-11.9l-2.6-11.9l-2.6-11.9l-2.6-11.9l-2.6-11.9l-2.7-11.9l-2.7-11.9l-2.7-11.9l-2.7-11.9l-2.8-11.9
		l-2.8-11.9l-2.8-11.9l-2.9-11.9l-2.9-11.9l-2.9-11.9l-2.9-11.8l-3-11.8l-3-11.8l-3-11.8l-3.1-11.8l-3.1-11.8l-0.5-2.1l0.4,2.1
		l2.1,12l2,12l1.9,12l1.8,12l1.7,12l1.7,12l1.6,12.1l1.5,12.1l1.5,12.1l1.4,12.1l1.4,12.1l1.3,12.1l1.3,12.1l1.2,12.1l1.2,12.1
		l1.1,12.1l1,12.2l1,12.2l0.9,12.2l0.9,12.2l0.9,12.2l0.8,12.2l0.7,12.2l0.7,12.2l0.6,12.2l0.6,12.2l0.5,12.2l0.5,12.3l0.4,12.3
		l0.4,12.3l0.3,12.3l0.3,12.3l0.2,12.3l0.2,12.3l0.1,12.3l0.1,12.3l0,12.3l-0.1,12.3l-0.1,12.4l-0.2,12.4l-0.2,12.4l-0.3,12.4
		l-0.3,12.4l-0.4,12.4l-0.5,12.4l-0.5,12.4l-0.6,12.4l-0.6,12.4l-0.7,12.5l-0.8,12.5l-0.8,12.5l-0.9,12.5l-0.9,12.5l-1.1,12.5
		l-1.1,12.5l-1.2,12.5l-1.2,12.5l-1.3,12.5l-1.4,12.6l-1.4,12.6l-1.5,12.6l-1.6,12.6l-1.7,12.6l-1.7,12.6l-1.8,12.6l-1.9,12.7
		l-2,12.7l-2.1,12.7l-2.2,12.7l-2.3,12.7l-2.3,12.7l-2.5,12.7l-2.5,12.7l-2.6,12.8l-2.7,12.8l-2.8,12.8l-2.9,12.8l-3,12.8l-3.1,12.8
		l-3.2,12.9l-3.3,12.9l-3.4,12.9l-3.6,12.9l-3.6,12.9l-3.8,13l-2.4,8.3l-1.4,4.7l-4,13l-4.2,13l-4.4,13.1l-4.5,13.1l-4.7,13.1
		l-4.9,13.1l-5,13.2l-5.2,13.2l-5.4,13.2l-5.6,13.2l-5.8,13.3l-6,13.3l-6.2,13.4l-6.4,13.4l-6.6,13.4l-6.9,13.5l-7.1,13.5
		c-2.4,4.5-4.8,9.1-7.3,13.5l-7.6,13.6l-7.8,13.6l-8.1,13.7l-8.4,13.7l-8.7,13.8l-9,13.8l-9.3,13.9l-9.6,13.9
		c-3.3,4.7-6.6,9.4-10,14c-3.4,4.7-6.9,9.4-10.4,14l-10.7,14.1c-3.7,4.8-7.4,9.5-11.1,14.2c-3.8,4.8-7.7,9.6-11.5,14.2
		c-4,4.8-8,9.6-12,14.3c-4.1,4.9-8.3,9.7-12.4,14.4c-4.3,4.9-8.6,9.7-13,14.5c-4.5,4.9-9,9.8-13.5,14.6c-4.7,5-9.4,9.9-14.1,14.6
		c-4.9,5-9.8,9.9-14.7,14.7l-9,8.8l2.2,4.6l5.4,11.5l5.2,11.5l5,11.5l4.8,11.5l4.7,11.6l4.5,11.6l4.4,11.6l4.2,11.6l4.1,11.7
		l3.9,11.7l3.8,11.7l3.7,11.7l3.5,11.7l3.4,11.8l3.3,11.8l3.2,11.8l3,11.8l2.9,11.8l2.8,11.9l2.7,11.9l2.6,11.9l2.5,11.9l2.4,11.9
		l2.3,12l2.2,12l2.1,12l2,12l1.9,12l1.8,12l1.8,12l1.6,12.1l1.6,12.1l1.5,12.1l1.3,11.1c0.1,0,51.4-3.3,105.1-28.6
		c10.5-5,21.1-10.7,31.4-17.5c7.3-4.8,14.5-10,21.3-15.9c5.5-4.6,10.8-9.6,15.8-14.9c4.3-4.5,8.4-9.3,12.4-14.4
		c3.4-4.4,6.7-9.1,9.8-13.9c2.8-4.4,5.4-8.9,7.8-13.6c2.2-4.3,4.3-8.8,6.2-13.4c1.8-4.3,3.4-8.6,5-13.1c1.4-4.2,2.7-8.5,3.8-13
		c1.1-4.2,2-8.4,2.9-12.8c0.8-4.1,1.4-8.3,2-12.7c0.5-4.1,1-8.3,1.3-12.5l0-0.5c0,0,4.7-4.7,12.7-13.9c3.4-4,7.5-8.7,12-14.3
		c3.5-4.3,7.2-9,11.2-14.2c3.4-4.4,6.9-9.1,10.6-14.1c3.3-4.4,6.6-9.1,10.1-14c3.1-4.4,6.3-9.1,9.6-13.9c3-4.4,6-9.1,9.1-13.9
		c2.9-4.4,5.8-9,8.8-13.8l5.5-8.9l2.9-4.8l8-13.7c2.6-4.4,5.2-9,7.7-13.6l7.4-13.5l5.6-10.6l1.5-2.9l6.8-13.5l6.6-13.4l6.3-13.4
		c2-4.4,4.1-8.8,6.1-13.3l5.8-13.3l5.6-13.2l5.4-13.2l5.2-13.2l5-13.1l4.7-13.1l4.6-13.1l4.4-13l4.2-13l4-13l3.8-13l3.6-12.9
		l3.5-12.9l3.3-12.9l3.1-12.8l3-12.8l2.8-12.8l2.6-12.8l2.5-12.7l2.3-12.7l2.2-12.7l2-12.7l1.9-12.7l1.8-12.6l0.7-5.3L6877.3,7105.4
		z"/>
</g>
<path class="st12" d="M8405.7,7999.4c0,0,794.2-555.2,1468.9-330.3c674.7,224.9,618.5,688.8,400.6,773.1H8593.1L8405.7,7999.4
	L8405.7,7999.4z"/>
<path class="st12" d="M8617.7,4215.7c0,0-165.3,927.7-657.3,932.8c-429.5,3.9-330-559.4-298-702.8c4.5-21.4,7.9-33.2,7.9-33.2
	L7492,3733.3l946.3-501l19.1,104v1.7L8617.7,4215.7L8617.7,4215.7z"/>
<path class="st13" d="M7662.4,4445.6c4.5-21.4,7.9-33.2,7.9-33.2L7492,3733.3l946.3-501l19.1,104v1.7
	C8581.7,4445.6,7679.8,4445.6,7662.4,4445.6L7662.4,4445.6z"/>
<linearGradient id="SVGID_5_" gradientUnits="userSpaceOnUse" x1="8758.2119" y1="2375.9763" x2="6348.1172" y2="2372.9934">
	<stop  offset="0" style="stop-color:#5D3333"/>
	<stop  offset="0.9854" style="stop-color:#3F2323"/>
</linearGradient>
<path class="st14" d="M8714.8,2137.5c-2.6-12.7-5.7-24.3-9.3-35c-2.8-8.3-5.9-16.1-9.3-23.3c-2.9-6.2-6-11.9-9.3-17.2
	c-2.9-4.8-6.1-9.3-9.3-13.5c-3-3.8-6.1-7.5-9.3-10.8c-3-3.1-6.1-6.1-9.3-8.8c-3-2.6-6.1-5-9.3-7.3c-3-2.2-6.1-4.2-9.3-6.1
	c-3-1.8-6.1-3.4-9.3-4.9c-3-1.5-6.1-2.8-9.3-4.1c-3-1.2-6.1-2.3-9.3-3.3c-3-1-6.2-1.9-9.3-2.7c-3-0.8-6.1-1.5-9.3-2.1
	c-3.1-0.6-6.2-1.2-9.3-1.7c-3.1-0.5-6.2-0.9-9.3-1.2c-3.1-0.3-6.2-0.6-9.3-0.8c-3.1-0.2-6.2-0.4-9.3-0.5c-3.1-0.1-6.2-0.2-9.3-0.2
	l-1.4,0c0,0-2.6-13.3-7.9-35.5c-2.5-10.3-5.6-22.5-9.3-36.1c-2.8-10.2-5.8-21.1-9.3-32.7c-2.9-9.6-6-19.7-9.3-30
	c-2.9-9-6-18.3-9.3-27.7c-3-8.5-6-17.1-9.3-25.8c-3-8-6.1-16-9.3-24.1c-3-7.5-6.1-15-9.3-22.5c-3-7-6.1-14-9.3-21
	c-3-6.6-6.1-13.1-9.3-19.7c-3-6.2-6.1-12.4-9.3-18.5c-3-5.8-6.1-11.5-9.3-17.2c-3-5.5-6.1-10.8-9.3-16.2c-3-5.1-6.1-10.1-9.3-15.1
	c-3-4.8-6.2-9.5-9.3-14.1c-3-4.4-6.1-8.8-9.3-13.1c-3-4.2-6.1-8.2-9.3-12.2c-3.1-3.9-6.2-7.6-9.3-11.4c-3-3.6-6.1-7.1-9.3-10.5
	c-3-3.3-6.2-6.5-9.3-9.7c-3.1-3.1-6.1-6.1-9.3-9c-3-2.8-6.2-5.5-9.3-8.1c-3.1-2.6-6.2-5.1-9.3-7.4l-2.1-1.6
	c-2.3-1.7-4.7-3.3-7.2-4.9c-2.9-1.9-6.1-3.6-9.3-5.3c-3-1.6-6.1-3-9.3-4.4c-3-1.3-6.1-2.6-9.3-3.8c-3-1.1-6.1-2.2-9.3-3.2
	c-3-1-6.1-1.9-9.3-2.8c-3-0.8-6.1-1.6-9.3-2.3c-3-0.7-6.1-1.4-9.3-2l-9.3-1.8l-9.3-1.5l-9.3-1.3c-3-0.4-6.2-0.7-9.3-1l-9.3-0.9
	l-9.3-0.7l-9.3-0.5l-9.3-0.4l-9.3-0.3l-9.3-0.1l-9.3,0l-9.3,0.1l-9.3,0.2l-9.3,0.3l-9.3,0.4l-9.3,0.5l-9.3,0.6l-9.3,0.7l-9.3,0.8
	l-9.3,0.8l-9.3,0.9l-9.3,1l-9.3,1l-9.3,1.1l-9.3,1.1l-9.3,1.3l-9.3,1.3l-9.3,1.4l-9.3,1.4l-9.3,1.5l-9.3,1.5l-9.3,1.5l-9.3,1.6
	l-9.3,1.7l-9.3,1.7l-9.3,1.8l-9.3,1.8l-9.3,1.9l-9.3,1.9l-9.3,1.9l-9.3,1.9l-9.3,2l-9.3,2l-9.3,2.1l-9.3,2.1l-9.3,2.2l-9.3,2.2
	l-9.3,2.3l-9.3,2.3l-9.3,2.3l-9.3,2.3l-9.3,2.4l-9.3,2.4l-9.3,2.5l-9.3,2.5l-9.3,2.6l-9.3,2.6l-9.3,2.6l-9.3,2.6l-9.3,2.7l-9.3,2.7
	l-9.3,2.8l-9.3,2.8l-9.3,2.9l-9.3,2.9l-9.3,3l-9.3,3l-9.3,3l-9.3,3.1l-9.3,3.1l-9.3,3.1l-9.3,3.2l-9.3,3.2l-9.3,3.3l-9.3,3.3
	l-9.3,3.4l-9.3,3.4l-9.3,3.5l-9.3,3.5l-9.3,3.6l-9.3,3.6l-9.3,3.7l-9.3,3.8l-9.3,3.8l-9.3,3.9l-9.3,3.9l-9.3,4l-9.3,4.1l-9.3,4.1
	l-9.3,4.2l-9.3,4.3l-9.3,4.4l-9.3,4.5l-9.3,4.6l-9.3,4.7l-9.3,4.8l-9.3,4.9l-9.3,5.1l-9.3,5.2l-9.3,5.4l-0.6,0.4
	c-2.9,1.7-5.8,3.3-8.7,4.9c-3.1,1.7-6.2,3.3-9.3,4.8c-3.1,1.5-6.2,3-9.3,4.3c-3.1,1.4-6.2,2.6-9.3,3.8c-3.1,1.2-6.2,2.3-9.3,3.3
	c-3.1,1-6.2,2-9.3,2.9c-3.1,0.9-6.2,1.6-9.3,2.3c-3.1,0.7-6.2,1.3-9.3,1.8c-3.1,0.5-6.2,1-9.3,1.3c-3.1,0.4-6.2,0.7-9.3,0.9
	c-3.1,0.2-6.2,0.3-9.3,0.4c-3.1,0.1-6.2,0-9.3-0.1c-3.1-0.1-6.2-0.3-9.3-0.6c-3.1-0.3-6.2-0.6-9.3-1c-3.1-0.4-6.2-0.9-9.3-1.5
	c-3.1-0.6-6.2-1.2-9.3-1.9c-3.1-0.7-6.2-1.5-9.3-2.4c-3.1-0.9-6.2-1.8-9.3-2.8c-3.1-1-6.2-2.1-9.3-3.3c-3.1-1.2-6.2-2.4-9.3-3.7
	c-3.1-1.3-6.2-2.7-9.3-4.1c-3.1-1.4-6.2-2.9-9.3-4.5c-3.1-1.6-6.2-3.2-9.3-4.9c-3.1-1.7-6.2-3.5-9.3-5.3c-3.1-1.9-6.2-3.8-9.3-5.7
	c-3.1-2-6.2-4-9.3-6.1c-3.1-2.1-6.2-4.2-9.3-6.4l-9.3-6.8l-9.3-7.1c-3.1-2.4-6.2-4.9-9.3-7.4l-9.3-7.7l-9.3-8l-9.3-8.2l-9.3-8.5
	l-9.3-8.7l-9.3-8.8l-9.3-9l-9.3-9.1l-9.3-9.2l-9.3-9.2l-9.3-9.2l-9.3-9.2l-9.3-9.1l-9.3-8.9l-9.3-8.7c-3.1-2.9-6.2-5.7-9.3-8.4
	c-3.1-2.8-6.2-5.5-9.3-8.1c-3.1-2.7-6.2-5.2-9.3-7.6c-3.1-2.5-6.2-4.9-9.3-7.1c-3.1-2.3-6.2-4.4-9.3-6.4c-3.1-2-6.2-4-9.3-5.7
	c-3.1-1.8-6.2-3.3-9.3-4.7c-3.1-1.4-6.2-2.6-9.3-3.6c-3.1-1-6.2-1.8-9.3-2.3c-3.1-0.5-6.2-0.8-9.3-0.7c-2.2,0-4.3,0.1-6.4,0.4
	l-2.9,0.5c-3.2,0.6-6.3,1.5-9.3,2.6c-3.2,1.2-6.3,2.6-9.3,4.2c-3.2,1.8-6.3,3.8-9.3,6.1c-3.2,2.5-6.3,5.2-9.3,8.2
	c-3.2,3.3-6.3,6.9-9.3,10.8c-3.3,4.3-6.4,8.9-9.3,13.9c-3.3,5.6-6.4,11.6-9.3,18c-3.4,7.5-6.5,15.5-9.3,23.9
	c-3.6,10.6-6.6,21.8-9.3,33.6c-4.4,19.8-7.5,41.2-9.3,63.2c-2.3,28.9-2.3,59,0,88.9c1.8,22.4,4.8,44.7,9.3,66
	c2.6,12.6,5.7,24.9,9.3,36.7c2.8,9.3,5.9,18.3,9.3,27c2.9,7.4,6,14.5,9.3,21.3c2.9,6,6,11.9,9.3,17.5l3.6,5.9l-3.6-2l-9.3-5.5
	l-9.3-5.6l-9.3-5.8l-9.3-5.9l-9.3-6.1l-9.3-6.3l-9.3-6.4l-9.3-6.6l-9.3-6.8l-9.3-7l-9.3-7.2l-9.3-7.4l-9.3-7.7l-9.3-7.9l-9.3-8.3
	c-3.1-2.8-6.2-5.7-9.3-8.6c-3.1-3-6.2-6-9.3-9.1c-3.2-3.2-6.2-6.4-9.3-9.6c-3.2-3.4-6.2-6.8-9.3-10.3c-3.2-3.7-6.3-7.4-9.3-11.1
	c-3.2-4-6.3-8.1-9.3-12.1c-3.3-4.5-6.4-9.1-9.3-13.7c-3.4-5.4-6.5-10.8-9.3-16.3c-3.7-7.3-6.8-14.6-9.3-21.9c-0.7-2-1.3-4.1-1.9-6.1
	c-1.8-6.5-4.4-12-7.4-16.4c-2.7-3.9-5.8-7-9.3-9.3c-2.9-1.9-6-3.2-9.3-4c-2.9-0.7-6-1-9.3-0.9c-3,0.1-6.1,0.6-9.3,1.4
	c-3,0.8-6.1,1.8-9.3,3.2c-3,1.3-6.1,2.9-9.3,4.8c-3.1,1.8-6.2,3.9-9.3,6.2c-3.1,2.3-6.2,4.8-9.3,7.6c-3.1,2.8-6.2,5.7-9.3,9
	c-3.1,3.2-6.2,6.7-9.3,10.4c-3.1,3.7-6.2,7.7-9.3,11.8c-3.1,4.2-6.2,8.7-9.3,13.4c-3.1,4.8-6.2,9.9-9.3,15.2
	c-3.2,5.5-6.2,11.2-9.3,17.2c-3.2,6.3-6.3,12.8-9.3,19.7c-3.2,7.2-6.3,14.8-9.3,22.7c-3.3,8.6-6.4,17.7-9.3,27.1
	c-3.3,10.6-6.4,21.8-9.3,33.4c-3.6,14.5-6.7,29.7-9.3,45.7c-11.3,68.3-13.3,149.7,0,242.8c2.3,15.9,4.9,32.1,8.1,48.6l1.2,5.8
	c3,15,6.1,29.5,9.3,43.6c3,13.1,6.1,25.8,9.3,38.1c3,11.6,6.1,22.9,9.3,33.8c3,10.4,6.1,20.5,9.3,30.3c3,9.5,6.1,18.6,9.3,27.6
	c3.1,8.7,6.2,17.1,9.3,25.2c3.1,8,6.2,15.7,9.3,23.2c3.1,7.3,6.2,14.5,9.3,21.4c3.1,6.8,6.2,13.4,9.3,19.8
	c3.1,6.3,6.2,12.5,9.3,18.5c3.1,5.9,6.2,11.7,9.3,17.2c3.1,5.5,6.2,10.8,9.3,16c3.1,5.2,6.2,10.2,9.3,15c3.1,4.8,6.2,9.6,9.3,14.1
	c3.1,4.5,6.2,8.9,9.3,13.1c3.1,4.2,6.2,8.3,9.3,12.3c3.1,4,6.2,7.8,9.3,11.5c3.1,3.7,6.2,7.3,9.3,10.7c3.1,3.5,6.2,6.9,9.3,10
	c3.1,3.3,6.2,6.4,9.3,9.4c3.2,3.1,6.2,6,9.3,8.7c3.2,2.9,6.2,5.5,9.3,8.1c3.2,2.7,6.3,5.1,9.3,7.4c3.2,2.5,6.3,4.8,9.3,6.9
	c3.2,2.3,6.3,4.4,9.3,6.2c3.3,2.1,6.4,4,9.3,5.6c3.4,1.9,6.5,3.6,9.3,4.9c3.7,1.8,6.9,3.2,9.3,4.2c3.8,1.5,5.9,2.1,5.9,2.1
	s0.8,10.1,3.4,27.3c1.9,12.9,4.9,29.8,9.3,49.6c2.6,11.7,5.6,24.3,9.3,37.7c2.8,10,5.8,20.5,9.3,31.3c2.8,8.9,5.9,18,9.3,27.3
	c2.9,8,6,16.1,9.3,24.3c2.9,7.2,6,14.5,9.3,21.9c3,6.6,6,13.3,9.3,19.9c3,6.1,6.1,12.1,9.3,18.2c3,5.6,6.1,11.3,9.3,16.9
	c3,5.2,6.1,10.4,9.3,15.6c3,4.9,6.1,9.7,9.3,14.6c3,4.5,6.1,9,9.3,13.5c3,4.3,6.1,8.5,9.3,12.7c3,4,6.1,8,9.3,11.9
	c3,3.7,6.1,7.5,9.3,11.1c3,3.5,6.1,7,9.3,10.5c3,3.3,6.1,6.6,9.3,9.9c3,3.1,6.1,6.2,9.3,9.2c3,2.9,6.1,5.8,9.3,8.7
	c3,2.8,6.1,5.5,9.3,8.2c3,2.6,6.1,5.1,9.3,7.7c3,2.5,6.2,4.9,9.3,7.3c3.1,2.3,6.2,4.6,9.3,6.8c3.1,2.2,6.1,4.4,9.3,6.5
	c3,2,6.2,4,9.3,6c3.1,1.9,6.2,3.8,9.3,5.6c3.1,1.8,6.2,3.6,9.3,5.3c3.1,1.7,6.1,3.4,9.3,5c3,1.6,6.2,3.1,9.3,4.6l9.3,4.3
	c3.1,1.4,6.2,2.8,9.3,4.1c3.1,1.3,6.2,2.5,9.3,3.7l9.3,3.5c3.1,1.1,6.2,2.2,9.3,3.3c3.1,1,6.2,2,9.3,2.9l9.3,2.7l9.3,2.6
	c3,0.8,6.2,1.5,9.3,2.2c3.1,0.7,6.2,1.4,9.3,2.1l9.3,1.8l9.3,1.6l9.3,1.5l3.6,0.6l5.7,0.7l9.3,1.2l9.3,1.1l9.3,1l9.3,0.9l9.3,0.9
	l9.3,0.8l9.3,0.8l9.3,0.7l9.3,0.7l9.3,0.6l9.3,0.6l9.3,0.6l9.3,0.5l9.3,0.5l9.3,0.4l9.3,0.4l9.3,0.4l9.3,0.3l9.3,0.3l9.3,0.3
	l9.3,0.3l9.3,0.3l9.3,0.2l9.3,0.2l9.3,0.2l9.3,0.1l9.3,0.1l9.3,0.1l9.3,0.1l9.3,0.1l9.3,0l9.3,0l9.3,0h9.3h9.3l9.3,0l9.3-0.1l9.3,0
	l9.3-0.1l9.3-0.1l9.3-0.1l9.3-0.1l9.3-0.1l9.3-0.1l9.3-0.2l9.3-0.2l9.3-0.2l9.3-0.2l9.3-0.2l9.3-0.2l9.3-0.2l9.3-0.2l9.3-0.2
	l9.3-0.3l9.3-0.2l9.3-0.3l9.3-0.3l9.3-0.3l9.3-0.3l9.3-0.3l9.3-0.3l9.3-0.3l9.3-0.3l9.3-0.3l9.3-0.4l9.3-0.4l9.3-0.4l9.3-0.4
	l9.3-0.4l9.3-0.4l9.3-0.4l9.3-0.4l9.3-0.4l9.3-0.4l9.3-0.4l9.3-0.4l9.3-0.4l9.3-0.4l9.3-0.4l9.3-0.5l9.3-0.5l9.3-0.5l9.3-0.5
	l9.3-0.5l9.3-0.5l9.3-0.5l9.3-0.5l9.3-0.5l9.3-0.5l9.3-0.5l9.3-0.5l9.3-0.5l9.3-0.5l9.3-0.5l9.3-0.5l9.3-0.5l9.3-0.6l9.3-0.6
	l9.3-0.6l9.3-0.6l9.3-0.6l9.3-0.6l9.3-0.6l9.3-0.6l9.3-0.6l9.3-0.6l9.3-0.6l9.3-0.6l9.3-0.6l9.3-0.6l9.3-0.6l9.3-0.6l9.3-0.6
	l9.3-0.6l9.3-0.7l9.3-0.7l9.3-0.7l9.3-0.7l9.3-0.7l9.3-0.7l9.3-0.7l9.3-0.7l9.3-0.7l9.3-0.7l9.3-0.7l9.3-0.7l9.3-0.7l9.3-0.7
	l9.3-0.7l9.3-0.7l9.3-0.7l9.3-0.7l9.3-0.7l9.3-0.8l9.3-0.7l9.3-0.7l9.3-0.8l9.3-0.8l9.3-0.8l9.3-0.8l9.3-0.8l2.7-0.2l6.6-8.5l9.3-12
	l9.3-12l9.3-12l9.3-12l9.3-12l9.3-12l9.3-12l9.3-12l9.3-12l9.3-12l9.3-12l9.3-12l9.3-12l9.3-12l9.3-12l9.3-12l9.3-12l9.3-12l9.3-12
	l9.3-12l9.3-12l9.3-12l7-9l2.3-4.5c2-4,5.1-10.5,9.3-19.3c2.7-5.8,5.8-12.7,9.3-20.4c2.9-6.5,6-13.7,9.3-21.5
	c2.9-7,6.1-14.5,9.3-22.4c3-7.4,6.1-15.3,9.3-23.5c3-7.9,6.1-16.1,9.3-24.7c3.1-8.3,6.2-16.9,9.3-25.8c3.1-8.8,6.2-17.9,9.3-27.3
	c3.1-9.3,6.2-18.9,9.3-28.8c3.1-10,6.2-20.2,9.3-30.7c3.1-10.7,6.2-21.6,9.3-32.8c3.2-11.6,6.2-23.5,9.3-35.6
	c3.2-12.8,6.3-25.9,9.3-39.3c3.2-14.4,6.3-29.1,9.3-44.1c3.3-16.9,6.4-34.1,9.3-51.7c3.5-21.4,6.6-43.3,9.3-65.6
	c1.3-11.1,2.6-22.4,3.7-33.7c4-40.5,5.8-76.7,5.6-108.9C8723.9,2199.9,8720.6,2166.1,8714.8,2137.5z"/>
<path class="st12" d="M6880.6,2742.3c0,0,175.7,1201.8,618.5,1356.5c442.8,154.6,812.9-318.1,869.1-444.6
	c56.2-126.5,79.9-391.7,79.9-391.7c0,0,150.9,35,168.5-232c17.6-267.1-214.3-425.2-270.5,35.1c0,0-216.8-119.5-151.1-527.1
	c0,0-248.3,234.3-595,234.3c-346.7,0-46.9-234.3-46.9-234.3C7552.9,2538.5,7304.6,2768,6880.6,2742.3L6880.6,2742.3z"/>
<polygon class="st4" points="9647.3,8287.5 6761.1,8287.5 6761.1,8442.1 9647.3,8442.1 9647.3,8287.5 "/>
<polygon class="st3" points="8757.1,8287.5 9647.3,8287.5 9647.3,8442.1 8757.1,8442.1 8757.1,8287.5 "/>
<path class="st15" d="M9160.1,8292.2c0,0-255.3-380.8-638.2-374.7c-289.7,4.6-300.5,187.3-300.5,187.3c0,0-190.4-22.7-195.3,187.4
	H9160.1L9160.1,8292.2z"/>
<path class="st12" d="M5571,8268.8c0,0,14-210.8-79.6-239c-93.7-28.1-164,51.5-164,51.5c0,0-70.3-309.2-332.7-318.6
	c-262.3-9.4-735.6,257.7-445.1,506H5571L5571,8268.8z"/>
<path class="st3" d="M6245.5,8355.5c0,47.8-38.8,86.6-86.6,86.6H4580.1c-47.8,0-86.6-38.8-86.6-86.6c0-47.8,38.8-86.6,86.6-86.6
	h1578.8C6206.7,8269,6245.5,8307.8,6245.5,8355.5L6245.5,8355.5z"/>
<path class="st4" d="M5777.2,8355.5c0,47.8-38.8,86.6-86.6,86.6H4580.1c-47.8,0-86.6-38.8-86.6-86.6c0-47.8,38.8-86.6,86.6-86.6
	h1110.5C5738.4,8269,5777.2,8307.8,5777.2,8355.5L5777.2,8355.5z"/>
<path class="st16" d="M5369.5,8129.4l-280-914.6c-12.4-40.7-54.8-64.3-96-53.2c-45.2,12-70.1,60.5-53.6,104.3l334.7,888.1
	C5274.7,8154,5330.9,8185.6,5369.5,8129.4L5369.5,8129.4z"/>
<path class="st1" d="M3398.1,5853.8c30.5,184.5-35.9,349.1-148.2,367.7c-112.3,18.5-228.2-116-258.6-300.4
	c-30.5-184.5,35.9-349.1,148.3-367.7C3251.8,5534.8,3367.6,5669.4,3398.1,5853.8L3398.1,5853.8z"/>
<path class="st17" d="M3398.1,5853.8l-27.8,4.6c4.8,28.8,7,57.2,7,84.3c0.1,69-14.8,130.5-39.1,174.7c-24.6,44.5-56.8,70.4-93,76.4
	c-5.4,0.9-10.9,1.3-16.3,1.3c-40.7,0.3-86.3-25.8-125.7-75.5c-39.2-49.4-70.8-120.8-84.3-203.1c-4.7-28.9-7-57.1-7-84.2
	c0-69,14.8-130.6,39.2-174.8c24.6-44.5,56.8-70.3,92.9-76.3c5.5-0.9,10.9-1.4,16.3-1.4c40.7-0.3,86.3,25.8,125.6,75.5
	c39.2,49.4,70.8,120.9,84.3,203.1L3398.1,5853.8l27.7-4.6c-15.1-90.8-49.6-170.4-95.7-228.8c-46-58.1-105-96.6-169.8-96.9
	c-8.4,0-17,0.7-25.5,2.1c-57.7,9.6-103.3,50.2-133.1,104.7c-30,54.9-46,124.9-46.1,201.9c0,30.3,2.5,61.6,7.8,93.4
	c15.1,90.8,49.6,170.4,95.7,228.8c46,58,105,96.6,169.7,96.8c8.5,0,17-0.7,25.5-2.1c57.8-9.6,103.3-50.2,133.1-104.7
	c30-54.8,46-124.9,46-201.8c0-30.3-2.5-61.6-7.8-93.5L3398.1,5853.8L3398.1,5853.8z"/>
<path class="st18" d="M5106.4,7479.6H2109c-131.6,0-249.1-81-298-203c-350.8-876-610-1727.8-715.2-2539.2
	c-24.7-192.3,124.8-362.1,318.2-362.1h3038.4c159.1,0,292.9,116.4,316.5,273.3c114.1,751.7,337.3,1557.5,639.8,2403.6
	C5483.1,7260.3,5327.9,7479.6,5106.4,7479.6L5106.4,7479.6z"/>
<path class="st4" d="M4985,7479.6H2109c-131.6,0-249.1-81-298-203c-350.8-876-610-1727.8-715.2-2539.2
	c-24.7-192.3,124.8-362.1,318.2-362.1h2916.4c159.1,0,292.9,116.4,317.1,273.3c113.6,751.7,336.8,1557.5,639.3,2403.6
	C5361.7,7260.3,5205.9,7479.6,4985,7479.6L4985,7479.6z"/>
<path class="st18" d="M4837.2,8442.1H3685.8c-167,0-316-106.3-370.6-264.2l-344.7-1204.3c190.7,0.6,377.9-0.6,561.7-0.6
	c61.3,0,122.6,0,183.3,0.6l274.4,936.7c38.8,105.7,132.1,182.2,242.9,199.6l430.7,67.5c72.5,11.3,130.5,66.3,146.2,137.8
	L4837.2,8442.1L4837.2,8442.1z"/>
<path class="st19" d="M4232.8,8109.8l-97.2-9c-137.2-11.8-255.9-99.5-307.6-227.1L3532.2,6973c61.3,0,122.6,0,183.3,0.6l274.4,936.7
	C4028.7,8015.9,4122,8092.4,4232.8,8109.8L4232.8,8109.8z"/>
<path class="st1" d="M3374.9,5893.5c42.7,178.1-11.9,343.9-122,370.3c-110.1,26.4-234-96.5-276.6-274.6
	c-42.7-178.1,11.9-343.9,122-370.2C3208.4,5592.5,3332.3,5715.5,3374.9,5893.5L3374.9,5893.5z"/>
<polygon class="st3" points="13690.9,8442.1 13690.9,8723.3 0,8723.3 0,8442.1 13690.9,8442.1 "/>
<polygon class="st2" points="13690.9,8442.1 13690.9,8723.3 10654.7,8723.3 10654.7,8442.1 13690.9,8442.1 "/>
<polygon class="st3" points="12257.1,7294.2 12126,6478.9 11709,6530.5 11863.6,7341 12257.1,7294.2 "/>
<path class="st2" d="M12245.1,7219.2l144.4-1006.2c4.5-31.5,34-53.1,65.4-47.8c30.7,5.1,51.4,33.9,46.7,64.6l-160.2,1041.1h60.9
	l214.7-797.6c8.3-30.6,39.5-49,70.3-41.3c31.5,7.8,50.4,39.8,42.2,71.1l-200.7,767.8l-201.4,93.7L12245.1,7219.2L12245.1,7219.2z"/>
<path class="st4" d="M12669.5,7219.2v1037.9c0,91.9-74.5,166.4-166.4,166.4h-599.5c-91.9,0-166.4-74.5-166.4-166.4l0-1037.9H12669.5
	L12669.5,7219.2z"/>
<polygon class="st18" points="12669.5,7219.2 12669.5,7462.7 11737.1,7462.7 11737.1,7219.2 12669.5,7219.2 "/>
<path class="st20" d="M11731,3486.7c-732.5,0-1326.3-593.9-1326.3-1326.4c0-732.5,593.8-1326.3,1326.3-1326.3
	c732.6,0,1326.4,593.8,1326.4,1326.3C13057.4,2892.9,12463.6,3486.7,11731,3486.7L11731,3486.7z"/>
<path class="st3" d="M12957,2063.7c0,689.2-558.8,1248-1248.1,1248c-689.3,0-1248-558.8-1248-1248c0-689.3,558.8-1248.1,1248-1248.1
	C12398.2,815.6,12957,1374.4,12957,2063.7L12957,2063.7z"/>
<path class="st4" d="M12627.2,2063.7c0,507.1-411.1,918.2-918.2,918.2c-507.1,0-918.2-411.1-918.2-918.2
	c0-507.1,411.1-918.2,918.2-918.2C12216.1,1145.5,12627.2,1556.6,12627.2,2063.7L12627.2,2063.7z"/>
<g>
	<path id="time" class="st3" d="M11708.6,1289.4L11708.6,1289.4c-47.9,0-86.7,38.8-86.7,86.7v772.2h173.4v-772.2
		C11795.3,1328.2,11756.4,1289.4,11708.6,1289.4z"/>
	<path id="hour" class="st3" d="M12249,1988.4h-627.2v159.9h627.2c44.2,0,79.9-35.8,79.9-79.9v0C12329,2024.2,12293.2,1988.4,12249,1988.4z"/>
</g>
</svg>
