<?xml version="1.0" encoding="iso-8859-1"?>
<!-- Generator: Adobe Illustrator 19.0.0, SVG Export Plug-In . SVG Version: 6.00 Build 0)  -->
<svg version="1.1" id="Capa_1" xmlns="http://www.w3.org/2000/svg" xmlns:xlink="http://www.w3.org/1999/xlink" x="0px" y="0px"
	 viewBox="0 0 467.9 467.9" style="enable-background:new 0 0 467.9 467.9;" xml:space="preserve">
<g>
	<path style="fill:#ED664C;" d="M419,176.7v114.7c0,17.3-14,31.3-31.3,31.3h-88.6H179.3c-17.3,0-31.3-14-31.3-31.3V176.7
		c0-17.3,14-31.3,31.3-31.3h119.9h88.6C405,145.4,419,159.4,419,176.7z M254.2,212.5c0-11.5-9.3-20.9-21-20.9
		c-6.5,0-12.4,3-16.2,7.7c-3.8-4.7-9.6-7.7-16.2-7.7c-11.6,0-20.9,9.4-20.9,20.9c0,11.6,9.3,21,20.9,21c6.6,0,12.4-3,16.2-7.7
		c3.8,4.7,9.6,7.7,16.2,7.7C244.8,233.4,254.2,224.1,254.2,212.5z"/>
	<path style="fill:#ED664C;" d="M299.2,364.3v62.5c0,17.3-14,31.3-31.3,31.3H80.2c-17.3,0-31.3-14-31.3-31.3v-62.5H299.2z
		 M194.9,411.2c0-11.5-9.3-20.8-20.8-20.8s-20.8,9.3-20.8,20.8s9.3,20.8,20.8,20.8S194.9,422.7,194.9,411.2z"/>
</g>
<path style="fill:#FDC75B;" d="M299.2,327.8v36.5H49V88.1h250.2v56.4v0.9H179.3c-17.3,0-31.3,14-31.3,31.3v114.7
	c0,17.3,14,31.3,31.3,31.3h119.9V327.8z"/>
<path style="fill:#ED664C;" d="M299.2,41.1V88H49V41.1C49,23.8,63,9.8,80.3,9.8h187.6C285.1,9.9,299.2,23.9,299.2,41.1z"/>
<g>
	<path style="fill:#FDC75B;" d="M233.2,191.6c11.6,0,21,9.4,21,20.9c0,11.6-9.3,21-21,21c-6.5,0-12.4-3-16.2-7.7
		c-3.8,4.7-9.6,7.7-16.2,7.7c-11.6,0-20.9-9.3-20.9-21c0-11.5,9.3-20.9,20.9-20.9c6.6,0,12.4,3,16.2,7.7
		C220.9,194.6,226.7,191.6,233.2,191.6z"/>
	<circle style="fill:#FDC75B;" cx="174.1" cy="411.2" r="20.8"/>
</g>
<path d="M140.2,56H208c5.5,0,10-4.5,10-10s-4.5-10-10-10h-67.8c-5.5,0-10,4.5-10,10S134.7,56,140.2,56z"/>
<path d="M174.1,380.4c-17,0-30.8,13.8-30.8,30.8s13.8,30.8,30.8,30.8s30.8-13.8,30.8-30.8S191.1,380.4,174.1,380.4z M174.1,422.1
	c-6,0-10.8-4.9-10.8-10.8s4.9-10.8,10.8-10.8s10.8,4.9,10.8,10.8S180,422.1,174.1,422.1z"/>
<path d="M387.8,135H309V41.1C309,18.3,290.6,0,267.9,0H80.2C57.5,0,39,18.4,39,41.1v385.7c0,22.8,18.5,41.1,41.2,41.1h187.6
	c22.8,0,41.1-18.4,41.1-41.1V333h78.8c22.8,0,41.2-18.9,41.2-41.7V176.7C429,153.9,410.5,135,387.8,135z M80.2,20h187.6
	c11.7,0,21.1,9.4,21.1,21.1V78H59V41.1C59,29.4,68.5,20,80.2,20z M267.9,448H80.2c-11.7,0-21.2-9.4-21.2-21.1V374h230v52.9
	C289,438.6,279.6,448,267.9,448z M289,354H59V98h230v37H179.3c-22.8,0-41.3,18.9-41.3,41.7v114.7c0,22.8,18.5,41.7,41.3,41.7H289
	V354z M409,290.7c0,11.7-9.5,21.3-21.3,21.3H179.3c-11.7,0-21.3-9.5-21.3-21.3V176.3c0-11.7,9.5-21.3,21.3-21.3h208.5
	c11.7,0,21.3,9.5,21.3,21.3v114.4H409z"/>
<path d="M322.6,271H176.7c-5.5,0-10,4.5-10,10s4.5,10,10,10h145.9c5.5,0,10-4.5,10-10S328.1,271,322.6,271z"/>
<path d="M200.8,243.4c5.8,0,11.4-1.6,16.2-4.6c4.8,3,10.4,4.6,16.2,4.6c17.1,0,31-13.9,31-31c0-17-13.9-30.9-31-30.9
	c-5.8,0-11.4,1.6-16.2,4.6c-4.8-3-10.4-4.6-16.2-4.6c-17,0-30.9,13.9-30.9,30.9C169.9,229.5,183.8,243.4,200.8,243.4z M200.8,201.6
	c3.3,0,6.4,1.5,8.4,4c1.9,2.3,4.8,3.7,7.8,3.7l0,0c3,0,5.9-1.4,7.8-3.7c2.1-2.6,5.1-4,8.4-4c6,0,11,4.9,11,10.9c0,6.1-4.8,11-11,11
	c-3.3,0-6.3-1.5-8.4-4c-1.9-2.3-4.8-3.7-7.8-3.7s-5.9,1.4-7.8,3.7c-2.1,2.6-5.1,4-8.4,4c-6,0-10.9-4.9-10.9-11
	C189.9,206.5,194.8,201.6,200.8,201.6z"/>
<g>
</g>
<g>
</g>
<g>
</g>
<g>
</g>
<g>
</g>
<g>
</g>
<g>
</g>
<g>
</g>
<g>
</g>
<g>
</g>
<g>
</g>
<g>
</g>
<g>
</g>
<g>
</g>
<g>
</g>
</svg>
