<?xml version="1.0" encoding="utf-8"?>
<!-- Generator: Adobe Illustrator 24.0.1, SVG Export Plug-In . SVG Version: 6.00 Build 0)  -->
<svg version="1.1" id="Layer_1" xmlns="http://www.w3.org/2000/svg" xmlns:xlink="http://www.w3.org/1999/xlink" x="0px" y="0px"
	 viewBox="0 0 425.4 545.8" style="enable-background:new 0 0 425.4 545.8;" xml:space="preserve">
<style type="text/css">
	.st0{fill-rule:evenodd;clip-rule:evenodd;fill:#4D398D;}
	.st1{fill-rule:evenodd;clip-rule:evenodd;fill:#997CB7;}
	.st2{fill-rule:evenodd;clip-rule:evenodd;fill:#FFFFFF;}
	.st3{fill-rule:evenodd;clip-rule:evenodd;fill:#FBC47F;}
	.st4{fill-rule:evenodd;clip-rule:evenodd;fill:#5E4F9C;}
	.st5{fill-rule:evenodd;clip-rule:evenodd;fill:#DE91BE;}
	.st6{fill-rule:evenodd;clip-rule:evenodd;fill:#FEEEE7;}
	.st7{fill-rule:evenodd;clip-rule:evenodd;fill:#87806D;}
	.st8{fill-rule:evenodd;clip-rule:evenodd;fill:#4C54A0;}
	.st9{fill-rule:evenodd;clip-rule:evenodd;fill:#9A999A;}
	.st10{fill-rule:evenodd;clip-rule:evenodd;fill:#F7CF71;}
	.st11{fill-rule:evenodd;clip-rule:evenodd;fill:#35B6B2;}
	.st12{fill-rule:evenodd;clip-rule:evenodd;fill:#DF94B2;}
	.st13{fill-rule:evenodd;clip-rule:evenodd;fill:#8D59A0;}
    #plane{
        transform-origin: center;
        animation: plane 5s ease;
        animation-iteration-count: infinite;
    }
    @keyframes plane{
        0%{opacity: 0;transform: rotate(80deg) scale(1.05);}
        5%{opacity: 1;}
        90%{opacity: 1;transform: rotate(360deg) scale(1.05);}
        100%{opacity: 0;transform: rotate(360deg) scale(1.05);}
    }
    #gear7{
        transform-origin: 91% 51.85%;
        animation: gearRev 7s linear infinite;
    }
    #gear6{
        transform-origin: 79.1% 46.25%;
        animation: gear 7s linear infinite;
    }
    #gear5{
        transform-origin: 84% 32.08%;
        animation: gearRev 7s linear infinite;
    }
    #gear4{
        transform: rotate(80deg);
        transform-origin: 11.55% 58.53%;
        animation: gearRev 7s linear infinite;
    }
    #gear3{
        transform-origin: 17.6% 30.3%;
        animation: gear 7s linear infinite;
    }
    #gear2{
        transform-origin: 31.15% 40.95%;
        animation: gearRev 7s linear infinite;
    }
    #gear1{
        transform-origin: 18.7% 43.8%;
        animation: gear 7s linear infinite;
    }
    @keyframes gear{
        0%{transform: rotate(0)}
        100%{transform: rotate(360deg)}
    }
    @keyframes gearRev{
        0%{transform: rotate(0)}
        100%{transform: rotate(-360deg)}
    }
    
    
    .lightDot{
        animation: light 7s linear infinite;
    }
    #light{
        animation: light 7s linear infinite;
    }
    @keyframes light{
        0%{opacity: 0;}
        20%{opacity: 1;}
        30%{opacity: 0;}
        60%{opacity: 1;}
        90%{opacity: 1}
        100%{opacity: 0}
    }
    .drowing1{
        transform: translate(2.5%,-1.7%);
        animation: drowing1 4s linear infinite;
    }
     @keyframes drowing1{
        0%{opacity: 0;transform: translate(2.5%,-1.7%);}
        20%{opacity: 1;transform: translate(2.5%,-1.7%);}
        40%{opacity: 1;transform: translate(0,0);}
        60%{opacity: 1;transform: translate(0,0);}
        80%{opacity: 1;transform: translate(2.5%,-1.7%);}
        100%{opacity: 0;transform: translate(2.5%,-1.7%);}
    }
    .drowing2{
/*        transform: translate(-3.3%,-2.7%);*/
        animation: drowing2 4s linear infinite;
    }
    @keyframes drowing2{
        0%{opacity: 0;transform: translate(-3.3%,-2.7%);}
        20%{opacity: 1;transform: translate(-3.3%,-2.7%);}
        40%{opacity: 1;transform: translate(0,0);}
        60%{opacity: 1;transform: translate(0,0);}
        80%{opacity: 1;transform: translate(-3.3%,-2.7%);}
        100%{opacity: 0;transform: translate(-3.3%,-2.7%);}
    }
    .drowing3{
/*        transform: translate(-2%,1.1%);*/
        animation: drowing3 4s linear infinite;
    }
    @keyframes drowing3{
        0%{opacity: 0;transform: translate(-2%,1.1%);}
        20%{opacity: 1;transform: translate(-2%,1.1%);}
        40%{opacity: 1;transform: translate(0,0);}
        60%{opacity: 1;transform: translate(0,0);}
        80%{opacity: 1;transform: translate(-2%,1.1%);}
        100%{opacity: 0;transform: translate(-2%,1.1%);}
    }
    .drowing3 path{
        fill:#5E4F9C;
    }
    .drowing2 .st12{
        fill:#FBC47F;
        animation: drowing2path 4s linear infinite;
    }
    @keyframes drowing2path{
        0%{fill:#FBC47F;}
        39%{fill:#FBC47F;}
        40%{fill:#5E4F9C;}
        60%{fill:#5E4F9C;}
        61%{fill:#FBC47F;}
        100%{fill:#FBC47F;}
    }
    .drowing1 .st13{
        fill:#DE91BE;
        animation: drowing1path 4s linear infinite;
    }
    @keyframes drowing1path{
        0%{fill:#DE91BE;}
        39%{fill:#DE91BE;}
        40%{fill:#5E4F9C;}
        60%{fill:#5E4F9C;}
        61%{fill:#DE91BE;}
        100%{fill:#DE91BE;}
    }
</style>
   <g>
    <path class="st0" d="M208.7,111.1c-0.7,0-1.3-0.6-1.3-1.3c0-0.7,0.6-1.3,1.3-1.4c1.4,0,2.7-0.1,4.1-0.1l1.3,0c0.7,0,1.3,0.6,1.3,1.3
	c0,0.7-0.6,1.3-1.3,1.3c0,0,0,0,0,0l-1.2,0C211.4,111.1,210.1,111.1,208.7,111.1C208.7,111.1,208.7,111.1,208.7,111.1L208.7,111.1z
	 M229.3,111.9c0,0-0.1,0-0.1,0c-1.7-0.2-3.5-0.3-5.3-0.4c-0.7,0-1.3-0.7-1.2-1.4c0.1-0.7,0.7-1.3,1.4-1.2c1.8,0.1,3.6,0.3,5.3,0.4
	c0.7,0.1,1.3,0.7,1.2,1.5C230.6,111.4,230,111.9,229.3,111.9L229.3,111.9z M193.5,112.2c-0.7,0-1.2-0.5-1.3-1.2
	c-0.1-0.7,0.4-1.4,1.2-1.5c1.8-0.2,3.5-0.4,5.3-0.5c0.7-0.1,1.4,0.5,1.4,1.2c0.1,0.7-0.5,1.4-1.2,1.4c-1.8,0.1-3.5,0.3-5.2,0.5
	C193.6,112.2,193.5,112.2,193.5,112.2L193.5,112.2z M244.4,114.2c-0.1,0-0.2,0-0.3,0c-1.7-0.3-3.5-0.6-5.2-0.9
	c-0.7-0.1-1.2-0.8-1.1-1.5c0.1-0.7,0.8-1.2,1.5-1.1c1.8,0.3,3.5,0.6,5.3,0.9c0.7,0.1,1.2,0.8,1,1.6
	C245.6,113.7,245,114.2,244.4,114.2L244.4,114.2z M178.4,114.7c-0.6,0-1.2-0.4-1.3-1c-0.2-0.7,0.3-1.4,1-1.6c1.7-0.4,3.5-0.7,5.3-1
	c0.7-0.1,1.4,0.3,1.5,1.1c0.1,0.7-0.3,1.4-1.1,1.5c-1.7,0.3-3.5,0.7-5.2,1C178.6,114.7,178.5,114.7,178.4,114.7L178.4,114.7z
	 M259.3,117.8c-0.1,0-0.3,0-0.4-0.1c-1.7-0.5-3.4-1-5.1-1.4c-0.7-0.2-1.1-0.9-0.9-1.6c0.2-0.7,0.9-1.1,1.6-0.9
	c1.7,0.5,3.5,0.9,5.2,1.4c0.7,0.2,1.1,0.9,0.9,1.6C260.4,117.4,259.8,117.8,259.3,117.8L259.3,117.8z M163.6,118.6
	c-0.6,0-1.1-0.4-1.3-0.9c-0.2-0.7,0.2-1.4,0.9-1.7c1.7-0.5,3.4-1,5.1-1.5c0.7-0.2,1.4,0.2,1.6,0.9c0.2,0.7-0.2,1.4-0.9,1.6
	c-1.7,0.5-3.4,1-5.1,1.5C163.9,118.6,163.7,118.6,163.6,118.6L163.6,118.6z M273.7,122.9c-0.2,0-0.3,0-0.5-0.1
	c-1.6-0.7-3.3-1.3-4.9-1.9c-0.7-0.3-1-1-0.8-1.7c0.3-0.7,1-1,1.7-0.8c1.7,0.6,3.4,1.3,5,1.9c0.7,0.3,1,1,0.7,1.7
	C274.7,122.5,274.2,122.9,273.7,122.9L273.7,122.9z M149.3,123.9c-0.5,0-1-0.3-1.2-0.8c-0.3-0.7,0-1.5,0.7-1.7c1.6-0.7,3.3-1.4,5-2
	c0.7-0.3,1.5,0.1,1.7,0.8c0.3,0.7-0.1,1.5-0.8,1.7c-1.6,0.6-3.3,1.3-4.9,2C149.6,123.9,149.4,123.9,149.3,123.9L149.3,123.9z
	 M287.6,129.2c-0.2,0-0.4,0-0.6-0.1c-1.6-0.8-3.1-1.6-4.7-2.4c-0.7-0.3-0.9-1.1-0.6-1.8c0.3-0.7,1.1-0.9,1.8-0.6
	c1.6,0.8,3.2,1.6,4.8,2.4c0.7,0.3,0.9,1.1,0.6,1.8C288.6,129,288.1,129.2,287.6,129.2L287.6,129.2z M135.5,130.5
	c-0.5,0-0.9-0.3-1.2-0.7c-0.3-0.6-0.1-1.4,0.5-1.8c1.6-0.8,3.2-1.7,4.8-2.5c0.7-0.3,1.5-0.1,1.8,0.6c0.3,0.7,0.1,1.5-0.6,1.8
	c-1.6,0.8-3.1,1.6-4.7,2.4C135.9,130.5,135.7,130.5,135.5,130.5L135.5,130.5z M300.9,136.9c-0.2,0-0.5-0.1-0.7-0.2
	c-1.5-1-3-1.9-4.5-2.8c-0.6-0.4-0.8-1.2-0.5-1.8c0.4-0.6,1.2-0.8,1.8-0.5c1.5,0.9,3.1,1.9,4.6,2.8c0.6,0.4,0.8,1.2,0.4,1.8
	C301.8,136.7,301.3,136.9,300.9,136.9L300.9,136.9z M122.4,138.4c-0.4,0-0.9-0.2-1.1-0.6c-0.4-0.6-0.2-1.4,0.4-1.8
	c1.5-1,3-2,4.5-2.9c0.6-0.4,1.4-0.2,1.8,0.4c0.4,0.6,0.2,1.4-0.4,1.8c-1.5,0.9-3,1.9-4.4,2.9C122.9,138.3,122.7,138.4,122.4,138.4
	L122.4,138.4z M313.4,145.8c-0.3,0-0.6-0.1-0.8-0.3c-1.4-1.1-2.8-2.1-4.2-3.2c-0.6-0.4-0.7-1.3-0.3-1.9c0.4-0.6,1.3-0.7,1.9-0.3
	c1.4,1.1,2.9,2.1,4.3,3.2c0.6,0.5,0.7,1.3,0.2,1.9C314.1,145.6,313.8,145.8,313.4,145.8L313.4,145.8z M110.1,147.5
	c-0.4,0-0.8-0.2-1-0.5c-0.5-0.6-0.4-1.4,0.2-1.9c1.4-1.1,2.8-2.2,4.2-3.3c0.6-0.4,1.4-0.3,1.9,0.3c0.4,0.6,0.3,1.4-0.3,1.9
	c-1.4,1.1-2.8,2.1-4.1,3.3C110.7,147.4,110.4,147.5,110.1,147.5L110.1,147.5z M324.9,155.8c-0.3,0-0.7-0.1-0.9-0.4
	c-1.3-1.2-2.6-2.4-3.9-3.6c-0.5-0.5-0.6-1.3-0.1-1.9c0.5-0.5,1.3-0.6,1.9-0.1c1.3,1.2,2.7,2.4,4,3.6c0.5,0.5,0.6,1.3,0.1,1.9
	C325.7,155.6,325.3,155.8,324.9,155.8L324.9,155.8z M98.7,157.6c-0.3,0-0.7-0.1-0.9-0.4c-0.5-0.5-0.5-1.4,0-1.9
	c1.3-1.3,2.6-2.5,3.9-3.7c0.5-0.5,1.4-0.5,1.9,0.1c0.5,0.5,0.5,1.4-0.1,1.9c-1.3,1.2-2.6,2.4-3.8,3.6
	C99.4,157.5,99,157.6,98.7,157.6L98.7,157.6z M335.6,166.8c-0.4,0-0.7-0.2-1-0.5c-1.2-1.3-2.3-2.6-3.5-3.9c-0.5-0.5-0.5-1.4,0.1-1.9
	c0.5-0.5,1.4-0.5,1.9,0.1c1.2,1.3,2.4,2.6,3.6,4c0.5,0.5,0.4,1.4-0.1,1.9C336.2,166.7,335.9,166.8,335.6,166.8L335.6,166.8z
	 M88.3,168.8c-0.3,0-0.6-0.1-0.9-0.3c-0.6-0.5-0.6-1.3-0.2-1.9c1.2-1.4,2.3-2.7,3.5-4c0.5-0.5,1.3-0.6,1.9-0.1
	c0.5,0.5,0.6,1.3,0.1,1.9c-1.2,1.3-2.3,2.6-3.5,4C89,168.7,88.7,168.8,88.3,168.8L88.3,168.8z M345.1,178.7c-0.4,0-0.8-0.2-1.1-0.5
	c-1-1.4-2.1-2.8-3.2-4.2c-0.4-0.6-0.3-1.4,0.2-1.9c0.6-0.4,1.4-0.3,1.9,0.2c1.1,1.4,2.2,2.8,3.2,4.3c0.4,0.6,0.3,1.4-0.3,1.9
	C345.6,178.6,345.3,178.7,345.1,178.7L345.1,178.7z M78.9,180.9c-0.3,0-0.5-0.1-0.8-0.2c-0.6-0.4-0.7-1.2-0.3-1.8
	c1-1.5,2.1-2.9,3.1-4.3c0.4-0.6,1.3-0.7,1.9-0.3c0.6,0.4,0.7,1.3,0.3,1.9c-1.1,1.4-2.1,2.8-3.1,4.3
	C79.8,180.7,79.4,180.9,78.9,180.9L78.9,180.9z M353.4,191.5c-0.5,0-0.9-0.2-1.1-0.7c-0.9-1.5-1.8-3-2.8-4.5
	c-0.4-0.6-0.2-1.4,0.4-1.8c0.6-0.4,1.4-0.2,1.8,0.4c1,1.5,1.9,3,2.8,4.6c0.4,0.6,0.2,1.4-0.5,1.8
	C353.9,191.5,353.7,191.5,353.4,191.5L353.4,191.5z M70.8,193.9c-0.2,0-0.4-0.1-0.7-0.2c-0.6-0.4-0.9-1.2-0.5-1.8
	c0.9-1.6,1.8-3.1,2.7-4.6c0.4-0.6,1.2-0.8,1.8-0.4c0.6,0.4,0.8,1.2,0.4,1.8c-0.9,1.5-1.8,3-2.7,4.6
	C71.7,193.6,71.2,193.9,70.8,193.9L70.8,193.9z M360.6,205c-0.5,0-1-0.3-1.2-0.8c-0.7-1.6-1.5-3.2-2.3-4.7c-0.3-0.7-0.1-1.5,0.6-1.8
	c0.7-0.3,1.4-0.1,1.8,0.6c0.8,1.6,1.6,3.2,2.4,4.8c0.3,0.7,0,1.5-0.6,1.8C360.9,205,360.8,205,360.6,205L360.6,205z M63.9,207.6
	c-0.2,0-0.4,0-0.5-0.1c-0.7-0.3-1-1.1-0.7-1.8c0.7-1.6,1.5-3.3,2.3-4.9c0.3-0.7,1.1-0.9,1.8-0.6c0.7,0.3,0.9,1.1,0.6,1.8
	c-0.8,1.6-1.5,3.2-2.2,4.8C64.9,207.3,64.4,207.6,63.9,207.6L63.9,207.6z M366.4,219.1c-0.5,0-1.1-0.3-1.2-0.9
	c-0.6-1.7-1.2-3.3-1.9-4.9c-0.3-0.7,0.1-1.5,0.7-1.7c0.7-0.3,1.5,0.1,1.7,0.7c0.7,1.7,1.3,3.4,1.9,5c0.2,0.7-0.1,1.4-0.8,1.7
	C366.7,219.1,366.5,219.1,366.4,219.1L366.4,219.1z M58.3,221.8c-0.1,0-0.3,0-0.4-0.1c-0.7-0.2-1.1-1-0.8-1.7
	c0.6-1.7,1.2-3.4,1.8-5.1c0.3-0.7,1-1,1.7-0.8c0.7,0.3,1,1,0.8,1.7c-0.6,1.6-1.2,3.3-1.8,5C59.3,221.5,58.8,221.8,58.3,221.8
	L58.3,221.8z M370.9,233.7c-0.6,0-1.1-0.4-1.3-1c-0.4-1.7-0.9-3.4-1.4-5.1c-0.2-0.7,0.2-1.4,0.9-1.6c0.7-0.2,1.4,0.2,1.6,0.9
	c0.5,1.7,1,3.4,1.4,5.2c0.2,0.7-0.2,1.4-1,1.6C371.1,233.7,371,233.7,370.9,233.7L370.9,233.7z M54,236.5c-0.1,0-0.2,0-0.3,0
	c-0.7-0.2-1.2-0.9-1-1.6c0.4-1.7,0.9-3.5,1.3-5.2c0.2-0.7,0.9-1.1,1.6-0.9c0.7,0.2,1.1,0.9,0.9,1.6c-0.5,1.7-0.9,3.4-1.3,5.1
	C55.2,236.1,54.6,236.5,54,236.5L54,236.5z M374,248.7c-0.6,0-1.2-0.5-1.3-1.1c-0.3-1.7-0.6-3.5-0.9-5.2c-0.1-0.7,0.3-1.4,1.1-1.6
	c0.7-0.1,1.4,0.3,1.6,1.1c0.3,1.8,0.6,3.5,0.9,5.3c0.1,0.7-0.4,1.4-1.1,1.5C374.1,248.7,374,248.7,374,248.7L374,248.7z M51.2,251.5
	c-0.1,0-0.1,0-0.2,0c-0.7-0.1-1.2-0.8-1.1-1.5c0.2-1.8,0.5-3.5,0.8-5.3c0.1-0.7,0.8-1.2,1.5-1.1c0.7,0.1,1.2,0.8,1.1,1.5
	c-0.3,1.7-0.6,3.5-0.8,5.2C52.4,251.1,51.9,251.5,51.2,251.5L51.2,251.5z M375.6,263.9c-0.7,0-1.3-0.5-1.3-1.2
	c-0.1-1.8-0.2-3.5-0.4-5.3c-0.1-0.7,0.5-1.4,1.2-1.4c0.7-0.1,1.4,0.5,1.4,1.2c0.2,1.8,0.3,3.6,0.4,5.3
	C377,263.2,376.4,263.9,375.6,263.9C375.7,263.9,375.6,263.9,375.6,263.9L375.6,263.9z M49.8,266.8
	C49.8,266.8,49.8,266.8,49.8,266.8c-0.8,0-1.4-0.7-1.3-1.4c0.1-1.8,0.2-3.6,0.3-5.4c0.1-0.7,0.7-1.3,1.4-1.2
	c0.7,0.1,1.3,0.7,1.2,1.4c-0.1,1.7-0.2,3.5-0.3,5.3C51.1,266.2,50.5,266.8,49.8,266.8L49.8,266.8z M375.9,279.6
	C375.8,279.6,375.8,279.6,375.9,279.6c-0.8,0-1.4-0.6-1.3-1.4c0.1-1.8,0.1-3.5,0.1-5.3v-0.3c0-0.7,0.6-1.3,1.3-1.3
	c0.7,0,1.3,0.6,1.3,1.3v0.3c0,1.8,0,3.6-0.1,5.4C377.2,279,376.6,279.6,375.9,279.6L375.9,279.6z M49.8,282.1
	c-0.7,0-1.3-0.6-1.3-1.3c-0.1-1.8-0.1-3.6-0.2-5.4c0-0.7,0.6-1.3,1.3-1.3c0.8,0,1.3,0.6,1.3,1.3c0,1.8,0.1,3.5,0.2,5.3
	C51.2,281.4,50.6,282,49.8,282.1C49.9,282.1,49.9,282.1,49.8,282.1L49.8,282.1z M374.7,294.8c-0.1,0-0.1,0-0.2,0
	c-0.7-0.1-1.2-0.8-1.2-1.5c0.2-1.7,0.4-3.5,0.6-5.2c0.1-0.7,0.7-1.3,1.4-1.2c0.7,0.1,1.3,0.7,1.2,1.4c-0.2,1.8-0.4,3.6-0.6,5.3
	C375.9,294.3,375.3,294.8,374.7,294.8L374.7,294.8z M51.3,297.3c-0.7,0-1.2-0.5-1.3-1.1c-0.2-1.8-0.5-3.5-0.7-5.3
	c-0.1-0.7,0.4-1.4,1.2-1.5c0.7-0.1,1.4,0.4,1.5,1.2c0.2,1.8,0.4,3.5,0.7,5.2c0.1,0.7-0.4,1.4-1.1,1.5
	C51.4,297.3,51.3,297.3,51.3,297.3L51.3,297.3z M372,309.9c-0.1,0-0.2,0-0.3,0c-0.7-0.2-1.2-0.9-1-1.6c0.4-1.7,0.7-3.4,1.1-5.2
	c0.1-0.7,0.8-1.2,1.5-1.1c0.7,0.1,1.2,0.8,1.1,1.5c-0.3,1.8-0.7,3.5-1.1,5.3C373.2,309.4,372.6,309.9,372,309.9L372,309.9z
	 M54.1,312.3c-0.6,0-1.1-0.4-1.3-1c-0.4-1.7-0.8-3.5-1.2-5.2c-0.1-0.7,0.3-1.4,1-1.6c0.7-0.1,1.4,0.3,1.6,1c0.4,1.7,0.7,3.4,1.1,5.2
	c0.2,0.7-0.3,1.4-1,1.6C54.3,312.3,54.2,312.3,54.1,312.3L54.1,312.3z M368,324.6c-0.1,0-0.3,0-0.4-0.1c-0.7-0.2-1.1-1-0.9-1.7
	c0.5-1.7,1.1-3.4,1.5-5c0.2-0.7,0.9-1.1,1.6-0.9c0.7,0.2,1.1,0.9,0.9,1.6c-0.5,1.7-1,3.4-1.6,5.1C369.1,324.3,368.6,324.6,368,324.6
	L368,324.6z M58.4,327c-0.6,0-1.1-0.3-1.3-0.9c-0.6-1.7-1.1-3.4-1.6-5.1c-0.2-0.7,0.2-1.4,0.9-1.7c0.7-0.2,1.4,0.2,1.7,0.9
	c0.5,1.7,1.1,3.4,1.6,5c0.2,0.7-0.1,1.4-0.8,1.7C58.7,327,58.5,327,58.4,327L58.4,327z M362.6,338.9c-0.2,0-0.4,0-0.5-0.1
	c-0.7-0.3-1-1.1-0.7-1.7c0.7-1.6,1.4-3.2,2-4.9c0.3-0.7,1-1,1.7-0.7c0.7,0.3,1,1,0.7,1.7c-0.7,1.7-1.4,3.4-2.1,5
	C363.6,338.7,363.1,338.9,362.6,338.9L362.6,338.9z M64,341.2c-0.5,0-1-0.3-1.2-0.8c-0.7-1.6-1.4-3.3-2.1-4.9
	c-0.3-0.7,0-1.5,0.7-1.7c0.7-0.3,1.5,0,1.7,0.7c0.7,1.6,1.4,3.2,2.1,4.8c0.3,0.7,0,1.5-0.7,1.8C64.3,341.1,64.2,341.2,64,341.2
	L64,341.2z M355.9,352.7c-0.2,0-0.4-0.1-0.6-0.2c-0.6-0.4-0.9-1.2-0.5-1.8c0.8-1.5,1.7-3.1,2.5-4.7c0.3-0.7,1.1-0.9,1.8-0.6
	c0.7,0.3,0.9,1.1,0.6,1.8c-0.8,1.6-1.6,3.2-2.5,4.7C356.8,352.5,356.3,352.7,355.9,352.7L355.9,352.7z M70.9,354.8
	c-0.5,0-0.9-0.2-1.2-0.7c-0.9-1.5-1.7-3.1-2.6-4.7c-0.3-0.6-0.1-1.4,0.6-1.8c0.6-0.3,1.5-0.1,1.8,0.6c0.8,1.6,1.7,3.1,2.5,4.6
	c0.4,0.6,0.1,1.4-0.5,1.8C71.3,354.7,71.1,354.8,70.9,354.8L70.9,354.8z M347.9,365.8c-0.3,0-0.5-0.1-0.7-0.2
	c-0.6-0.4-0.8-1.2-0.4-1.8c1-1.5,2-2.9,2.9-4.4c0.4-0.6,1.2-0.8,1.8-0.4c0.6,0.4,0.8,1.2,0.4,1.8c-1,1.5-1.9,3-2.9,4.5
	C348.7,365.5,348.3,365.8,347.9,365.8L347.9,365.8z M79.1,367.7c-0.4,0-0.8-0.2-1.1-0.6c-1-1.5-2-2.9-3-4.4
	c-0.4-0.6-0.2-1.4,0.4-1.8c0.6-0.4,1.4-0.2,1.8,0.4c1,1.5,1.9,2.9,3,4.4c0.4,0.6,0.3,1.4-0.3,1.8C79.6,367.6,79.3,367.7,79.1,367.7
	L79.1,367.7z M338.7,378c-0.3,0-0.6-0.1-0.8-0.3c-0.6-0.5-0.6-1.3-0.2-1.9c1.1-1.4,2.2-2.7,3.3-4.1c0.4-0.6,1.3-0.7,1.9-0.2
	c0.6,0.4,0.7,1.3,0.2,1.9c-1.1,1.4-2.2,2.8-3.3,4.2C339.5,377.8,339.1,378,338.7,378L338.7,378z M88.4,379.8c-0.4,0-0.7-0.2-1-0.5
	c-1.2-1.4-2.3-2.7-3.4-4.1c-0.5-0.6-0.4-1.4,0.2-1.9c0.6-0.5,1.4-0.4,1.9,0.2c1.1,1.4,2.2,2.7,3.3,4.1c0.5,0.6,0.4,1.4-0.2,1.9
	C89,379.7,88.7,379.8,88.4,379.8L88.4,379.8z M328.4,389.3c-0.3,0-0.7-0.1-0.9-0.4c-0.5-0.5-0.5-1.4,0-1.9c1.2-1.2,2.5-2.5,3.7-3.8
	c0.5-0.5,1.3-0.6,1.9-0.1c0.5,0.5,0.6,1.3,0.1,1.9c-1.2,1.3-2.5,2.6-3.7,3.9C329.1,389.2,328.8,389.3,328.4,389.3L328.4,389.3z
	 M98.8,391c-0.3,0-0.7-0.1-0.9-0.4c-1.3-1.2-2.6-2.5-3.8-3.8c-0.5-0.5-0.5-1.4,0-1.9c0.5-0.5,1.4-0.5,1.9,0c1.2,1.3,2.5,2.5,3.7,3.7
	c0.5,0.5,0.5,1.4,0,1.9C99.5,390.8,99.2,391,98.8,391L98.8,391z M317.1,399.6c-0.4,0-0.8-0.2-1-0.5c-0.5-0.6-0.4-1.4,0.2-1.9
	c1.4-1.1,2.7-2.3,4-3.4c0.5-0.5,1.4-0.4,1.9,0.1c0.5,0.5,0.4,1.4-0.1,1.9c-1.3,1.2-2.7,2.4-4.1,3.5
	C317.8,399.5,317.4,399.6,317.1,399.6L317.1,399.6z M110.3,401.1c-0.3,0-0.6-0.1-0.8-0.3c-1.4-1.1-2.8-2.3-4.1-3.4
	c-0.6-0.5-0.6-1.3-0.1-1.9c0.5-0.6,1.3-0.6,1.9-0.1c1.3,1.2,2.7,2.3,4.1,3.4c0.6,0.5,0.7,1.3,0.2,1.9
	C111,401,110.6,401.1,110.3,401.1L110.3,401.1z M305,408.9c-0.4,0-0.8-0.2-1.1-0.6c-0.4-0.6-0.3-1.4,0.3-1.8c1.5-1,2.9-2,4.3-3.1
	c0.6-0.4,1.4-0.3,1.9,0.3c0.4,0.6,0.3,1.4-0.3,1.9c-1.4,1.1-2.9,2.1-4.4,3.1C305.5,408.8,305.2,408.9,305,408.9L305,408.9z
	 M122.6,410.2c-0.3,0-0.5-0.1-0.7-0.2c-1.5-1-3-2-4.4-3c-0.6-0.4-0.7-1.3-0.3-1.9c0.4-0.6,1.3-0.7,1.9-0.3c1.4,1,2.9,2,4.4,3
	c0.6,0.4,0.8,1.2,0.4,1.8C123.4,410,123,410.2,122.6,410.2L122.6,410.2z M292,416.9c-0.5,0-0.9-0.2-1.2-0.7
	c-0.4-0.6-0.1-1.4,0.5-1.8c1.5-0.9,3.1-1.7,4.6-2.6c0.6-0.4,1.4-0.2,1.8,0.5c0.4,0.6,0.2,1.4-0.5,1.8c-1.5,0.9-3.1,1.8-4.6,2.7
	C292.4,416.9,292.2,416.9,292,416.9L292,416.9z M135.7,418.1c-0.2,0-0.4-0.1-0.6-0.2c-1.6-0.8-3.1-1.7-4.7-2.6
	c-0.6-0.4-0.9-1.2-0.5-1.8c0.4-0.6,1.2-0.8,1.8-0.5c1.5,0.9,3.1,1.8,4.6,2.6c0.6,0.3,0.9,1.2,0.5,1.8
	C136.7,417.8,136.2,418.1,135.7,418.1L135.7,418.1z M278.3,423.7c-0.5,0-1-0.3-1.2-0.8c-0.3-0.7,0-1.5,0.7-1.7
	c1.6-0.7,3.2-1.4,4.8-2.2c0.7-0.3,1.5,0,1.8,0.6c0.3,0.7,0,1.5-0.6,1.8c-1.6,0.8-3.2,1.5-4.9,2.2
	C278.7,423.7,278.5,423.7,278.3,423.7L278.3,423.7z M149.5,424.7c-0.2,0-0.3,0-0.5-0.1c-1.7-0.7-3.3-1.4-4.9-2.2
	c-0.7-0.3-1-1.1-0.6-1.8c0.3-0.7,1.1-1,1.8-0.6c1.6,0.7,3.2,1.4,4.8,2.1c0.7,0.3,1,1.1,0.7,1.7C150.6,424.4,150.1,424.7,149.5,424.7
	L149.5,424.7z M264,429.2c-0.6,0-1.1-0.4-1.3-0.9c-0.2-0.7,0.1-1.4,0.8-1.7c1.7-0.6,3.3-1.1,5-1.7c0.7-0.3,1.4,0.1,1.7,0.8
	c0.3,0.7-0.1,1.4-0.8,1.7c-1.7,0.6-3.4,1.2-5.1,1.8C264.3,429.1,264.2,429.2,264,429.2L264,429.2z M163.9,429.9
	c-0.1,0-0.3,0-0.4-0.1c-1.7-0.5-3.4-1.1-5.1-1.7c-0.7-0.2-1.1-1-0.8-1.7c0.2-0.7,1-1.1,1.7-0.8c1.7,0.6,3.3,1.1,5,1.7
	c0.7,0.2,1.1,1,0.9,1.7C165,429.6,164.5,429.9,163.9,429.9L163.9,429.9z M249.3,433.3c-0.6,0-1.1-0.4-1.3-1c-0.2-0.7,0.3-1.4,1-1.6
	c1.7-0.4,3.4-0.8,5.1-1.3c0.7-0.2,1.4,0.2,1.6,0.9c0.2,0.7-0.2,1.4-0.9,1.6c-1.7,0.5-3.5,0.9-5.2,1.3
	C249.5,433.3,249.4,433.3,249.3,433.3L249.3,433.3z M178.7,433.8c-0.1,0-0.2,0-0.3,0c-1.7-0.4-3.5-0.8-5.2-1.2
	c-0.7-0.2-1.1-0.9-1-1.6c0.2-0.7,0.9-1.1,1.6-1c1.7,0.4,3.4,0.8,5.1,1.2c0.7,0.2,1.2,0.9,1,1.6C179.9,433.4,179.3,433.8,178.7,433.8
	L178.7,433.8z M234.3,436c-0.7,0-1.2-0.5-1.3-1.2c-0.1-0.7,0.4-1.4,1.1-1.5c1.8-0.2,3.5-0.5,5.2-0.8c0.7-0.1,1.4,0.4,1.5,1.1
	c0.1,0.7-0.4,1.4-1.1,1.5c-1.8,0.3-3.5,0.6-5.3,0.8C234.4,436,234.3,436,234.3,436L234.3,436z M193.8,436.3c-0.1,0-0.1,0-0.2,0
	c-1.8-0.2-3.6-0.4-5.3-0.7c-0.7-0.1-1.2-0.8-1.1-1.5c0.1-0.7,0.8-1.2,1.5-1.1c1.7,0.3,3.5,0.5,5.2,0.7c0.7,0.1,1.2,0.7,1.2,1.5
	C195.1,435.8,194.5,436.3,193.8,436.3L193.8,436.3z M219,437.3c-0.7,0-1.3-0.6-1.3-1.3c0-0.7,0.5-1.3,1.3-1.4
	c1.8-0.1,3.5-0.2,5.3-0.3c0.7,0,1.4,0.5,1.4,1.2c0.1,0.7-0.5,1.4-1.2,1.4C222.7,437.1,220.9,437.2,219,437.3
	C219.1,437.3,219.1,437.3,219,437.3L219,437.3z M209.1,437.3C209.1,437.3,209,437.3,209.1,437.3c-1.8,0-3.6-0.1-5.4-0.2
	c-0.7,0-1.3-0.7-1.3-1.4c0-0.7,0.7-1.3,1.4-1.3c1.7,0.1,3.5,0.2,5.3,0.2c0.7,0,1.3,0.6,1.3,1.4C210.4,436.8,209.8,437.3,209.1,437.3
	L209.1,437.3z"/>
	</g>
<g>
	<path class="st0" d="M354.5,545.8H69.8c-3.2,0-6.5-1.6-6.8-6.2v-4.3l31.2-57.6c1.7-3.4,5.1-5.5,8.9-5.5h217.9c4.1,0,13,8,14.8,11.6
		l25.7,52.4v1.9C361.5,543.6,358,545.8,354.5,545.8L354.5,545.8z"/>
	<path class="st1" d="M354.5,539.8H69.8c-3.2,0-8.4-2.8-6.4-6.2l30.7-61.9c1.7-3.4,5.1-5.5,8.9-5.5h217.9c4.1,0,7.8,2.3,9.6,5.9
		l30.4,60.9C363.1,536.9,358,539.8,354.5,539.8L354.5,539.8z"/>
	<path class="st0" d="M315.5,460.1H105.8c-6.5,0-11.7-5.2-11.7-11.7V324.5c0-6.5,5.2-11.7,11.7-11.7h209.7c6.5,0,11.7,5.2,11.7,11.7
		l0,123.9C327.3,454.9,322,460.1,315.5,460.1L315.5,460.1z"/>
	<polygon class="st2" points="318.2,448.5 103.1,448.5 103.1,320.8 318.2,320.8 318.2,448.5 	"/>
	<path class="st0" d="M115.7,479.5h-9.1c-1.3,0-2.1-0.4-2-0.8l0.6-1.4c0.2-0.5,1.4-0.8,2.6-0.8h9c1.3,0,2.1,0.4,2,0.8l-0.5,1.4
		C118.1,479.1,117,479.5,115.7,479.5L115.7,479.5z"/>
	<path class="st0" d="M131,479.5h-9.1c-1.3,0-2.2-0.4-2-0.8l0.5-1.4c0.2-0.5,1.3-0.8,2.6-0.8h9c1.3,0,2.2,0.4,2,0.8l-0.4,1.4
		C133.5,479.1,132.3,479.5,131,479.5L131,479.5z"/>
	<path class="st0" d="M146.4,479.5h-9.1c-1.3,0-2.2-0.4-2.1-0.8l0.4-1.4c0.1-0.5,1.3-0.8,2.5-0.8h9c1.3,0,2.2,0.4,2.1,0.8l-0.3,1.4
		C148.8,479.1,147.7,479.5,146.4,479.5L146.4,479.5z"/>
	<path class="st0" d="M161.7,479.5h-9.1c-1.3,0-2.2-0.4-2.1-0.8l0.3-1.4c0.1-0.5,1.2-0.8,2.5-0.8h9c1.3,0,2.2,0.4,2.1,0.8l-0.2,1.4
		C164.1,479.1,163,479.5,161.7,479.5L161.7,479.5z"/>
	<path class="st0" d="M177.1,479.5H168c-1.3,0-2.2-0.4-2.2-0.8l0.2-1.4c0.1-0.5,1.2-0.8,2.4-0.8h9c1.3,0,2.2,0.4,2.2,0.8l-0.2,1.4
		C179.4,479.1,178.4,479.5,177.1,479.5L177.1,479.5z"/>
	<path class="st0" d="M192.5,479.5h-9.1c-1.3,0-2.3-0.4-2.2-0.8l0.2-1.4c0.1-0.5,1.1-0.8,2.4-0.8h9c1.3,0,2.2,0.4,2.2,0.8l-0.1,1.4
		C194.8,479.1,193.7,479.5,192.5,479.5L192.5,479.5z"/>
	<path class="st0" d="M207.8,479.5h-9.1c-1.3,0-2.3-0.4-2.3-0.8l0.1-1.4c0-0.5,1.1-0.8,2.3-0.8h9c1.3,0,2.3,0.4,2.3,0.8l0,1.4
		C210.1,479.1,209.1,479.5,207.8,479.5L207.8,479.5z"/>
	<path class="st0" d="M223.2,479.5H214c-1.3,0-2.3-0.4-2.3-0.8l0-1.4c0-0.5,1-0.8,2.3-0.8h9c1.3,0,2.3,0.4,2.3,0.8l0.1,1.4
		C225.4,479.1,224.4,479.5,223.2,479.5L223.2,479.5z"/>
	<path class="st0" d="M238.5,479.5h-9.1c-1.3,0-2.3-0.4-2.4-0.8l-0.1-1.4c0-0.5,1-0.8,2.2-0.8h9c1.3,0,2.3,0.4,2.4,0.8l0.2,1.4
		C240.8,479.1,239.8,479.5,238.5,479.5L238.5,479.5z"/>
	<path class="st0" d="M253.9,479.5h-9.1c-1.3,0-2.3-0.4-2.4-0.8l-0.2-1.4c-0.1-0.5,0.9-0.8,2.2-0.8h9c1.3,0,2.3,0.4,2.4,0.8l0.2,1.4
		C256.1,479.1,255.1,479.5,253.9,479.5L253.9,479.5z"/>
	<path class="st0" d="M269.2,479.5h-9.1c-1.3,0-2.4-0.4-2.5-0.8l-0.2-1.4c-0.1-0.5,0.9-0.8,2.1-0.8h9c1.3,0,2.4,0.4,2.5,0.8l0.3,1.4
		C271.4,479.1,270.5,479.5,269.2,479.5L269.2,479.5z"/>
	<path class="st0" d="M284.6,479.5h-9.1c-1.3,0-2.4-0.4-2.5-0.8l-0.3-1.4c-0.1-0.5,0.8-0.8,2.1-0.8h9c1.3,0,2.4,0.4,2.5,0.8l0.4,1.4
		C286.7,479.1,285.8,479.5,284.6,479.5L284.6,479.5z"/>
	<path class="st0" d="M299.9,479.5h-9.1c-1.3,0-2.4-0.4-2.5-0.8l-0.4-1.4c-0.1-0.5,0.8-0.8,2-0.8h9c1.3,0,2.4,0.4,2.6,0.8l0.5,1.4
		C302.1,479.1,301.2,479.5,299.9,479.5L299.9,479.5z"/>
	<path class="st0" d="M315.3,479.5h-9.1c-1.3,0-2.4-0.4-2.6-0.8l-0.5-1.4c-0.2-0.5,0.7-0.8,2-0.8h9c1.3,0,2.4,0.4,2.6,0.8l0.6,1.4
		C317.4,479.1,316.5,479.5,315.3,479.5L315.3,479.5z"/>
	<path class="st0" d="M114.9,484.5h-11.6c-0.3,0-0.5-0.1-0.4-0.2l1.7-4.2c0-0.1,0.3-0.2,0.6-0.2h11.4c0.3,0,0.5,0.1,0.4,0.2
		l-1.5,4.2C115.4,484.5,115.1,484.5,114.9,484.5L114.9,484.5z"/>
	<path class="st0" d="M136.3,490.1h-11.9c-0.3,0-0.5-0.1-0.5-0.2l1.4-4.4c0-0.1,0.3-0.2,0.6-0.2h11.6c0.3,0,0.5,0.1,0.5,0.2
		l-1.2,4.4C136.9,490,136.6,490.1,136.3,490.1L136.3,490.1z"/>
	<path class="st0" d="M138.2,495.9h-12.1c-0.3,0-0.5-0.1-0.5-0.2l1.4-4.6c0-0.1,0.3-0.2,0.6-0.2h11.9c0.3,0,0.5,0.1,0.5,0.2
		l-1.2,4.6C138.8,495.8,138.5,495.9,138.2,495.9L138.2,495.9z"/>
	<path class="st0" d="M145.1,502h-12.4c-0.3,0-0.5-0.1-0.5-0.2l1.3-4.8c0-0.1,0.3-0.2,0.6-0.2h12.1c0.3,0,0.5,0.1,0.5,0.2l-1.1,4.8
		C145.6,501.9,145.4,502,145.1,502L145.1,502z"/>
	<path class="st0" d="M106,509.1H93.4c-0.3,0-0.6-0.1-0.5-0.2l2.3-5.7c0.1-0.1,0.4-0.2,0.7-0.2h12.3c0.3,0,0.6,0.1,0.5,0.2l-2,5.7
		C106.7,508.9,106.3,509.1,106,509.1L106,509.1z"/>
	<path class="st0" d="M122.9,509.1h-12.6c-0.3,0-0.6-0.1-0.5-0.2l2-5.7c0-0.1,0.3-0.2,0.7-0.2h12.3c0.3,0,0.6,0.1,0.5,0.2l-1.7,5.7
		C123.5,508.9,123.2,509.1,122.9,509.1L122.9,509.1z"/>
	<path class="st0" d="M139.2,509.1h-12.6c-0.3,0-0.6-0.1-0.5-0.2l1.7-5.7c0-0.1,0.3-0.2,0.7-0.2h12.3c0.3,0,0.6,0.1,0.5,0.2
		l-1.4,5.7C139.8,508.9,139.5,509.1,139.2,509.1L139.2,509.1z"/>
	<path class="st0" d="M159.8,509.1h-16.6c-0.4,0-0.7-0.1-0.6-0.3l1.3-5.7c0-0.2,0.4-0.3,0.7-0.3h16.3c0.4,0,0.7,0.1,0.6,0.3l-1,5.7
		C160.5,508.9,160.2,509.1,159.8,509.1L159.8,509.1z"/>
	<path class="st0" d="M262.2,509.1h-16.6c-0.4,0-0.7-0.1-0.7-0.3l-0.7-5.7c0-0.2,0.3-0.3,0.6-0.3h16.3c0.4,0,0.7,0.1,0.7,0.3l1,5.7
		C262.9,508.9,262.6,509.1,262.2,509.1L262.2,509.1z"/>
	<path class="st0" d="M279,509.1h-12.4c-0.3,0-0.6-0.1-0.6-0.2l-1.1-5.7c0-0.1,0.2-0.2,0.5-0.2h12.2c0.3,0,0.6,0.1,0.6,0.2l1.4,5.7
		C279.6,508.9,279.4,509.1,279,509.1L279,509.1z"/>
	<path class="st0" d="M241.4,509.1h-76.8c-0.8,0-1.4-0.3-1.4-0.6l0.8-5c0.1-0.3,0.7-0.6,1.5-0.6h75.2c0.8,0,1.5,0.3,1.5,0.6l0.6,5
		C242.8,508.8,242.2,509.1,241.4,509.1L241.4,509.1z"/>
	<path class="st0" d="M161.1,502h-12.4c-0.3,0-0.5-0.1-0.5-0.2l1.1-4.8c0-0.1,0.3-0.2,0.6-0.2H162c0.3,0,0.5,0.1,0.5,0.2l-0.8,4.8
		C161.7,501.9,161.4,502,161.1,502L161.1,502z"/>
	<path class="st0" d="M177.2,502h-12.4c-0.3,0-0.5-0.1-0.5-0.2l0.8-4.8c0-0.1,0.3-0.2,0.6-0.2h12.1c0.3,0,0.5,0.1,0.5,0.2l-0.6,4.8
		C177.8,501.9,177.5,502,177.2,502L177.2,502z"/>
	<path class="st0" d="M193.3,502h-12.4c-0.3,0-0.5-0.1-0.5-0.2l0.5-4.8c0-0.1,0.3-0.2,0.6-0.2h12.1c0.3,0,0.5,0.1,0.5,0.2l-0.3,4.8
		C193.8,501.9,193.6,502,193.3,502L193.3,502z"/>
	<path class="st0" d="M209.4,502H197c-0.3,0-0.6-0.1-0.5-0.2l0.2-4.8c0-0.1,0.3-0.2,0.6-0.2h12.1c0.3,0,0.5,0.1,0.5,0.2l0,4.8
		C209.9,501.9,209.7,502,209.4,502L209.4,502z"/>
	<path class="st0" d="M225.4,502h-12.4c-0.3,0-0.6-0.1-0.6-0.2l0-4.8c0-0.1,0.2-0.2,0.5-0.2h12.1c0.3,0,0.6,0.1,0.6,0.2l0.3,4.8
		C226,501.9,225.7,502,225.4,502L225.4,502z"/>
	<path class="st0" d="M241.5,502h-12.4c-0.3,0-0.6-0.1-0.6-0.2l-0.3-4.8c0-0.1,0.2-0.2,0.5-0.2h12.1c0.3,0,0.6,0.1,0.6,0.2l0.5,4.8
		C242,501.9,241.8,502,241.5,502L241.5,502z"/>
	<path class="st0" d="M257.6,502h-12.4c-0.3,0-0.6-0.1-0.6-0.2L244,497c0-0.1,0.2-0.2,0.5-0.2h12.1c0.3,0,0.6,0.1,0.6,0.2l0.8,4.8
		C258.1,501.9,257.9,502,257.6,502L257.6,502z"/>
	<path class="st0" d="M273.7,502h-12.4c-0.3,0-0.6-0.1-0.6-0.2l-0.9-4.8c0-0.1,0.2-0.2,0.5-0.2h12.1c0.3,0,0.6,0.1,0.6,0.2l1.1,4.8
		C274.2,501.9,274,502,273.7,502L273.7,502z"/>
	<path class="st0" d="M293.9,509.2h-9.6c-1.2,0-2.3-0.4-2.4-0.9l-0.4-1.4c-0.1-0.5,0.8-0.9,2-0.9h9.5c1.2,0,2.3,0.4,2.5,0.9l0.4,1.4
		C296,508.7,295.2,509.2,293.9,509.2L293.9,509.2z"/>
	<path class="st0" d="M310.5,509.2h-9.6c-1.2,0-2.3-0.4-2.5-0.9l-0.4-1.4c-0.1-0.5,0.7-0.9,1.9-0.9h9.5c1.2,0,2.3,0.4,2.5,0.9
		l0.5,1.4C312.5,508.7,311.7,509.2,310.5,509.2L310.5,509.2z"/>
	<path class="st0" d="M309.2,505.5h-9.5c-1.2,0-2.3-0.4-2.5-0.9l-0.4-1.4c-0.1-0.5,0.7-0.9,1.9-0.9h9.4c1.2,0,2.3,0.4,2.5,0.9
		l0.5,1.4C311.3,505.1,310.4,505.5,309.2,505.5L309.2,505.5z"/>
	<path class="st0" d="M327,509.2h-9.6c-1.2,0-2.4-0.4-2.5-0.9l-0.5-1.4c-0.2-0.5,0.7-0.9,1.9-0.9h9.5c1.2,0,2.4,0.4,2.6,0.9l0.6,1.4
		C329.1,508.7,328.2,509.2,327,509.2L327,509.2z"/>
	<path class="st0" d="M154.1,495.9H142c-0.3,0-0.5-0.1-0.5-0.2l1.2-4.6c0-0.1,0.3-0.2,0.6-0.2h11.9c0.3,0,0.5,0.1,0.5,0.2l-0.9,4.6
		C154.7,495.8,154.4,495.9,154.1,495.9L154.1,495.9z"/>
	<path class="st0" d="M170,495.9h-12.1c-0.3,0-0.5-0.1-0.5-0.2l0.9-4.6c0-0.1,0.3-0.2,0.6-0.2h11.9c0.3,0,0.5,0.1,0.5,0.2l-0.7,4.6
		C170.6,495.8,170.3,495.9,170,495.9L170,495.9z"/>
	<path class="st0" d="M185.9,495.9h-12.1c-0.3,0-0.5-0.1-0.5-0.2l0.6-4.6c0-0.1,0.3-0.2,0.6-0.2h11.9c0.3,0,0.5,0.1,0.5,0.2
		l-0.4,4.6C186.4,495.8,186.2,495.9,185.9,495.9L185.9,495.9z"/>
	<path class="st0" d="M201.6,495.9h-12.1c-0.3,0-0.5-0.1-0.5-0.2l0.4-4.6c0-0.1,0.3-0.2,0.6-0.2h11.9c0.3,0,0.5,0.1,0.5,0.2
		l-0.1,4.6C202.2,495.8,201.9,495.9,201.6,495.9L201.6,495.9z"/>
	<path class="st0" d="M217.5,495.9h-12.1c-0.3,0-0.5-0.1-0.5-0.2l0.1-4.6c0-0.1,0.2-0.2,0.5-0.2h11.9c0.3,0,0.5,0.1,0.5,0.2l0.1,4.6
		C218.1,495.8,217.8,495.9,217.5,495.9L217.5,495.9z"/>
	<path class="st0" d="M232.7,495.9h-12.1c-0.3,0-0.5-0.1-0.6-0.2l-0.2-4.6c0-0.1,0.2-0.2,0.5-0.2h11.9c0.3,0,0.5,0.1,0.6,0.2
		l0.4,4.6C233.3,495.8,233,495.9,232.7,495.9L232.7,495.9z"/>
	<path class="st0" d="M248.4,495.9h-12.1c-0.3,0-0.6-0.1-0.6-0.2l-0.4-4.6c0-0.1,0.2-0.2,0.5-0.2h11.9c0.3,0,0.5,0.1,0.6,0.2
		l0.6,4.6C249,495.8,248.7,495.9,248.4,495.9L248.4,495.9z"/>
	<path class="st0" d="M264.2,495.9h-12.1c-0.3,0-0.6-0.1-0.6-0.2l-0.7-4.6c0-0.1,0.2-0.2,0.5-0.2h11.9c0.3,0,0.6,0.1,0.6,0.2
		l0.9,4.6C264.7,495.8,264.5,495.9,264.2,495.9L264.2,495.9z"/>
	<path class="st0" d="M279.8,495.9h-12.1c-0.3,0-0.6-0.1-0.6-0.2l-0.9-4.6c0-0.1,0.2-0.2,0.5-0.2h11.9c0.3,0,0.6,0.1,0.6,0.2
		l1.2,4.6C280.3,495.8,280.1,495.9,279.8,495.9L279.8,495.9z"/>
	<path class="st0" d="M295.4,495.9h-12.1c-0.3,0-0.6-0.1-0.6-0.2l-1.2-4.6c0-0.1,0.2-0.2,0.5-0.2h11.9c0.3,0,0.6,0.1,0.6,0.2
		l1.4,4.6C296,495.8,295.7,495.9,295.4,495.9L295.4,495.9z"/>
	<path class="st0" d="M289.6,502h-12.4c-0.3,0-0.6-0.1-0.6-0.2l-1.1-4.8c0-0.1,0.2-0.2,0.5-0.2h12.1c0.3,0,0.6,0.1,0.6,0.2l1.4,4.8
		C290.1,501.9,289.9,502,289.6,502L289.6,502z"/>
	<path class="st0" d="M323.1,495.9h-23.4c-0.4,0-0.8-0.1-0.8-0.3l-1.4-4.5c0-0.2,0.2-0.3,0.6-0.3h23c0.4,0,0.8,0.1,0.9,0.3l1.8,4.5
		C323.8,495.8,323.6,495.9,323.1,495.9L323.1,495.9z"/>
	<path class="st0" d="M325.5,502h-32c-0.5,0-0.9-0.2-1-0.4l-1.3-4.6c-0.1-0.2,0.3-0.3,0.8-0.3h31.5c0.5,0,0.9,0.1,1,0.3l1.9,4.6
		C326.3,501.8,326,502,325.5,502L325.5,502z"/>
	<path class="st0" d="M122.5,495.9H98.9c-0.4,0-0.7-0.1-0.6-0.3l1.8-4.5c0.1-0.2,0.4-0.3,0.9-0.3h23.2c0.4,0,0.7,0.1,0.7,0.3
		l-1.4,4.5C123.3,495.8,122.9,495.9,122.5,495.9L122.5,495.9z"/>
	<path class="st0" d="M128.8,502H96.3c-0.5,0-0.8-0.2-0.7-0.4l1.9-4.6c0.1-0.2,0.5-0.3,1-0.3h31.9c0.5,0,0.8,0.2,0.8,0.3l-1.3,4.6
		C129.7,501.8,129.3,502,128.8,502L128.8,502z"/>
	<path class="st0" d="M151.8,490.1h-11.9c-0.3,0-0.5-0.1-0.5-0.2l1.2-4.4c0-0.1,0.3-0.2,0.6-0.2h11.6c0.3,0,0.5,0.1,0.5,0.2
		l-0.9,4.4C152.3,490,152.1,490.1,151.8,490.1L151.8,490.1z"/>
	<path class="st0" d="M167.1,490.1h-11.9c-0.3,0-0.5-0.1-0.5-0.2l0.9-4.4c0-0.1,0.3-0.2,0.6-0.2h11.6c0.3,0,0.5,0.1,0.5,0.2
		l-0.7,4.4C167.7,490,167.4,490.1,167.1,490.1L167.1,490.1z"/>
	<path class="st0" d="M182.6,490.1h-11.9c-0.3,0-0.5-0.1-0.5-0.2l0.7-4.4c0-0.1,0.3-0.2,0.6-0.2h11.6c0.3,0,0.5,0.1,0.5,0.2
		l-0.4,4.4C183.1,490,182.9,490.1,182.6,490.1L182.6,490.1z"/>
	<path class="st0" d="M198.1,490.1h-11.9c-0.3,0-0.5-0.1-0.5-0.2l0.4-4.4c0-0.1,0.3-0.2,0.5-0.2h11.6c0.3,0,0.5,0.1,0.5,0.2
		l-0.2,4.4C198.6,490,198.4,490.1,198.1,490.1L198.1,490.1z"/>
	<path class="st0" d="M213.4,490.1h-11.9c-0.3,0-0.5-0.1-0.5-0.2l0.2-4.4c0-0.1,0.2-0.2,0.5-0.2h11.6c0.3,0,0.5,0.1,0.5,0.2l0.1,4.4
		C214,490,213.7,490.1,213.4,490.1L213.4,490.1z"/>
	<path class="st0" d="M228.4,490.1h-11.9c-0.3,0-0.5-0.1-0.5-0.2l-0.1-4.4c0-0.1,0.2-0.2,0.5-0.2h11.6c0.3,0,0.5,0.1,0.5,0.2
		l0.3,4.4C229,490,228.7,490.1,228.4,490.1L228.4,490.1z"/>
	<path class="st0" d="M244,490.1h-11.9c-0.3,0-0.5-0.1-0.6-0.2l-0.3-4.4c0-0.1,0.2-0.2,0.5-0.2h11.6c0.3,0,0.5,0.1,0.6,0.2l0.6,4.4
		C244.6,490,244.3,490.1,244,490.1L244,490.1z"/>
	<path class="st0" d="M259.4,490.1h-11.9c-0.3,0-0.5-0.1-0.6-0.2l-0.6-4.4c0-0.1,0.2-0.2,0.5-0.2h11.6c0.3,0,0.5,0.1,0.6,0.2
		l0.8,4.4C260,490,259.7,490.1,259.4,490.1L259.4,490.1z"/>
	<path class="st0" d="M274.6,490.1h-11.9c-0.3,0-0.6-0.1-0.6-0.2l-0.8-4.4c0-0.1,0.2-0.2,0.5-0.2h11.6c0.3,0,0.5,0.1,0.6,0.2
		l1.1,4.4C275.1,490,274.9,490.1,274.6,490.1L274.6,490.1z"/>
	<path class="st0" d="M290.4,490.1h-11.9c-0.3,0-0.6-0.1-0.6-0.2l-1.1-4.4c0-0.1,0.2-0.2,0.5-0.2h11.6c0.3,0,0.6,0.1,0.6,0.2
		l1.3,4.4C290.9,490,290.7,490.1,290.4,490.1L290.4,490.1z"/>
	<path class="st0" d="M305.4,490.1h-11.9c-0.3,0-0.6-0.1-0.6-0.2l-1.3-4.4c0-0.1,0.2-0.2,0.5-0.2h11.6c0.3,0,0.6,0.1,0.6,0.2
		l1.6,4.4C306,490,305.7,490.1,305.4,490.1L305.4,490.1z"/>
	<path class="st0" d="M321,490.1h-11.9c-0.3,0-0.6-0.1-0.6-0.2l-1.6-4.4c0-0.1,0.2-0.2,0.5-0.2H319c0.3,0,0.6,0.1,0.6,0.2l1.8,4.4
		C321.5,490,321.3,490.1,321,490.1L321,490.1z"/>
	<path class="st0" d="M130.2,484.5h-11.6c-0.3,0-0.5-0.1-0.5-0.2l1.5-4.2c0-0.1,0.3-0.2,0.6-0.2h11.4c0.3,0,0.5,0.1,0.5,0.2
		l-1.3,4.2C130.8,484.5,130.5,484.5,130.2,484.5L130.2,484.5z"/>
	<path class="st0" d="M145.1,484.5h-11.6c-0.3,0-0.5-0.1-0.5-0.2l1.2-4.2c0-0.1,0.3-0.2,0.6-0.2h11.4c0.3,0,0.5,0.1,0.5,0.2l-1,4.2
		C145.7,484.5,145.4,484.5,145.1,484.5L145.1,484.5z"/>
	<path class="st0" d="M160.4,484.5h-11.6c-0.3,0-0.5-0.1-0.5-0.2l1-4.2c0-0.1,0.3-0.2,0.6-0.2h11.4c0.3,0,0.5,0.1,0.5,0.2l-0.8,4.2
		C160.9,484.5,160.7,484.5,160.4,484.5L160.4,484.5z"/>
	<path class="st0" d="M175.3,484.5h-11.6c-0.3,0-0.5-0.1-0.5-0.2l0.8-4.2c0-0.1,0.3-0.2,0.5-0.2h11.4c0.3,0,0.5,0.1,0.5,0.2
		l-0.6,4.2C175.8,484.5,175.6,484.5,175.3,484.5L175.3,484.5z"/>
	<path class="st0" d="M190.6,484.5H179c-0.3,0-0.5-0.1-0.5-0.2l0.5-4.2c0-0.1,0.3-0.2,0.5-0.2H191c0.3,0,0.5,0.1,0.5,0.2l-0.3,4.2
		C191.2,484.5,190.9,484.5,190.6,484.5L190.6,484.5z"/>
	<path class="st0" d="M205.4,484.5h-11.6c-0.3,0-0.5-0.1-0.5-0.2l0.3-4.2c0-0.1,0.2-0.2,0.5-0.2h11.4c0.3,0,0.5,0.1,0.5,0.2
		l-0.1,4.2C205.9,484.5,205.7,484.5,205.4,484.5L205.4,484.5z"/>
	<path class="st0" d="M220.7,484.5h-11.6c-0.3,0-0.5-0.1-0.5-0.2l0-4.2c0-0.1,0.2-0.2,0.5-0.2h11.4c0.3,0,0.5,0.1,0.5,0.2l0.2,4.2
		C221.2,484.5,221,484.5,220.7,484.5L220.7,484.5z"/>
	<path class="st0" d="M235.6,484.5H224c-0.3,0-0.5-0.1-0.5-0.2l-0.2-4.2c0-0.1,0.2-0.2,0.5-0.2h11.4c0.3,0,0.5,0.1,0.5,0.2l0.4,4.2
		C236.1,484.5,235.9,484.5,235.6,484.5L235.6,484.5z"/>
	<path class="st0" d="M250.9,484.5h-11.6c-0.3,0-0.5-0.1-0.5-0.2l-0.5-4.2c0-0.1,0.2-0.2,0.5-0.2h11.4c0.3,0,0.5,0.1,0.5,0.2
		l0.7,4.2C251.4,484.5,251.2,484.5,250.9,484.5L250.9,484.5z"/>
	<path class="st0" d="M266.2,484.5h-11.6c-0.3,0-0.5-0.1-0.6-0.2l-0.7-4.2c0-0.1,0.2-0.2,0.5-0.2h11.4c0.3,0,0.5,0.1,0.6,0.2
		l0.9,4.2C266.7,484.5,266.5,484.5,266.2,484.5L266.2,484.5z"/>
	<path class="st0" d="M281.3,484.5h-11.6c-0.3,0-0.5-0.1-0.6-0.2l-0.9-4.2c0-0.1,0.2-0.2,0.5-0.2h11.4c0.3,0,0.5,0.1,0.6,0.2
		l1.1,4.2C281.8,484.5,281.6,484.5,281.3,484.5L281.3,484.5z"/>
	<path class="st0" d="M295.8,484.5h-11.6c-0.3,0-0.5-0.1-0.6-0.2l-1.2-4.2c0-0.1,0.2-0.2,0.5-0.2h11.4c0.3,0,0.5,0.1,0.6,0.2
		l1.4,4.2C296.3,484.5,296.1,484.5,295.8,484.5L295.8,484.5z"/>
	<path class="st0" d="M317.6,484.5h-17.4c-0.8,0-1.5-0.2-1.6-0.5l-1.2-3.6c-0.1-0.3,0.5-0.5,1.3-0.5h17.1c0.8,0,1.5,0.2,1.6,0.5
		l1.5,3.6C319,484.3,318.4,484.5,317.6,484.5L317.6,484.5z"/>
	<path class="st0" d="M119.7,490.1h-17.7c-0.8,0-1.4-0.3-1.3-0.6l1.5-3.7c0.1-0.3,0.9-0.5,1.7-0.5h17.4c0.8,0,1.4,0.2,1.3,0.5
		l-1.2,3.7C121.3,489.9,120.5,490.1,119.7,490.1L119.7,490.1z"/>
	<polygon class="st0" points="144.5,466.2 109.9,466.2 109.9,460.1 144.5,460.1 144.5,466.2 	"/>
	<polygon class="st0" points="311.1,466.2 276.5,466.2 276.5,460 311.1,460 311.1,466.2 	"/>
	<path class="st0" d="M255.1,535.3l-3.2-22.2c-0.2-1.1-1.1-1.8-2.1-1.8H174c-1.2,0-2.2,0.9-2.4,2.1l-3.5,22.1
		c-0.1,0.9,0.6,1.8,1.5,1.8h41.9v-13.5h2.2v13.5h39.9C254.4,537.1,255.2,536.3,255.1,535.3L255.1,535.3z"/>
	<path class="st3" d="M226.7,145.1c1.8-5.9,5.3-11.1,10-15.2c8.8-7.3,14.4-18.5,14.4-30.8c0-22.8-19-41.6-42.5-40.4
		c-20.8,0.9-37.8,18.5-38.4,39.2c-0.3,12.9,5.3,24.3,14.3,31.9c5,4.1,8.5,9.4,10.3,15.2H226.7L226.7,145.1z"/>
	<path class="st0" d="M201.6,172.1c1.5,3.5,5,6.2,9.1,6.2c4.1,0,7.6-2.6,9.1-6.2L201.6,172.1L201.6,172.1z"/>
	<path class="st0" d="M221.5,172.3h-21.4c-2.9,0-5.3-2.3-5.3-5.3v-22.3h31.9v22.3C226.7,170,224.4,172.3,221.5,172.3L221.5,172.3z"
		/>
	<path class="st4" d="M226.5,155.9h-31.6c-1.8,0-3.2-1.5-3.2-3.2h0c0-1.8,1.5-3.2,3.2-3.2h31.6c1.8,0,3.2,1.5,3.2,3.2l0,0
		C229.7,154.5,228.2,155.9,226.5,155.9L226.5,155.9z"/>
	<path class="st4" d="M226.5,166.2h-31.6c-1.8,0-3.2-1.5-3.2-3.2l0,0c0-1.8,1.5-3.2,3.2-3.2l31.6,0c1.8,0,3.2,1.5,3.2,3.2v0
		C229.7,164.7,228.2,166.2,226.5,166.2L226.5,166.2z"/>
	<g>
	    <path class="st3 lightDot" d="M210.6,37.6c-1.5,0-2.9,1.2-2.9,2.9v10c0,1.5,1.2,2.9,2.9,2.9c1.8,0,2.9-1.2,2.9-2.9v-10
		C213.6,38.8,212.1,37.6,210.6,37.6L210.6,37.6z"/>
	<path class="st3 lightDot" d="M171.4,55.5c-1.2-1.2-2.9-1.2-4.1,0c-1.2,1.2-1.2,2.9,0,4.1l7,7c1.2,1.2,2.9,1.2,4.1,0c1.2-1.2,1.2-2.9,0-4.1
		L171.4,55.5L171.4,55.5z"/>
	<path class="st3 lightDot" d="M162.3,95.9h-10c-1.5,0-2.9,1.2-2.9,2.9l0,0c0,1.5,1.2,2.9,2.9,2.9l10,0c1.5,0,2.9-1.2,2.9-2.9l0,0
		C165.2,97.4,163.8,95.9,162.3,95.9L162.3,95.9z"/>
	<path class="st3 lightDot" d="M174.3,131.1l-7,7c-1.2,1.2-1.2,2.9,0,4.1c1.2,1.2,2.9,1.2,4.1,0l7-7c1.2-1.2,1.2-2.9,0-4.1
		C177.3,129.9,175.5,129.9,174.3,131.1L174.3,131.1z"/>
	<path class="st3 lightDot" d="M247,131.1c-1.2-1.2-2.9-1.2-4.1,0c-1.2,1.2-1.2,2.9,0,4.1l7,7c1.2,1.2,2.9,1.2,4.1,0c1.2-1.2,1.2-2.9,0-4.1
		L247,131.1L247,131.1z"/>
	<path class="st3 lightDot" d="M268.9,95.9h-10c-1.5,0-2.9,1.2-2.9,2.9l0,0c0,1.5,1.2,2.9,2.9,2.9l10,0c1.5,0,2.9-1.2,2.9-2.9h0
		C271.8,97.4,270.7,95.9,268.9,95.9L268.9,95.9z"/>
	<path class="st3 lightDot" d="M249.9,55.5l-7,7c-1.2,1.2-1.2,2.9,0,4.1c1.2,1.2,2.9,1.2,4.1,0l7-7c1.2-1.2,1.2-2.9,0-4.1
		C252.8,54.3,251.1,54.3,249.9,55.5L249.9,55.5z"/>
	<path id="light" class="st2" d="M196.4,144.1c5.5-10.2,8.6-21.2,11.4-32.4c1.2-5,4.8-17.8-2.9-20.1c-6.5-2-10.8,6.6-10.8,11.7
		c0.1,6.2,5.7,16.3,11.8,18.5c7.1,2.6,13.6-6,16.1-11.6c1.7-3.7,2.3-8,0.4-11.8c-0.7-1.5-2.5-4.3-4.6-4.2
		c-5.9,0.5-4.4,16.3-4.4,19.8c-0.1,10.7,0.7,21.1,5.4,30.9c0.9,2,3.9,0.2,2.9-1.7c-5.1-10.6-5.2-22.1-4.9-33.6
		c0.1-2.1,0.1-4.3,0.3-6.5c0.8-7,3.1-2.2,3.1,0.8c-0.2,7.3-8.7,18.4-16.2,12.1c-4.1-3.4-8.8-11.7-5.8-16.8c0.8-3,3.3-3.5,7.5-1.5
		c0.5,2.3,0.6,4.6,0.1,6.9c-0.3,2.1-0.9,4.1-1.4,6.1c-2.7,10.9-5.7,21.7-11.1,31.6C192.5,144.3,195.4,146,196.4,144.1L196.4,144.1
		L196.4,144.1z"/>
	</g>
		<g>
		    
	<path id="gear7" class="st5" d="M372.4,250.8c-2.1,1-4.1,2.1-6,3.5l1.9,5.3c-1.7,1.4-3.3,3-4.7,4.7l-5.3-1.8c-1.3,1.9-2.5,3.9-3.5,6l4.2,3.6
		c-0.8,2.1-1.4,4.2-1.7,6.5l-5.5,1.1c-0.2,2.3-0.2,4.6,0,6.9l5.5,1c0.3,2.2,0.9,4.4,1.8,6.4l-4.2,3.7c1,2.1,2.1,4.1,3.5,6l5.3-1.9
		c1.4,1.7,3,3.3,4.7,4.7l-1.8,5.3c1.9,1.3,3.9,2.5,6,3.4l3.6-4.2c2.1,0.8,4.2,1.4,6.5,1.7l1.1,5.5c2.3,0.2,4.6,0.2,6.9,0l1-5.5
		c2.2-0.3,4.4-0.9,6.4-1.8l3.7,4.2c2.1-1,4.1-2.1,6-3.5l-1.9-5.3c1.7-1.4,3.3-3,4.7-4.7l5.3,1.8c1.3-1.9,2.5-3.9,3.4-6l-4.2-3.6
		c0.8-2.1,1.4-4.2,1.7-6.5l5.5-1.1c0.2-2.3,0.2-4.6,0-6.9l-5.5-1c-0.3-2.2-0.9-4.4-1.8-6.4l4.2-3.7c-1-2.1-2.1-4.1-3.5-6l-5.3,1.9
		c-1.4-1.7-3-3.3-4.7-4.7l1.8-5.3c-1.9-1.3-3.9-2.5-6-3.4l-3.6,4.2c-2.1-0.8-4.3-1.4-6.5-1.7l-1.1-5.5c-2.3-0.2-4.6-0.2-6.9,0
		l-1,5.5c-2.2,0.3-4.4,0.9-6.4,1.8L372.4,250.8L372.4,250.8z M383.5,276.9c3.4-2,7.7-0.8,9.7,2.6c2,3.4,0.8,7.7-2.6,9.7
		c-3.4,2-7.7,0.8-9.7-2.6C379,283.2,380.1,278.8,383.5,276.9L383.5,276.9z"/>
	<path id="gear6" class="st4" d="M321.5,233.4c-1.3,1-2.4,2.1-3.5,3.3l2.1,3.2c-0.9,1.2-1.7,2.5-2.4,3.9l-3.8-0.4c-0.6,1.5-1,3-1.3,4.6l3.4,1.8
		c-0.2,1.5-0.2,3.1-0.1,4.6l-3.5,1.6c0.2,1.6,0.6,3.1,1.1,4.6l3.8-0.2c0.6,1.4,1.3,2.8,2.2,4l-2.2,3.1c1,1.3,2.1,2.4,3.3,3.5
		l3.2-2.1c1.2,0.9,2.5,1.7,3.9,2.4l-0.4,3.8c1.5,0.6,3,1,4.6,1.3l1.8-3.4c1.5,0.2,3.1,0.2,4.6,0.1l1.6,3.5c1.6-0.2,3.1-0.6,4.6-1.1
		l-0.2-3.8c1.4-0.6,2.8-1.3,4-2.2l3.1,2.2c1.3-1,2.4-2.1,3.5-3.3l-2.1-3.2c0.9-1.2,1.7-2.5,2.4-3.9l3.8,0.4c0.6-1.5,1-3,1.3-4.6
		l-3.4-1.8c0.2-1.5,0.2-3.1,0.1-4.6l3.5-1.6c-0.2-1.6-0.6-3.1-1.1-4.6l-3.8,0.2c-0.6-1.4-1.3-2.8-2.2-4l2.2-3.1
		c-1-1.3-2.1-2.4-3.3-3.5l-3.2,2.1c-1.2-0.9-2.5-1.7-3.9-2.4l0.4-3.8c-1.5-0.6-3-1-4.6-1.3l-1.8,3.4c-1.5-0.2-3.1-0.2-4.6-0.1
		l-1.6-3.5c-1.6,0.2-3.1,0.6-4.6,1.1l0.2,3.8c-1.4,0.6-2.8,1.3-4,2.2L321.5,233.4L321.5,233.4z M328.8,244.6
		c4.4-4.2,11.5-4.1,15.7,0.4c4.2,4.4,4.1,11.5-0.4,15.7c-4.4,4.2-11.5,4.1-15.7-0.4C324.2,255.8,324.3,248.8,328.8,244.6
		L328.8,244.6z"/>
	<path id="gear5" class="st3" d="M344.1,161.3c-0.9,0.9-1.7,1.8-2.4,2.8l1.9,2.4c-0.6,1-1.2,2.1-1.6,3.2l-3,0c-0.4,1.2-0.6,2.4-0.7,3.7l2.8,1.1
		c0,1.2,0,2.4,0.3,3.6l-2.6,1.5c0.3,1.2,0.7,2.4,1.2,3.5l3-0.4c0.6,1.1,1.2,2.1,2,3l-1.5,2.6c0.9,0.9,1.8,1.7,2.8,2.4l2.4-1.9
		c1,0.6,2.1,1.2,3.2,1.6l0,3c1.2,0.4,2.4,0.6,3.7,0.7l1.1-2.8c1.2,0,2.4,0,3.6-0.3l1.5,2.6c1.2-0.3,2.4-0.7,3.5-1.2l-0.4-3
		c1.1-0.6,2.1-1.2,3-2l2.6,1.5c0.9-0.9,1.7-1.8,2.4-2.8l-1.9-2.4c0.6-1,1.2-2.1,1.6-3.2l3,0c0.4-1.2,0.6-2.4,0.7-3.7l-2.8-1.1
		c0-1.2,0-2.4-0.3-3.6l2.6-1.5c-0.3-1.2-0.7-2.4-1.2-3.5l-3,0.4c-0.6-1.1-1.2-2.1-2-3l1.5-2.6c-0.9-0.9-1.8-1.7-2.8-2.4l-2.3,1.9
		c-1-0.6-2.1-1.2-3.2-1.6l0-3c-1.2-0.4-2.4-0.6-3.7-0.7l-1.1,2.8c-1.2,0-2.4,0-3.6,0.3l-1.5-2.6c-1.2,0.3-2.4,0.7-3.5,1.2l0.4,3
		c-1.1,0.6-2.1,1.2-3,2L344.1,161.3L344.1,161.3z M350.6,169.4c3.1-3.6,8.6-4,12.2-0.9c3.6,3.1,4,8.6,0.9,12.2
		c-3.1,3.6-8.6,4-12.2,0.9C347.8,178.5,347.4,173.1,350.6,169.4L350.6,169.4z"/>
	<path id="gear4" class="st4" d="M38.6,306c-0.9,0.7-1.7,1.5-2.4,2.3l1.5,2.3c-0.7,0.9-1.2,1.8-1.7,2.8l-2.7-0.3c-0.4,1-0.7,2.1-0.9,3.2
		l2.4,1.2c-0.1,1.1-0.2,2.2-0.1,3.2l-2.5,1.1c0.2,1.1,0.4,2.2,0.8,3.3l2.7-0.1c0.4,1,0.9,1.9,1.5,2.8l-1.6,2.2
		c0.7,0.9,1.5,1.7,2.3,2.4l2.3-1.5c0.9,0.7,1.8,1.2,2.8,1.7l-0.3,2.7c1,0.4,2.1,0.7,3.2,0.9l1.2-2.4c1.1,0.1,2.2,0.2,3.2,0.1
		l1.1,2.5c1.1-0.2,2.2-0.4,3.3-0.8l-0.1-2.7c1-0.4,2-0.9,2.8-1.5l2.2,1.6c0.9-0.7,1.7-1.5,2.4-2.3l-1.5-2.3c0.7-0.9,1.2-1.8,1.7-2.8
		l2.7,0.3c0.4-1,0.7-2.1,0.9-3.2l-2.4-1.2c0.1-1.1,0.2-2.2,0.1-3.2l2.5-1.1c-0.2-1.1-0.4-2.2-0.8-3.3l-2.7,0.1c-0.4-1-0.9-2-1.5-2.8
		l1.6-2.2c-0.7-0.9-1.5-1.7-2.3-2.4L58,308c-0.9-0.7-1.8-1.2-2.8-1.7l0.3-2.7c-1-0.4-2.1-0.7-3.2-0.9l-1.2,2.4
		c-1.1-0.1-2.2-0.2-3.2-0.1l-1.1-2.5c-1.1,0.2-2.2,0.4-3.3,0.8l0.1,2.7c-1,0.4-2,0.9-2.8,1.5L38.6,306L38.6,306z M46.8,317
		c1.4-1.3,3.5-1.3,4.8,0.1c1.3,1.4,1.3,3.5-0.1,4.8c-1.4,1.3-3.5,1.3-4.8-0.1C45.3,320.5,45.4,318.3,46.8,317L46.8,317z"/>
	<path id="gear3" class="st6" d="M121.7,144c-1.4-3.1-3.1-6-5.1-8.7l-7.7,2.7c-2-2.5-4.4-4.8-6.9-6.9l2.6-7.7c-2.8-2-5.7-3.6-8.8-5l-5.3,6.2
		c-3-1.2-6.2-2-9.4-2.5l-1.6-8c-3.4-0.3-6.8-0.3-10.1,0.1l-1.5,8c-3.2,0.5-6.4,1.4-9.4,2.6l-5.3-6.1c-3.1,1.4-6,3.1-8.7,5.1l2.7,7.7
		c-2.5,2-4.8,4.4-6.9,6.9l-7.7-2.6c-2,2.8-3.6,5.7-5,8.8l6.2,5.3c-1.2,3-2,6.2-2.5,9.4l-8,1.6c-0.3,3.4-0.3,6.8,0.1,10.1l8,1.5
		c0.5,3.2,1.4,6.4,2.6,9.4l-6.1,5.3c1.4,3.1,3.1,6,5.1,8.7l7.7-2.7c2,2.5,4.4,4.8,6.9,6.9l-2.6,7.7c2.8,2,5.7,3.6,8.8,5l5.3-6.2
		c3,1.2,6.2,2,9.4,2.5l1.6,8c3.4,0.3,6.8,0.3,10.1,0l1.5-8c3.2-0.5,6.4-1.4,9.4-2.6l5.3,6.1c3.1-1.4,6-3.1,8.7-5.1l-2.7-7.7
		c2.5-2,4.8-4.4,6.9-6.9l7.7,2.6c2-2.8,3.6-5.7,5-8.8l-6.2-5.3c1.2-3,2-6.2,2.5-9.4l8-1.6c0.3-3.4,0.3-6.8-0.1-10.1l-8-1.5
		c-0.5-3.2-1.4-6.4-2.6-9.4L121.7,144L121.7,144z M83.7,160.3c2.9,4.9,1.2,11.2-3.7,14.1c-4.9,2.9-11.2,1.2-14.1-3.7
		c-2.9-4.9-1.2-11.2,3.7-14.1C74.5,153.7,80.8,155.4,83.7,160.3L83.7,160.3z"/>
	<path id="gear2" class="st5" d="M160.6,201.8c-1.4-1.8-3-3.5-4.8-5l-4.7,3c-1.8-1.4-3.7-2.5-5.7-3.5l0.5-5.6c-2.2-0.9-4.4-1.5-6.7-2l-2.5,5
		c-2.2-0.3-4.5-0.4-6.7-0.2l-2.3-5.1c-2.3,0.3-4.6,0.9-6.8,1.6l0.3,5.6c-2.1,0.9-4,1.9-5.9,3.2l-4.6-3.3c-1.8,1.4-3.5,3-5,4.8l3,4.7
		c-1.4,1.8-2.5,3.7-3.5,5.7l-5.6-0.5c-0.9,2.2-1.5,4.4-2,6.7l5,2.5c-0.3,2.2-0.4,4.5-0.2,6.7l-5.1,2.3c0.3,2.3,0.9,4.6,1.6,6.8
		l5.6-0.3c0.9,2.1,1.9,4,3.2,5.9l-3.3,4.6c1.4,1.8,3,3.5,4.8,5l4.7-3c1.8,1.4,3.7,2.5,5.7,3.5l-0.5,5.6c2.2,0.9,4.4,1.5,6.7,2l2.5-5
		c2.2,0.3,4.5,0.4,6.7,0.2l2.3,5.1c2.3-0.3,4.6-0.9,6.8-1.6l-0.3-5.6c2.1-0.9,4-1.9,5.9-3.2l4.6,3.3c1.8-1.4,3.5-3,5-4.8l-3-4.7
		c1.4-1.8,2.5-3.7,3.5-5.7l5.6,0.5c0.9-2.2,1.5-4.4,2-6.7l-5-2.5c0.3-2.2,0.3-4.5,0.2-6.7l5.1-2.3c-0.3-2.3-0.9-4.6-1.6-6.8
		l-5.6,0.3c-0.9-2.1-1.9-4-3.2-5.9L160.6,201.8L160.6,201.8z M144.4,212.5c6.2,6.5,5.9,16.7-0.5,22.9c-6.5,6.2-16.7,5.9-22.9-0.5
		c-6.2-6.5-5.9-16.7,0.5-22.9C128,205.8,138.2,206,144.4,212.5L144.4,212.5z"/>
	<path id="gear1" class="st3" d="M93.6,228.2c-0.7-0.9-1.5-1.8-2.4-2.5l-2.3,1.5c-0.9-0.7-1.8-1.3-2.9-1.7l0.3-2.8c-1.1-0.4-2.2-0.8-3.3-1
		l-1.3,2.5c-1.1-0.1-2.2-0.2-3.4-0.1l-1.2-2.5c-1.2,0.2-2.3,0.4-3.4,0.8l0.1,2.8c-1,0.4-2,1-2.9,1.6l-2.3-1.6
		c-0.9,0.7-1.8,1.5-2.5,2.4l1.5,2.3c-0.7,0.9-1.3,1.8-1.7,2.9l-2.8-0.3c-0.4,1.1-0.8,2.2-1,3.3l2.5,1.3c-0.1,1.1-0.2,2.2-0.1,3.4
		l-2.5,1.2c0.2,1.2,0.4,2.3,0.8,3.4l2.8-0.1c0.4,1,1,2,1.6,2.9l-1.6,2.3c0.7,0.9,1.5,1.8,2.4,2.5l2.3-1.5c0.9,0.7,1.8,1.3,2.9,1.7
		l-0.3,2.8c1.1,0.4,2.2,0.8,3.3,1l1.3-2.5c1.1,0.2,2.2,0.2,3.4,0.1l1.2,2.5c1.2-0.2,2.3-0.4,3.4-0.8l-0.1-2.8c1-0.4,2-1,2.9-1.6
		l2.3,1.6c0.9-0.7,1.8-1.5,2.5-2.4l-1.5-2.3c0.7-0.9,1.3-1.8,1.7-2.9l2.8,0.3c0.4-1.1,0.8-2.2,1-3.3l-2.5-1.3
		c0.1-1.1,0.2-2.2,0.1-3.3l2.5-1.2c-0.2-1.2-0.4-2.3-0.8-3.4l-2.8,0.1c-0.4-1-1-2-1.6-2.9L93.6,228.2L93.6,228.2z M82.1,236.7
		c1.4,1.4,1.3,3.7-0.1,5c-1.4,1.4-3.7,1.3-5-0.1c-1.4-1.4-1.3-3.7,0.1-5C78.5,235.3,80.8,235.3,82.1,236.7L82.1,236.7z"/>
		</g>
	<path class="st3" d="M390.5,446.7c0.1-0.8-0.3,1.8-0.5,3.8c4.1,0.7,7.1,4.2,7.1,8.5c0,4.8-3.9,8.6-8.6,8.6c-0.3,0-0.7,0-1-0.1
		c-0.4,2.4-0.9,5.2-0.6,3.8c0.5,0.1,1.1,0.1,1.6,0.1c6.9,0,12.5-5.6,12.5-12.5C401,452.8,396.4,447.6,390.5,446.7L390.5,446.7z"/>
	<path class="st5" d="M376.7,472.5c-1.3-6.3,2.6-10.3,4.5-15.9c1.9-6.3,0.3-13-1.1-19.1c-0.1-0.3-0.2-0.6-0.3-0.9l-5.9,0l-4.1,0
		l-1,0c0.1,0.3,0.2,0.6,0.3,1c1.5,6.1,3.1,12.9,1.1,19.1c-1.9,5.6-5.8,9.7-4.5,15.9c1,4.2,2.6,7.7,3.1,11.9c0.1,0.7,0.1,1.3,0.2,2
		c1.3,0,2.7,0,4.3,0c0.8,0,1.7-0.1,2.6-0.1c0,0,2,0,4.1-0.6c0-0.4-0.1-0.8-0.1-1.2C379.3,480.2,377.6,476.7,376.7,472.5L376.7,472.5
		z"/>
	<path class="st3" d="M391.9,436.7c0-1.2-9.9-2.4-22.1-2.4c-11.4,0-20.8,0.7-22,1.7h-0.1c0,0,0,0.1,0,0.2c-0.1,0.1-0.1,0.2-0.1,0.2
		c0,0.1,0,0.2,0.1,0.3c0.6,4.7,5.5,43.1,7.2,46c0.4,1,2.4,3.5,13.9,3.7c0-0.7-0.1-1.3-0.2-2c-0.5-4.2-2.1-7.7-3.1-11.9
		c-1.3-6.3,2.6-10.1,4.5-15.7c1.8-5.9,0.5-12.8-0.8-17.8c0.2,0,0.3,0,0.5,0c3.8,0,7.4-0.3,10.5-0.4c1.4,5.9,2.7,12.2,0.9,18.1
		c-1.9,5.6-5.8,9.6-4.5,15.9c1,4.2,2.6,7.7,3.1,11.9c0,0.4,0.1,0.8,0.1,1.2c0,0,0.1,0,0.1,0c1.5-0.4,3.1-1.1,4.1-2.3
		c0,0,0-0.1,0.1-0.1c0.1-0.1,0.1-0.1,0.1-0.2c0.1-0.1,0.1-0.2,0.2-0.4c0.1-0.2,0.2-0.5,0.3-0.7c0.5-1.4,0.9-3.7,1.4-6.3
		c0.5-3,0.9-5.7,1.3-8.1c0,0,0,0,0,0c0.9-5.5,1.8-11.7,2.5-17.1c0,0,0,0,0,0c0.2-2,0.5-3.8,0.8-6c0.6-4.6,1-7.5,1-7.5h0
		C391.9,436,391.9,436.7,391.9,436.7L391.9,436.7z"/>
	<path class="st0" d="M369.7,438.6c-10.1,0-17.4-0.8-20.7-1.6c3.3-0.8,10.7-1.6,20.7-1.6c10.1,0,17.4,0.8,20.7,1.6
		C387.1,437.8,379.8,438.6,369.7,438.6L369.7,438.6z"/>
	<path class="st0" d="M0,524.3l34.8-30.9c0,0,2.9-2.8,6.3-2.6c1.2,0.1,4.5,0.1,6.2,0.2c7.4,0.5,18.9-0.6,18.9-0.6
		c0.1,0,0.2,0.1,0.3,0.1c0.2,0.2,0.3,0.2,0.4,0.4c0.3,0.5,0.4,1.4,0.4,2c0,0.5-0.1,0.9-0.2,1.3c-0.2,0.4-0.4,0.7-0.7,1
		c-0.4,0.4-28.3,33.2-28.4,33.3c0,0-1.9,2.5-5.5,2.4c-3.6-0.1-30.7-3.5-30.7-3.5S0.4,526.9,0,524.3L0,524.3z"/>
	<path class="st1" d="M1.9,521.4L33,491.6c0,0,2.6-3.2,6-2.9c1.2,0.1,5.7,0.4,7.4,0.5c7.4,0.5,18.6,1,18.6,1s3.3,0.1,1,2.6
		c-3.1,3.5-29,34-29,34s-1.9,2.5-5.5,2.4c-0.4,0-27.9-3-28.9-3.2c-0.3-0.1-0.7-0.1-1-0.2c-0.6-0.1-1.1-0.3-1.4-0.8
		C-0.5,523.6,0.8,522.2,1.9,521.4L1.9,521.4z"/>
	<path class="st2" d="M18.5,526c-0.7,0.7-2,1.2-2.9,1c-0.9-0.2-1.1-0.9-0.4-1.6c0.7-0.7,2-1.1,2.9-1C19,524.6,19.2,525.3,18.5,526
		L18.5,526z"/>
	<path class="st0" d="M49.7,491.3c-0.2,0.2-0.6,0.3-1,0.3c-0.4,0-0.5-0.2-0.3-0.4c0.2-0.2,0.6-0.3,1-0.3
		C49.8,490.9,49.9,491.1,49.7,491.3L49.7,491.3z"/>
	<path class="st0" d="M32.3,495l1.6-1.5c0,0,1.6-1.4,2-1.6c0.4-0.2,0.4-0.4,3.2-0.2l21.9,1.7c0,0,1.3,0,1.5,0.3
		c0.2,0.2-0.3,0.8-1,1.6l-23.7,26.9c0,0-1.4,2.1-3.4,2.4c0,0-0.8,0.3-2.9,0.3l-24.5-2.4c0,0-2.5,0-1.7-0.9c0.8-0.9,8.7-8.6,8.7-8.6
		L32.3,495L32.3,495z"/>
	<polygon class="st4" points="29.1,498.1 25.2,501.9 57.8,499.3 61,495.6 29.1,498.1 	"/>
	<polygon class="st4" points="24.3,502.8 23,504 55.5,501.9 56.6,500.6 24.3,502.8 	"/>
	<polygon class="st4" points="8.4,518.3 7.3,519.4 41,518.3 42.4,516.7 8.4,518.3 	"/>
	<polygon class="st4" points="10.5,516.2 44.3,514.6 46.7,511.8 13,513.8 10.5,516.2 	"/>
	<path class="st1" d="M396.5,513.5c-1.6-1.8-3.3-3.5-5.1-5.3c-3.6-3.5-7.2-7.1-11.2-10.1c-4.8-3.6-10.5-3.6-16.1-1.7
		c-2.1,0.7-4.5,1.4-6.2,3c-0.4,0.3-0.7,0.7-0.9,1.2c2,6.9,8.1,12.6,13.2,17.2c3.4,3.2,6.3,4.5,10.6,5.9c7.2,2.3,13.9,0.5,19.2-3.7
		c-0.1-1.7-0.9-3.1-1.2-3.7C398.3,515.3,397.3,514.4,396.5,513.5L396.5,513.5z"/>
	<path class="st0" d="M380.8,523.7c-4.3-1.4-7.2-2.7-10.6-5.9c-5.1-4.6-11.2-10.3-13.2-17.2c-0.5,0.9-0.8,1.9-0.9,2.9
		c-0.1,1.7,0.7,3.5,1.7,5.2c0.7,1.2,1.6,2.4,2.3,3.3c1,1.3,2,2.6,3.1,3.9c6,7,15.3,16.1,25.5,13.7c9.9-2.3,11.6-6.5,11.3-9.6
		C394.6,524.2,388,526,380.8,523.7L380.8,523.7z"/>
	<path class="st0" d="M368.1,497.6c0.2,0.2,0.4,0.4,0.5,0.5c0.1,0.1,1.3,1.2,1.4,0.8c0.2-0.8-0.7-1.7-1.3-2
		c-0.2-0.1-0.5-0.2-0.7-0.1C367.6,497,367.8,497.3,368.1,497.6L368.1,497.6z"/>
	<path class="st0" d="M360.9,508.2c0.2-0.3,0.5-0.6,0.8-0.9c0.5-0.6,1.1-1.1,1.7-1.7c0.2-0.1,0.3-0.3,0.5-0.4
		c0.2-0.1,0.4-0.3,0.6-0.4c0.4-0.3,0.8-0.6,1.2-0.8c0.4-0.3,0.9-0.5,1.4-0.8c0.5-0.2,1-0.5,1.5-0.7c0.5-0.2,1.1-0.4,1.6-0.6
		c0.3-0.1,0.5-0.2,0.8-0.3c0.3-0.1,0.6-0.1,0.8-0.2c0.6-0.1,1.1-0.3,1.7-0.4c0.6-0.1,1.2-0.2,1.8-0.3c1.2-0.2,2.4-0.2,3.5-0.2
		c0.6,0,1.2,0.1,1.7,0.1c0.6,0,1.2,0.1,1.7,0.2c0.5,0.1,0.9,0.1,1.4,0.2c0.4,0.3,0.7,0.6,1.1,1c-0.3-0.1-0.7-0.1-1-0.2
		c-0.5-0.1-1-0.2-1.6-0.2c-1.1-0.1-2.2-0.1-3.3-0.2c-1.1,0.1-2.3,0-3.4,0.2c-0.6,0.1-1.1,0.1-1.7,0.2c-0.6,0.1-1.1,0.3-1.7,0.4
		c-0.3,0.1-0.6,0.1-0.8,0.2l-0.8,0.3c-0.5,0.2-1,0.3-1.6,0.5c-0.5,0.2-1,0.4-1.4,0.7c-0.5,0.2-1,0.4-1.4,0.7
		c-0.4,0.3-0.8,0.5-1.2,0.7c-0.2,0.1-0.4,0.2-0.6,0.4c-0.2,0.1-0.4,0.3-0.5,0.4c-0.3,0.3-0.7,0.5-1,0.8c-0.3,0.3-0.6,0.5-0.8,0.7
		c-0.3,0.3-0.6,0.6-0.9,0.9L360.9,508.2L360.9,508.2z"/>
	<path class="st4" d="M77.4,417.1c0,1.4-9.8,13.3-22.7,13.3c-12.8,0-23.7-12-23.7-13.3c0-1.4,10.9-1.9,23.7-1.9
		C67.5,415.2,77.4,415.7,77.4,417.1L77.4,417.1z"/>
	<path class="st7" d="M52.8,460c0,0,0,10.5,2.7,10.2c2-0.2,3.4-9.9,3.4-9.9L52.8,460L52.8,460z"/>
	<polygon class="st1" points="56.2,389.7 55.8,398.8 52.8,460 58.9,460.3 61.9,399.1 62.3,390 56.2,389.7 	"/>
	<polygon class="st1" points="56.4,460.2 55.4,460.1 58.4,399.4 59.3,399.5 56.4,460.2 	"/>
	<path class="st8" d="M60.7,415.9c2.4,0.6,3.3-16.8,3.3-16.8s0.3-26-2.5-27.4c-2.8-1.4-5.3,7.7-6.8,28.2l6.8,0.3L60.7,415.9
		L60.7,415.9z"/>
	<path class="st5" d="M60.7,415.9c1.9,1.6,3.3-16.8,3.3-16.8s0.3-26-2.5-27.4c-2.8-1.4-5.3,7.7-6.8,28.2l6.8,0.3L60.7,415.9
		L60.7,415.9z"/>
	<polygon class="st1" points="64,398.6 54.8,398.1 54.9,397.2 64,397.6 64,398.6 	"/>
	<path class="st5" d="M44.5,467.7c1.7-0.2,3.1-0.2,2.8-2.1l-0.5-3.4l-6.4,0.9l0.5,3.4c0.3,1.9,1.6,1.5,3.3,1.3L44.5,467.7
		L44.5,467.7z"/>
	<polygon class="st9" points="46.6,460.3 40.2,461.1 40.5,463.1 46.8,462.2 46.6,460.3 	"/>
	<polygon class="st3" points="30.6,391.3 40.2,461.1 42.1,460.9 32.5,391 30.6,391.3 	"/>
	<polygon class="st3" points="46.6,460.3 37,390.4 34.4,390.7 44,460.6 46.6,460.3 	"/>
	<polygon class="st0" points="34.4,390.7 32.5,391 42.1,460.9 44,460.6 34.4,390.7 	"/>
	<polygon class="st0" points="32.5,376.9 31.9,381.4 33.9,381.1 32.5,376.9 	"/>
	<polygon class="st3" points="37,390.4 33.9,381.1 31.9,381.4 30.6,391.3 37,390.4 	"/>
	<path class="st5" d="M79,384.4c-1.7-0.4-3-0.9-3.4,1l-0.8,3.3l6.2,1.5l0.8-3.3c0.4-1.9-1-2-2.6-2.4L79,384.4L79,384.4z"/>
	<polygon class="st9" points="74.3,390.6 80.6,392.1 81,390.2 74.8,388.7 74.3,390.6 	"/>
	<polygon class="st3" points="64.3,460.7 80.6,392.1 78.7,391.6 62.4,460.3 64.3,460.7 	"/>
	<polygon class="st3" points="74.3,390.6 58.1,459.2 60.6,459.8 76.8,391.2 74.3,390.6 	"/>
	<polygon class="st10" points="60.6,459.8 62.4,460.3 78.7,391.6 76.8,391.2 60.6,459.8 	"/>
	<polygon class="st0" points="57.3,473.4 59.5,469.5 57.5,469 57.3,473.4 	"/>
	<polygon class="st3" points="58.1,459.2 57.5,469 59.5,469.5 64.3,460.7 58.1,459.2 	"/>
	<path class="st0" d="M52.5,467.3l-0.1-1.9L48,394.9l-2.6,0.2l-1.9,0.1l-1.9,0.1l4.4,70.4l0.1,1.9l0.2,3.4c0.1,1.9,1.5,1.6,3.2,1.5
		l0.2,0c1.7-0.1,3.1,0,3-1.9L52.5,467.3L52.5,467.3z"/>
	<polygon class="st0" points="44.5,381.1 43.6,385.6 45.6,385.4 44.5,381.1 	"/>
	<polygon class="st3" points="48,394.9 45.6,385.4 43.6,385.6 41.6,395.3 48,394.9 	"/>
	<path class="st11" d="M31,417.2c0.6,7.8,2.6,57,8.7,58c4.6,0.7,9,1.1,13.1,1.2l2.5,0c4.2-0.1,8.7-0.5,13.4-1.2
		c6.1-1,8.1-50.1,8.7-58C68.5,422.5,32,420.3,31,417.2L31,417.2z"/>
	<path class="st5" d="M31,417.2c0.6,7.8,2.6,57,8.7,58c4.6,0.7,9,1.1,13.1,1.2l2.5,0c4.2-0.1,8.7-0.5,13.4-1.2
		c6.1-1,8.1-50.1,8.7-58C68.5,422.5,32,420.3,31,417.2L31,417.2z"/>
	<path class="st2" d="M34.9,420.4c0,1.4-1.3,2.6-2.7,2.5c-0.3,0-0.5-0.1-0.8-0.1c-0.1-2-0.2-3.7-0.3-4.8c0.2-0.1,0.3-0.1,0.5-0.2
		c0.6,0.3,1.5,0.6,2.7,0.9C34.7,419.2,34.9,419.7,34.9,420.4L34.9,420.4z"/>
	<path class="st2" d="M34.5,434.1c0,1.3-1,2.3-2.2,2.5c-0.1-1.8-0.3-3.5-0.4-5.2C33.4,431.5,34.5,432.7,34.5,434.1L34.5,434.1z"/>
	<path class="st2" d="M38.9,430c-1.5,0-2.6-1.2-2.6-2.7c0-1.4,1.3-2.6,2.7-2.6c1.5,0,2.6,1.2,2.6,2.7C41.6,428.9,40.4,430,38.9,430
		L38.9,430z"/>
	<path class="st2" d="M34.1,447.9c0,0.6-0.3,1.2-0.7,1.7c-0.1-1.3-0.3-2.5-0.4-3.8C33.7,446.2,34.1,447,34.1,447.9L34.1,447.9z"/>
	<path class="st2" d="M38.6,443.7c-1.5,0-2.7-1.2-2.7-2.7c0-1.4,1.3-2.6,2.8-2.6c1.5,0,2.7,1.2,2.7,2.7
		C41.4,442.6,40.1,443.8,38.6,443.7L38.6,443.7z"/>
	<path class="st2" d="M38.3,457.5c-1.5,0-2.8-1.2-2.7-2.7c0-1.4,1.3-2.6,2.8-2.6c1.5,0,2.7,1.2,2.7,2.7
		C41.1,456.4,39.9,457.5,38.3,457.5L38.3,457.5z"/>
	<path class="st2" d="M38,471.3c-0.4,0-0.7-0.1-1-0.2c-0.4-1.2-0.7-2.5-1.1-4.1c0.5-0.6,1.3-1,2.2-0.9c1.6,0,2.8,1.2,2.8,2.7
		C40.9,470.1,39.6,471.3,38,471.3L38,471.3z"/>
	<path class="st2" d="M48.7,420.6c0,1.4-1.2,2.6-2.7,2.6c-1.5,0-2.6-1.2-2.6-2.7c0-0.2,0-0.4,0.1-0.6c1.6,0.1,3.4,0.2,5.2,0.3
		C48.7,420.4,48.7,420.5,48.7,420.6L48.7,420.6z"/>
	<path class="st2" d="M48.6,434.4c0,1.4-1.2,2.6-2.7,2.6c-1.5,0-2.7-1.2-2.7-2.7c0-1.4,1.2-2.6,2.7-2.6
		C47.4,431.8,48.6,432.9,48.6,434.4L48.6,434.4z"/>
	<path class="st2" d="M53,430.1c-1.5,0-2.7-1.2-2.7-2.6c0-1.4,1.2-2.6,2.7-2.6c1.5,0,2.7,1.2,2.7,2.6C55.6,429,54.4,430.1,53,430.1
		L53,430.1z"/>
	<path class="st2" d="M48.5,448.1c0,1.4-1.3,2.6-2.8,2.6c-1.5,0-2.7-1.2-2.7-2.7c0-1.4,1.3-2.6,2.8-2.6
		C47.3,445.5,48.5,446.7,48.5,448.1L48.5,448.1z"/>
	<path class="st2" d="M53,443.9c-1.5,0-2.7-1.2-2.7-2.6c0-1.4,1.2-2.6,2.7-2.6c1.5,0,2.7,1.2,2.7,2.6
		C55.7,442.7,54.5,443.9,53,443.9L53,443.9z"/>
	<path class="st2" d="M48.4,461.9c0,1.4-1.3,2.6-2.8,2.6c-1.6,0-2.8-1.2-2.8-2.7c0-1.4,1.3-2.6,2.8-2.6
		C47.2,459.3,48.4,460.5,48.4,461.9L48.4,461.9z"/>
	<path class="st2" d="M53,457.7c-1.5,0-2.8-1.2-2.8-2.6c0-1.4,1.2-2.6,2.8-2.6c1.5,0,2.8,1.2,2.8,2.6
		C55.7,456.5,54.5,457.7,53,457.7L53,457.7z"/>
	<path class="st2" d="M48.3,475.7c0,0.2,0,0.3-0.1,0.5c-1.8-0.1-3.7-0.3-5.7-0.6c0-1.4,1.3-2.6,2.9-2.6
		C47.1,473,48.3,474.2,48.3,475.7L48.3,475.7z"/>
	<path class="st2" d="M53,471.4c-1.6,0-2.8-1.2-2.8-2.6c0-1.4,1.3-2.6,2.8-2.6c1.6,0,2.8,1.2,2.8,2.6
		C55.8,470.2,54.5,471.4,53,471.4L53,471.4z"/>
	<path class="st2" d="M62.5,420.6c0,1.4-1.1,2.6-2.6,2.7c-1.5,0-2.7-1.1-2.7-2.6c0-0.1,0-0.1,0-0.2c1.8,0,3.5-0.1,5.2-0.2
		C62.5,420.3,62.5,420.4,62.5,420.6L62.5,420.6z"/>
	<path class="st2" d="M62.7,434.3c0,1.4-1.2,2.6-2.7,2.7c-1.5,0-2.7-1.1-2.7-2.6c0-1.4,1.2-2.6,2.7-2.6
		C61.5,431.7,62.7,432.9,62.7,434.3L62.7,434.3z"/>
	<path class="st2" d="M67,430c-1.5,0-2.7-1.1-2.7-2.6c0-1.4,1.1-2.6,2.6-2.7c1.5,0,2.7,1.1,2.7,2.6C69.6,428.7,68.5,430,67,430
		L67,430z"/>
	<path class="st2" d="M62.9,448.1c0,1.4-1.2,2.6-2.7,2.7c-1.5,0-2.8-1.1-2.8-2.6c0-1.4,1.2-2.6,2.7-2.6
		C61.6,445.5,62.9,446.6,62.9,448.1L62.9,448.1z"/>
	<path class="st2" d="M67.3,443.7c-1.5,0-2.7-1.1-2.8-2.6c0-1.4,1.2-2.6,2.7-2.7c1.5,0,2.7,1.1,2.8,2.6
		C70,442.5,68.8,443.7,67.3,443.7L67.3,443.7z"/>
	<path class="st2" d="M63.1,461.8c0,1.4-1.2,2.6-2.8,2.7c-1.6,0-2.8-1.1-2.8-2.6c0-1.4,1.2-2.6,2.8-2.6
		C61.8,459.2,63.1,460.4,63.1,461.8L63.1,461.8z"/>
	<path class="st2" d="M67.6,457.5c-1.5,0-2.8-1.1-2.8-2.6c0-1.4,1.2-2.6,2.7-2.7c1.5,0,2.8,1.1,2.8,2.6
		C70.3,456.3,69.1,457.5,67.6,457.5L67.6,457.5z"/>
	<path class="st2" d="M63.3,475.6c0,0.1,0,0.2,0,0.3c-1.9,0.2-3.8,0.3-5.6,0.4c-0.1-0.2-0.1-0.4-0.1-0.6c0-1.4,1.3-2.6,2.8-2.6
		C62,473,63.3,474.2,63.3,475.6L63.3,475.6z"/>
	<path class="st2" d="M67.9,471.3c-1.6,0-2.9-1.1-2.9-2.6c0-1.4,1.2-2.6,2.8-2.7c1.6,0,2.8,1.1,2.9,2.6
		C70.7,470,69.4,471.2,67.9,471.3L67.9,471.3z"/>
	<path class="st2" d="M76.3,420.2c0.1,1.4-1.1,2.7-2.5,2.7c-1.5,0-2.7-1.1-2.7-2.5c0-0.4,0.1-0.8,0.2-1.2c1.5-0.3,2.8-0.6,3.9-1
		C75.9,418.6,76.3,419.4,76.3,420.2L76.3,420.2z"/>
	<path class="st2" d="M76.1,435.8c-0.5,0.5-1.2,0.9-1.9,0.9c-1.5,0-2.7-1.1-2.8-2.5c0-1.4,1.1-2.7,2.6-2.7c1,0,1.8,0.4,2.3,1.2
		C76.3,433.6,76.2,434.7,76.1,435.8L76.1,435.8z"/>
	<path class="st2" d="M74.9,450.4c-0.1,0-0.1,0-0.2,0c-1.5,0-2.8-1.1-2.8-2.5c0-1.4,1.2-2.7,2.7-2.7c0.3,0,0.6,0,0.9,0.1
		C75.2,447,75,448.7,74.9,450.4L74.9,450.4z"/>
	<path class="st2" d="M73.1,463.5c-0.5-0.5-0.9-1.1-0.9-1.8c0-1.1,0.6-2,1.6-2.4C73.6,460.7,73.4,462.1,73.1,463.5L73.1,463.5z"/>
	<polygon class="st1" points="316.5,445 104.7,445 104.7,323.3 316.5,323.3 316.5,445 	"/>
	<polygon class="st0" points="316.5,333.4 104.7,333.4 104.7,323.3 316.5,323.3 316.5,333.4 	"/>
	<polygon class="st0" points="316.5,445 104.7,445 104.7,437.4 316.5,437.4 316.5,445 	"/>
	<polygon class="st4" points="279.1,437.4 125.7,437.4 125.7,333.4 279.1,333.4 279.1,437.4 	"/>
	<polygon class="st1" points="125.7,437.4 104.7,437.4 104.7,333.4 125.7,333.4 125.7,437.4 	"/>
	<polygon class="st2" points="120,350.3 110.4,350.3 110.4,341.3 120,341.3 120,350.3 	"/>
	<polygon class="st2" points="120,366.3 110.4,366.3 110.4,357.3 120,357.3 120,366.3 	"/>
	<polygon class="st2" points="120,382.4 110.4,382.4 110.4,373.4 120,373.4 120,382.4 	"/>
	<polygon class="st2" points="120,398.4 110.4,398.4 110.4,389.4 120,389.4 120,398.4 	"/>
	<polygon class="st2" points="120,414.5 110.4,414.5 110.4,405.5 120,405.5 120,414.5 	"/>
	<polygon class="st4" points="116.2,426.6 110.4,426.6 110.4,421.1 116.2,421.1 116.2,426.6 	"/>
	<polygon class="st5" points="118.1,429.4 112.3,429.4 112.3,423.9 118.1,423.9 118.1,429.4 	"/>
	<polygon class="st2" points="244.9,430.2 146,430.2 146,341.3 244.9,341.3 244.9,430.2 	"/>
	<polygon class="st4" points="164.6,425.5 158.9,425.5 158.9,420 164.6,420 164.6,425.5 	"/>
	<polygon class="st5" points="172.5,425.5 166.7,425.5 166.7,420 172.5,420 172.5,425.5 	"/>
	<polygon class="st0" points="156.7,425.5 151,425.5 151,420 156.7,420 156.7,425.5 	"/>
	<polygon class="st3" points="180.4,425.5 174.6,425.5 174.6,420 180.4,420 180.4,425.5 	"/>
	<polygon class="st4" points="312.7,344 282.3,344 282.3,341.3 312.7,341.3 312.7,344 	"/>
	<polygon class="st0" points="312.7,366.2 282.3,366.2 282.3,344 312.7,344 312.7,366.2 	"/>
	<polygon class="st4" points="312.7,376 282.3,376 282.3,373.2 312.7,373.2 312.7,376 	"/>
	<polygon class="st0" points="312.7,398.2 282.3,398.2 282.3,376 312.7,376 312.7,398.2 	"/>
	<polygon class="st4" points="312.7,404.8 282.3,404.8 282.3,402 312.7,402 312.7,404.8 	"/>
	<polygon class="st0" points="312.7,427 282.3,427 282.3,404.8 312.7,404.8 312.7,427 	"/>
	<g class="drowing3">
	    <path class="st4" d="M192.7,400.1l11.9-17.1c-2.1-2.5-4.9-4.3-8.2-5l0,11.8h-18.1c-0.2,0.9-0.3,1.8-0.3,2.8c0,8.3,6.7,15,15,15
		c5.5,0,10.3-3,13-7.4L192.7,400.1L192.7,400.1z"/>
		<path class="st12" d="M196.4,377.9c-1.1-0.2-2.2-0.4-3.4-0.4c-7.3,0-13.4,5.3-14.7,12.2h18.1V377.9L196.4,377.9z"/>
	    <path class="st13" d="M206,400.1c1.3-2.2,2.1-4.8,2.1-7.6c0-3.6-1.3-7-3.5-9.6l-11.9,17.1H206L206,400.1z"/>
	</g>
	<g class="drowing2"> 
	<path class="st3" d="M193,377.5c1.2,0,2.3,0.1,3.4,0.4l0-14.7h-26.5v26.5h8.4C179.6,382.8,185.7,377.5,193,377.5L193,377.5z"/>
	<path class="st12" d="M196.4,377.9c-1.1-0.2-2.2-0.4-3.4-0.4c-7.3,0-13.4,5.3-14.7,12.2h18.1V377.9L196.4,377.9z"/>
	</g>
	<g class="drowing1">
	<path class="st5" d="M206,400.1h22.5l-17.8-26l-6.2,8.9c2.2,2.6,3.5,5.9,3.5,9.6C208,395.3,207.3,397.9,206,400.1L206,400.1z"/>
	<path class="st13" d="M206,400.1c1.3-2.2,2.1-4.8,2.1-7.6c0-3.6-1.3-7-3.5-9.6l-11.9,17.1H206L206,400.1z"/>
	</g>
	<polygon class="st2" points="310.4,330.1 306.6,330.1 306.6,326.5 310.4,326.5 310.4,330.1 	"/>
	<polygon class="st2" points="304.3,330.1 300.5,330.1 300.5,326.5 304.3,326.5 304.3,330.1 	"/>
	<polygon class="st2" points="298.2,330.1 294.4,330.1 294.4,326.5 298.2,326.5 298.2,330.1 	"/>
	<polygon class="st4" points="240.9,416.6 238.7,416.6 238.7,415.1 239.4,415.1 239.4,414.4 240.9,414.4 240.9,416.6 	"/>
	<path class="st4" d="M157.2,416.6h-3v-1.5h3V416.6L157.2,416.6z M163.3,416.6h-3v-1.5h3V416.6L163.3,416.6z M169.3,416.6h-3v-1.5h3
		V416.6L169.3,416.6z M175.3,416.6h-3v-1.5h3V416.6L175.3,416.6z M181.4,416.6h-3v-1.5h3V416.6L181.4,416.6z M187.4,416.6h-3v-1.5h3
		V416.6L187.4,416.6z M193.4,416.6h-3v-1.5h3V416.6L193.4,416.6z M199.5,416.6h-3v-1.5h3V416.6L199.5,416.6z M205.5,416.6h-3v-1.5h3
		V416.6L205.5,416.6z M211.5,416.6h-3v-1.5h3V416.6L211.5,416.6z M217.6,416.6h-3v-1.5h3V416.6L217.6,416.6z M223.6,416.6h-3v-1.5h3
		V416.6L223.6,416.6z M229.6,416.6h-3v-1.5h3V416.6L229.6,416.6z M235.7,416.6h-3v-1.5h3V416.6L235.7,416.6z"/>
	<polygon class="st4" points="151.2,416.6 149,416.6 149,414.4 150.5,414.4 150.5,415.1 151.2,415.1 151.2,416.6 	"/>
	<path class="st4" d="M150.5,353.1H149v-2.9h1.5V353.1L150.5,353.1z M150.5,358.9H149V356h1.5V358.9L150.5,358.9z M150.5,364.8H149
		v-2.9h1.5V364.8L150.5,364.8z M150.5,370.6H149v-2.9h1.5V370.6L150.5,370.6z M150.5,376.4H149v-2.9h1.5V376.4L150.5,376.4z
		 M150.5,382.3H149v-2.9h1.5V382.3L150.5,382.3z M150.5,388.1H149v-2.9h1.5V388.1L150.5,388.1z M150.5,394H149V391h1.5V394
		L150.5,394z M150.5,399.8H149v-2.9h1.5V399.8L150.5,399.8z M150.5,405.6H149v-2.9h1.5V405.6L150.5,405.6z M150.5,411.5H149v-2.9
		h1.5V411.5L150.5,411.5z"/>
	<polygon class="st4" points="150.5,347.2 149,347.2 149,345 151.2,345 151.2,346.5 150.5,346.5 150.5,347.2 	"/>
	<path class="st4" d="M157.2,346.5h-3V345h3V346.5L157.2,346.5z M163.3,346.5h-3V345h3V346.5L163.3,346.5z M169.3,346.5h-3V345h3
		V346.5L169.3,346.5z M175.3,346.5h-3V345h3V346.5L175.3,346.5z M181.4,346.5h-3V345h3V346.5L181.4,346.5z M187.4,346.5h-3V345h3
		V346.5L187.4,346.5z M193.4,346.5h-3V345h3V346.5L193.4,346.5z M199.5,346.5h-3V345h3V346.5L199.5,346.5z M205.5,346.5h-3V345h3
		V346.5L205.5,346.5z M211.5,346.5h-3V345h3V346.5L211.5,346.5z M217.6,346.5h-3V345h3V346.5L217.6,346.5z M223.6,346.5h-3V345h3
		V346.5L223.6,346.5z M229.6,346.5h-3V345h3V346.5L229.6,346.5z M235.7,346.5h-3V345h3V346.5L235.7,346.5z"/>
	<polygon class="st4" points="240.9,347.2 239.4,347.2 239.4,346.5 238.7,346.5 238.7,345 240.9,345 240.9,347.2 	"/>
	<path class="st4" d="M240.9,353.1h-1.5v-2.9h1.5V353.1L240.9,353.1z M240.9,358.9h-1.5V356h1.5V358.9L240.9,358.9z M240.9,364.8
		h-1.5v-2.9h1.5V364.8L240.9,364.8z M240.9,370.6h-1.5v-2.9h1.5V370.6L240.9,370.6z M240.9,376.4h-1.5v-2.9h1.5V376.4L240.9,376.4z
		 M240.9,382.3h-1.5v-2.9h1.5V382.3L240.9,382.3z M240.9,388.1h-1.5v-2.9h1.5V388.1L240.9,388.1z M240.9,394h-1.5V391h1.5V394
		L240.9,394z M240.9,399.8h-1.5v-2.9h1.5V399.8L240.9,399.8z M240.9,405.6h-1.5v-2.9h1.5V405.6L240.9,405.6z M240.9,411.5h-1.5v-2.9
		h1.5V411.5L240.9,411.5z"/>
</g>
<g id="plane">
	<path class="st0" d="M353.8,382.7l-12.2,1.9l-2.9-4.1c0,0,3.6-4.1,4.1-3.9c0.5,0.1,5.8,3.1,6.7,3.6
		C350.4,380.8,353.8,382.7,353.8,382.7L353.8,382.7z"/>
	<path class="st5" d="M293,391.4c-0.1-0.4,0.1-0.7,0.4-0.9l48.6-35.3c0.3-0.2,0.7-0.2,1,0c0.3,0.2,0.5,0.6,0.4,0.9l-1.7,11
		c-0.1,0.9,0.2,1.7,0.8,2.3l11.8,11.8c0.3,0.3,0.3,0.7,0.2,1c-0.2,0.3-0.5,0.6-0.9,0.5l-10.8-1c-0.3,0-0.6,0.1-0.8,0.3
		c-0.2,0.2-0.3,0.5-0.2,0.8L346,401c0.1,0.2,0,0.5-0.1,0.7c0,0-0.1,0.1-0.1,0.1c-0.2,0.2-0.5,0.3-0.8,0.3l-51.1-10.1
		C293.4,392,293.1,391.7,293,391.4L293,391.4z"/>
	<path class="st4" d="M293.1,390.9l48.7-22.8c0.1,0.5,0.3,0.9,0.7,1.3l11.8,11.8c0.3,0.3,0.3,0.7,0.2,1c-0.2,0.3-0.5,0.6-0.9,0.5
		l-10.8-1c-0.1,0-0.1,0-0.2,0c0,0,0,0,0,0l-49.4,9.6C293,391.2,293,391,293.1,390.9L293.1,390.9z"/>
</g>
</svg>